<svg xmlns="http://www.w3.org/2000/svg" viewBox="0,0,1000,1000" width="652" height="652"><rect x="0" y="0" width="1000" height="1000" fill="hsla(0, 0%, 9%, 1)"></rect><ellipse cx="500" cy="500" rx="100" ry="300" fill="none" stroke="hsla(8, 80%, 80%, 0.6)" strokeWidth="1" transform="rotate(79 500 500)"></ellipse><ellipse cx="500" cy="500" rx="103" ry="302" fill="none" stroke="hsla(11, 80%, 80%, 0.6)" strokeWidth="1" transform="rotate(81 500 500)"></ellipse><ellipse cx="500" cy="500" rx="106" ry="304" fill="none" stroke="hsla(14, 80%, 80%, 0.6)" strokeWidth="1" transform="rotate(83 500 500)"></ellipse><ellipse cx="500" cy="500" rx="109" ry="306" fill="none" stroke="hsla(17, 80%, 80%, 0.6)" strokeWidth="1" transform="rotate(85 500 500)"></ellipse><ellipse cx="500" cy="500" rx="112" ry="308" fill="none" stroke="hsla(20, 80%, 80%, 0.6)" strokeWidth="1" transform="rotate(87 500 500)"></ellipse><ellipse cx="500" cy="500" rx="115" ry="310" fill="none" stroke="hsla(23, 80%, 80%, 0.6)" strokeWidth="1" transform="rotate(89 500 500)"></ellipse><ellipse cx="500" cy="500" rx="118" ry="312" fill="none" stroke="hsla(26, 80%, 80%, 0.6)" strokeWidth="1" transform="rotate(91 500 500)"></ellipse><ellipse cx="500" cy="500" rx="121" ry="314" fill="none" stroke="hsla(29, 80%, 80%, 0.6)" strokeWidth="1" transform="rotate(93 500 500)"></ellipse><ellipse cx="500" cy="500" rx="124" ry="316" fill="none" stroke="hsla(32, 80%, 80%, 0.6)" strokeWidth="1" transform="rotate(95 500 500)"></ellipse><ellipse cx="500" cy="500" rx="127" ry="318" fill="none" stroke="hsla(35, 80%, 80%, 0.6)" strokeWidth="1" transform="rotate(97 500 500)"></ellipse><ellipse cx="500" cy="500" rx="130" ry="320" fill="none" stroke="hsla(38, 80%, 80%, 0.6)" strokeWidth="1" transform="rotate(99 500 500)"></ellipse><ellipse cx="500" cy="500" rx="133" ry="322" fill="none" stroke="hsla(41, 80%, 80%, 0.6)" strokeWidth="1" transform="rotate(101 500 500)"></ellipse><ellipse cx="500" cy="500" rx="136" ry="324" fill="none" stroke="hsla(44, 80%, 80%, 0.6)" strokeWidth="1" transform="rotate(103 500 500)"></ellipse><ellipse cx="500" cy="500" rx="139" ry="326" fill="none" stroke="hsla(47, 80%, 80%, 0.6)" strokeWidth="1" transform="rotate(105 500 500)"></ellipse><ellipse cx="500" cy="500" rx="142" ry="328" fill="none" stroke="hsla(50, 80%, 80%, 0.6)" strokeWidth="1" transform="rotate(107 500 500)"></ellipse><ellipse cx="500" cy="500" rx="145" ry="330" fill="none" stroke="hsla(53, 80%, 80%, 0.6)" strokeWidth="1" transform="rotate(109 500 500)"></ellipse><ellipse cx="500" cy="500" rx="148" ry="332" fill="none" stroke="hsla(56, 80%, 80%, 0.6)" strokeWidth="1" transform="rotate(111 500 500)"></ellipse><ellipse cx="500" cy="500" rx="151" ry="334" fill="none" stroke="hsla(59, 80%, 80%, 0.6)" strokeWidth="1" transform="rotate(113 500 500)"></ellipse><ellipse cx="500" cy="500" rx="154" ry="336" fill="none" stroke="hsla(62, 80%, 80%, 0.6)" strokeWidth="1" transform="rotate(115 500 500)"></ellipse><ellipse cx="500" cy="500" rx="157" ry="338" fill="none" stroke="hsla(65, 80%, 80%, 0.6)" strokeWidth="1" transform="rotate(117 500 500)"></ellipse><ellipse cx="500" cy="500" rx="160" ry="340" fill="none" stroke="hsla(68, 80%, 80%, 0.6)" strokeWidth="1" transform="rotate(119 500 500)"></ellipse><ellipse cx="500" cy="500" rx="163" ry="342" fill="none" stroke="hsla(71, 80%, 80%, 0.6)" strokeWidth="1" transform="rotate(121 500 500)"></ellipse><ellipse cx="500" cy="500" rx="166" ry="344" fill="none" stroke="hsla(74, 80%, 80%, 0.6)" strokeWidth="1" transform="rotate(123 500 500)"></ellipse><ellipse cx="500" cy="500" rx="169" ry="346" fill="none" stroke="hsla(77, 80%, 80%, 0.6)" strokeWidth="1" transform="rotate(125 500 500)"></ellipse><ellipse cx="500" cy="500" rx="172" ry="348" fill="none" stroke="hsla(80, 80%, 80%, 0.6)" strokeWidth="1" transform="rotate(127 500 500)"></ellipse><ellipse cx="500" cy="500" rx="175" ry="350" fill="none" stroke="hsla(83, 80%, 80%, 0.6)" strokeWidth="1" transform="rotate(129 500 500)"></ellipse><ellipse cx="500" cy="500" rx="178" ry="352" fill="none" stroke="hsla(86, 80%, 80%, 0.6)" strokeWidth="1" transform="rotate(131 500 500)"></ellipse><ellipse cx="500" cy="500" rx="181" ry="354" fill="none" stroke="hsla(89, 80%, 80%, 0.6)" strokeWidth="1" transform="rotate(133 500 500)"></ellipse><ellipse cx="500" cy="500" rx="184" ry="356" fill="none" stroke="hsla(92, 80%, 80%, 0.6)" strokeWidth="1" transform="rotate(135 500 500)"></ellipse><ellipse cx="500" cy="500" rx="187" ry="358" fill="none" stroke="hsla(95, 80%, 80%, 0.6)" strokeWidth="1" transform="rotate(137 500 500)"></ellipse><ellipse cx="500" cy="500" rx="190" ry="360" fill="none" stroke="hsla(98, 80%, 80%, 0.6)" strokeWidth="1" transform="rotate(139 500 500)"></ellipse><ellipse cx="500" cy="500" rx="193" ry="362" fill="none" stroke="hsla(101, 80%, 80%, 0.6)" strokeWidth="1" transform="rotate(141 500 500)"></ellipse><ellipse cx="500" cy="500" rx="196" ry="364" fill="none" stroke="hsla(104, 80%, 80%, 0.6)" strokeWidth="1" transform="rotate(143 500 500)"></ellipse><ellipse cx="500" cy="500" rx="199" ry="366" fill="none" stroke="hsla(107, 80%, 80%, 0.6)" strokeWidth="1" transform="rotate(145 500 500)"></ellipse><ellipse cx="500" cy="500" rx="202" ry="368" fill="none" stroke="hsla(110, 80%, 80%, 0.6)" strokeWidth="1" transform="rotate(147 500 500)"></ellipse><ellipse cx="500" cy="500" rx="205" ry="370" fill="none" stroke="hsla(113, 80%, 80%, 0.6)" strokeWidth="1" transform="rotate(149 500 500)"></ellipse><ellipse cx="500" cy="500" rx="208" ry="372" fill="none" stroke="hsla(116, 80%, 80%, 0.6)" strokeWidth="1" transform="rotate(151 500 500)"></ellipse><ellipse cx="500" cy="500" rx="211" ry="374" fill="none" stroke="hsla(119, 80%, 80%, 0.6)" strokeWidth="1" transform="rotate(153 500 500)"></ellipse><ellipse cx="500" cy="500" rx="214" ry="376" fill="none" stroke="hsla(122, 80%, 80%, 0.6)" strokeWidth="1" transform="rotate(155 500 500)"></ellipse><ellipse cx="500" cy="500" rx="217" ry="378" fill="none" stroke="hsla(125, 80%, 80%, 0.6)" strokeWidth="1" transform="rotate(157 500 500)"></ellipse><ellipse cx="500" cy="500" rx="220" ry="380" fill="none" stroke="hsla(128, 80%, 80%, 0.6)" strokeWidth="1" transform="rotate(159 500 500)"></ellipse><ellipse cx="500" cy="500" rx="223" ry="382" fill="none" stroke="hsla(131, 80%, 80%, 0.6)" strokeWidth="1" transform="rotate(161 500 500)"></ellipse><ellipse cx="500" cy="500" rx="226" ry="384" fill="none" stroke="hsla(134, 80%, 80%, 0.6)" strokeWidth="1" transform="rotate(163 500 500)"></ellipse><ellipse cx="500" cy="500" rx="229" ry="386" fill="none" stroke="hsla(137, 80%, 80%, 0.6)" strokeWidth="1" transform="rotate(165 500 500)"></ellipse><ellipse cx="500" cy="500" rx="232" ry="388" fill="none" stroke="hsla(140, 80%, 80%, 0.6)" strokeWidth="1" transform="rotate(167 500 500)"></ellipse><ellipse cx="500" cy="500" rx="235" ry="390" fill="none" stroke="hsla(143, 80%, 80%, 0.6)" strokeWidth="1" transform="rotate(169 500 500)"></ellipse><ellipse cx="500" cy="500" rx="238" ry="392" fill="none" stroke="hsla(146, 80%, 80%, 0.6)" strokeWidth="1" transform="rotate(171 500 500)"></ellipse><ellipse cx="500" cy="500" rx="241" ry="394" fill="none" stroke="hsla(149, 80%, 80%, 0.6)" strokeWidth="1" transform="rotate(173 500 500)"></ellipse><ellipse cx="500" cy="500" rx="244" ry="396" fill="none" stroke="hsla(152, 80%, 80%, 0.6)" strokeWidth="1" transform="rotate(175 500 500)"></ellipse><ellipse cx="500" cy="500" rx="247" ry="398" fill="none" stroke="hsla(155, 80%, 80%, 0.6)" strokeWidth="1" transform="rotate(177 500 500)"></ellipse><ellipse cx="500" cy="500" rx="250" ry="400" fill="none" stroke="hsla(158, 80%, 80%, 0.6)" strokeWidth="1" transform="rotate(179 500 500)"></ellipse><ellipse cx="500" cy="500" rx="253" ry="402" fill="none" stroke="hsla(161, 80%, 80%, 0.6)" strokeWidth="1" transform="rotate(181 500 500)"></ellipse><ellipse cx="500" cy="500" rx="256" ry="404" fill="none" stroke="hsla(164, 80%, 80%, 0.6)" strokeWidth="1" transform="rotate(183 500 500)"></ellipse><ellipse cx="500" cy="500" rx="259" ry="406" fill="none" stroke="hsla(167, 80%, 80%, 0.6)" strokeWidth="1" transform="rotate(185 500 500)"></ellipse><ellipse cx="500" cy="500" rx="262" ry="408" fill="none" stroke="hsla(170, 80%, 80%, 0.6)" strokeWidth="1" transform="rotate(187 500 500)"></ellipse></svg>