<svg xmlns="http://www.w3.org/2000/svg" viewBox="0,0,1000,1000" width="652" height="652"><rect x="0" y="0" width="1000" height="1000" fill="#181818"></rect><g><circle cx="3" cy="0" r="1" transform="translate(500, 500)" fill="#000000"></circle><circle cx="4.92403876506104" cy="0.8682408883346516" r="1.05" transform="translate(500, 500)" fill="#000033"></circle><circle cx="6.5778483455013586" cy="2.394141003279681" r="1.1" transform="translate(500, 500)" fill="#000066"></circle><circle cx="7.794228634059948" cy="4.499999999999999" r="1.15" transform="translate(500, 500)" fill="#000099"></circle><circle cx="8.426488874308758" cy="7.070663706551931" r="1.2" transform="translate(500, 500)" fill="#0000CC"></circle><circle cx="8.356238925925012" cy="9.958577760546714" r="1.25" transform="translate(500, 500)" fill="#0000FF"></circle><circle cx="7.500000000000002" cy="12.990381056766578" r="1.3" transform="translate(500, 500)" fill="#003300"></circle><circle cx="5.81434243653637" cy="15.974774553360442" r="1.35" transform="translate(500, 500)" fill="#003333"></circle><circle cx="3.2993153756716778" cy="18.711347307231954" r="1.4" transform="translate(500, 500)" fill="#003366"></circle><circle cx="1.2858791391047208e-15" cy="21" r="1.45" transform="translate(500, 500)" fill="#003399"></circle><circle cx="-3.993908086339397" cy="22.650578319280786" r="1.5" transform="translate(500, 500)" fill="#0033CC"></circle><circle cx="-8.550503583141717" cy="23.49231551964771" r="1.55" transform="translate(500, 500)" fill="#0033FF"></circle><circle cx="-13.499999999999995" cy="23.382685902179844" r="1.6" transform="translate(500, 500)" fill="#006600"></circle><circle cx="-18.64084068090964" cy="22.215288850450364" r="1.65" transform="translate(500, 500)" fill="#006633"></circle><circle cx="-23.747377736688314" cy="19.926415900282723" r="1.7" transform="translate(500, 500)" fill="#006666"></circle><circle cx="-28.578838324886476" cy="16.499999999999996" r="1.75" transform="translate(500, 500)" fill="#006699"></circle><circle cx="-32.88924172750679" cy="11.97070501639841" r="1.8" transform="translate(500, 500)" fill="#0066CC"></circle><circle cx="-36.437886861451695" cy="6.424982573676437" r="1.85" transform="translate(500, 500)" fill="#0066FF"></circle><circle cx="-39" cy="4.776122516674678e-15" r="1.9" transform="translate(500, 500)" fill="#009900"></circle><circle cx="-40.37711787350053" cy="-7.119575284344131" r="1.95" transform="translate(500, 500)" fill="#009933"></circle><circle cx="-40.406782693794064" cy="-14.706866163003752" r="2" transform="translate(500, 500)" fill="#009966"></circle><circle cx="-38.97114317029975" cy="-22.499999999999986" r="2.05" transform="translate(500, 500)" fill="#009999"></circle><circle cx="-36.004088826591975" cy="-30.211017655267344" r="2.1" transform="translate(500, 500)" fill="#0099CC"></circle><circle cx="-31.496592874640434" cy="-37.53617771282992" r="2.15" transform="translate(500, 500)" fill="#0099FF"></circle><circle cx="-25.50000000000002" cy="-44.167295593006365" r="2.2" transform="translate(500, 500)" fill="#00CC00"></circle><circle cx="-18.127067596260478" cy="-49.80370890165314" r="2.25" transform="translate(500, 500)" fill="#00CC33"></circle><circle cx="-9.550649771681169" cy="-54.16442641567144" r="2.3" transform="translate(500, 500)" fill="#00CC66"></circle><circle cx="-1.047073013270987e-14" cy="-57" r="2.35" transform="translate(500, 500)" fill="#00CC99"></circle><circle cx="10.245242482348868" cy="-58.10365742772028" r="2.4" transform="translate(500, 500)" fill="#00CCCC"></circle><circle cx="20.863228742865758" cy="-57.32124986794042" r="2.45" transform="translate(500, 500)" fill="#00CCFF"></circle><circle cx="31.500000000000007" cy="-54.55960043841963" r="2.5" transform="translate(500, 500)" fill="#00FF00"></circle><circle cx="41.78119462962505" cy="-49.79288880273358" r="2.55" transform="translate(500, 500)" fill="#00FF33"></circle><circle cx="51.324977688971515" cy="-43.06676984899815" r="2.6" transform="translate(500, 500)" fill="#00FF66"></circle><circle cx="59.75575286112625" cy="-34.50000000000003" r="2.65" transform="translate(500, 500)" fill="#00FF99"></circle><circle cx="66.71817607579948" cy="-24.28343017612253" r="2.7" transform="translate(500, 500)" fill="#00FFCC"></circle><circle cx="71.89096596989118" cy="-12.676316969685919" r="2.75" transform="translate(500, 500)" fill="#00FFFF"></circle><circle cx="75" cy="-1.8369701987210297e-14" r="2.8" transform="translate(500, 500)" fill="#330000"></circle><circle cx="75.83019698194002" cy="13.370909680353604" r="2.85" transform="translate(500, 500)" fill="#330033"></circle><circle cx="74.23571704208679" cy="27.01959132272778" r="2.9" transform="translate(500, 500)" fill="#330066"></circle><circle cx="70.14805770653953" cy="40.5" r="2.95" transform="translate(500, 500)" fill="#330099"></circle><circle cx="63.58168877887518" cy="53.35137160398275" r="3" transform="translate(500, 500)" fill="#3300CC"></circle><circle cx="54.63694682335586" cy="65.11377766511312" r="3.05" transform="translate(500, 500)" fill="#3300FF"></circle><circle cx="43.50000000000005" cy="75.34421012924614" r="3.1" transform="translate(500, 500)" fill="#333300"></circle><circle cx="30.439792755984584" cy="83.63264324994582" r="3.15" transform="translate(500, 500)" fill="#333333"></circle><circle cx="15.80198416769067" cy="89.61750552411092" r="3.2" transform="translate(500, 500)" fill="#333366"></circle><circle cx="2.8473038080175966e-14" cy="93" r="3.25" transform="translate(500, 500)" fill="#333399"></circle><circle cx="-16.496576878358336" cy="93.55673653615978" r="3.3" transform="translate(500, 500)" fill="#3333CC"></circle><circle cx="-33.175953902589804" cy="91.15018421623314" r="3.35" transform="translate(500, 500)" fill="#3333FF"></circle><circle cx="-49.49999999999992" cy="85.73651497465947" r="3.4" transform="translate(500, 500)" fill="#336600"></circle><circle cx="-64.92154857834039" cy="77.37048875501685" r="3.45" transform="translate(500, 500)" fill="#336633"></circle><circle cx="-78.90257764125465" cy="66.20712379771366" r="3.5" transform="translate(500, 500)" fill="#336666"></circle><circle cx="-90.93266739736607" cy="52.49999999999998" r="3.55" transform="translate(500, 500)" fill="#336699"></circle><circle cx="-100.5471104240922" cy="36.596155335846554" r="3.6" transform="translate(500, 500)" fill="#3366CC"></circle><circle cx="-107.34404507833068" cy="18.927651365695425" r="3.65" transform="translate(500, 500)" fill="#3366FF"></circle><circle cx="-111" cy="4.078073841160686e-14" r="3.7" transform="translate(500, 500)" fill="#339900"></circle><circle cx="-111.28327609037952" cy="-19.622244076363064" r="3.75" transform="translate(500, 500)" fill="#339933"></circle><circle cx="-108.0646513903795" cy="-39.332316482451816" r="3.8" transform="translate(500, 500)" fill="#339966"></circle><circle cx="-101.32497224277938" cy="-58.4999999999999" r="3.85" transform="translate(500, 500)" fill="#339999"></circle><circle cx="-91.15928873115848" cy="-76.49172555269809" r="3.9" transform="translate(500, 500)" fill="#3399CC"></circle><circle cx="-77.77730077207138" cy="-92.69137761739623" r="3.95" transform="translate(500, 500)" fill="#3399FF"></circle><circle cx="-61.49999999999998" cy="-106.52112466548596" r="4" transform="translate(500, 500)" fill="#33CC00"></circle><circle cx="-42.752517915708594" cy="-117.46157759823855" r="4.05" transform="translate(500, 500)" fill="#33CC33"></circle><circle cx="-22.053318563700184" cy="-125.07058463255042" r="4.1" transform="translate(500, 500)" fill="#33CC66"></circle><circle cx="-5.5292802981502995e-14" cy="-129" r="4.15" transform="translate(500, 500)" fill="#33CC99"></circle><circle cx="22.747911274367794" cy="-129.00981564459926" r="4.2" transform="translate(500, 500)" fill="#33CCCC"></circle><circle cx="45.488679062313835" cy="-124.97911856452585" r="4.25" transform="translate(500, 500)" fill="#33CCFF"></circle><circle cx="67.49999999999989" cy="-116.91342951089929" r="4.3" transform="translate(500, 500)" fill="#33FF00"></circle><circle cx="88.06190252705575" cy="-104.94808870730009" r="4.35" transform="translate(500, 500)" fill="#33FF33"></circle><circle cx="106.48017759353782" cy="-89.34747774642912" r="4.4" transform="translate(500, 500)" fill="#33FF66"></circle><circle cx="122.10958193360585" cy="-70.49999999999999" r="4.45" transform="translate(500, 500)" fill="#33FF99"></circle><circle cx="134.3760447723849" cy="-48.90888049557064" r="4.5" transform="translate(500, 500)" fill="#33FFCC"></circle><circle cx="142.79712418677016" cy="-25.178985761704944" r="4.55" transform="translate(500, 500)" fill="#33FFFF"></circle><circle cx="147" cy="-7.200923178986437e-14" r="4.6" transform="translate(500, 500)" fill="#660000"></circle><circle cx="146.736355198819" cy="25.87357847237252" r="4.65" transform="translate(500, 500)" fill="#660033"></circle><circle cx="141.89358573867221" cy="51.64504164217585" r="4.7" transform="translate(500, 500)" fill="#660066"></circle><circle cx="132.5018867790192" cy="76.49999999999986" r="4.75" transform="translate(500, 500)" fill="#660099"></circle><circle cx="118.73688868344173" cy="99.63207950141344" r="4.8" transform="translate(500, 500)" fill="#6600CC"></circle><circle cx="100.91765472078686" cy="120.2689775696794" r="4.85" transform="translate(500, 500)" fill="#6600FF"></circle><circle cx="79.49999999999999" cy="137.69803920172575" r="4.9" transform="translate(500, 500)" fill="#663300"></circle><circle cx="55.06524307543269" cy="151.29051194653124" r="4.95" transform="translate(500, 500)" fill="#663333"></circle><circle cx="28.304652959709703" cy="160.52366374098992" r="5" transform="translate(500, 500)" fill="#663366"></circle><circle cx="9.093002483669097e-14" cy="165" r="5.05" transform="translate(500, 500)" fill="#663399"></circle><circle cx="-28.999245670377245" cy="164.46289475303877" r="5.1" transform="translate(500, 500)" fill="#6633CC"></circle><circle cx="-57.80140422203786" cy="158.80805291281857" r="5.15" transform="translate(500, 500)" fill="#6633FF"></circle><circle cx="-85.49999999999983" cy="148.09034404713913" r="5.2" transform="translate(500, 500)" fill="#666600"></circle><circle cx="-111.20225647577112" cy="132.52568865958335" r="5.25" transform="translate(500, 500)" fill="#666633"></circle><circle cx="-134.05777754582098" cy="112.4878316951446" r="5.3" transform="translate(500, 500)" fill="#666666"></circle><circle cx="-153.28649646984564" cy="88.5" r="5.35" transform="translate(500, 500)" fill="#666699"></circle><circle cx="-168.2049791206776" cy="61.22160565529474" r="5.4" transform="translate(500, 500)" fill="#6666CC"></circle><circle cx="-178.25020329520964" cy="31.430320157714466" r="5.45" transform="translate(500, 500)" fill="#6666FF"></circle><circle cx="-183" cy="1.1205518212198282e-13" r="5.5" transform="translate(500, 500)" fill="#669900"></circle><circle cx="-182.18943430725852" cy="-32.12491286838197" r="5.55" transform="translate(500, 500)" fill="#669933"></circle><circle cx="-175.72252008696495" cy="-63.95776680189987" r="5.6" transform="translate(500, 500)" fill="#669966"></circle><circle cx="-163.67880131525902" cy="-94.4999999999998" r="5.65" transform="translate(500, 500)" fill="#669999"></circle><circle cx="-146.31448863572496" cy="-122.7724334501288" r="5.7" transform="translate(500, 500)" fill="#6699CC"></circle><circle cx="-124.05800866950233" cy="-147.84657752196256" r="5.75" transform="translate(500, 500)" fill="#6699FF"></circle><circle cx="-97.5000000000003" cy="-168.87495373796534" r="5.8" transform="translate(500, 500)" fill="#66CC00"></circle><circle cx="-67.37796823515711" cy="-185.1194462948238" r="5.85" transform="translate(500, 500)" fill="#66CC33"></circle><circle cx="-34.55598735571958" cy="-195.97674284942934" r="5.9" transform="translate(500, 500)" fill="#66CC66"></circle><circle cx="-4.924324283651902e-13" cy="-201" r="5.95" transform="translate(500, 500)" fill="#66CC99"></circle><circle cx="35.25058006638633" cy="-199.91597386147834" r="6" transform="translate(500, 500)" fill="#66CCCC"></circle><circle cx="70.11412938176223" cy="-192.63698726111116" r="6.05" transform="translate(500, 500)" fill="#66CCFF"></circle><circle cx="103.50000000000009" cy="-179.26725858337875" r="6.1" transform="translate(500, 500)" fill="#66FF00"></circle><circle cx="134.34261042448676" cy="-160.1032886118664" r="6.15" transform="translate(500, 500)" fill="#66FF33"></circle><circle cx="161.6353774981044" cy="-135.62818564385978" r="6.2" transform="translate(500, 500)" fill="#66FF66"></circle><circle cx="184.4634110060854" cy="-106.50000000000003" r="6.25" transform="translate(500, 500)" fill="#66FF99"></circle><circle cx="202.0339134689703" cy="-73.53433081501885" r="6.3" transform="translate(500, 500)" fill="#66FFCC"></circle><circle cx="213.70328240364913" cy="-37.681654553723995" r="6.35" transform="translate(500, 500)" fill="#66FFFF"></circle><circle cx="219" cy="-1.609185894079622e-13" r="6.4" transform="translate(500, 500)" fill="#990000"></circle><circle cx="217.64251341569803" cy="38.3762472643914" r="6.45" transform="translate(500, 500)" fill="#990033"></circle><circle cx="209.55145443525765" cy="76.27049196162389" r="6.5" transform="translate(500, 500)" fill="#990066"></circle><circle cx="194.85571585149884" cy="112.49999999999974" r="6.55" transform="translate(500, 500)" fill="#990099"></circle><circle cx="173.89208858800825" cy="145.91278739884416" r="6.6" transform="translate(500, 500)" fill="#9900CC"></circle><circle cx="147.19836261821783" cy="175.4241774742457" r="6.65" transform="translate(500, 500)" fill="#9900FF"></circle><circle cx="115.50000000000038" cy="200.0518682742051" r="6.7" transform="translate(500, 500)" fill="#993300"></circle><circle cx="79.6906933948813" cy="218.94838064311648" r="6.75" transform="translate(500, 500)" fill="#993333"></circle><circle cx="40.807321751729184" cy="231.4298219578688" r="6.8" transform="translate(500, 500)" fill="#993366"></circle><circle cx="6.096534103465092e-13" cy="237" r="6.85" transform="translate(500, 500)" fill="#993399"></circle><circle cx="-41.501914462395696" cy="235.36905296991785" r="6.9" transform="translate(500, 500)" fill="#9933CC"></circle><circle cx="-82.42685454148629" cy="226.46592160940386" r="6.95" transform="translate(500, 500)" fill="#9933FF"></circle><circle cx="-121.50000000000009" cy="210.44417311961854" r="7" transform="translate(500, 500)" fill="#996600"></circle><circle cx="-157.48296437320218" cy="187.6808885641496" r="7.05" transform="translate(500, 500)" fill="#996633"></circle><circle cx="-189.21297745038757" cy="158.76853959257522" r="7.1" transform="translate(500, 500)" fill="#996666"></circle><circle cx="-215.64032554232517" cy="124.50000000000006" r="7.15" transform="translate(500, 500)" fill="#996699"></circle><circle cx="-235.86284781726295" cy="85.84705597474296" r="7.2" transform="translate(500, 500)" fill="#9966CC"></circle><circle cx="-249.1563615120886" cy="43.93298894973354" r="7.25" transform="translate(500, 500)" fill="#9966FF"></circle><circle cx="-255" cy="2.1859945364780254e-13" r="7.3" transform="translate(500, 500)" fill="#999900"></circle><circle cx="-253.09559252413752" cy="-44.62758166040083" r="7.35" transform="translate(500, 500)" fill="#999933"></circle><circle cx="-243.38038878355036" cy="-88.5832171213479" r="7.4" transform="translate(500, 500)" fill="#999966"></circle><circle cx="-226.03263038773866" cy="-130.49999999999966" r="7.45" transform="translate(500, 500)" fill="#999999"></circle><circle cx="-201.46968854029151" cy="-169.0531413475595" r="7.5" transform="translate(500, 500)" fill="#9999CC"></circle><circle cx="-170.3387165669333" cy="-203.00177742652886" r="7.55" transform="translate(500, 500)" fill="#9999FF"></circle><circle cx="-133.50000000000048" cy="-231.22878281044484" r="7.6" transform="translate(500, 500)" fill="#99CC00"></circle><circle cx="-92.00341855460546" cy="-252.77731499140916" r="7.65" transform="translate(500, 500)" fill="#99CC33"></circle><circle cx="-47.05865614773879" cy="-266.88290106630825" r="7.7" transform="translate(500, 500)" fill="#99CC66"></circle><circle cx="-7.356918492816889e-13" cy="-273" r="7.75" transform="translate(500, 500)" fill="#99CC99"></circle><circle cx="47.753248858405065" cy="-270.82213207835736" r="7.8" transform="translate(500, 500)" fill="#99CCCC"></circle><circle cx="94.73957970120944" cy="-260.29485595769694" r="7.85" transform="translate(500, 500)" fill="#99CCFF"></circle><circle cx="139.50000000000006" cy="-241.62108765585833" r="7.9" transform="translate(500, 500)" fill="#99FF00"></circle><circle cx="180.62331832191757" cy="-215.25848851643283" r="7.95" transform="translate(500, 500)" fill="#99FF33"></circle><circle cx="216.79057740267075" cy="-181.90889354129067" r="8" transform="translate(500, 500)" fill="#99FF66"></circle><circle cx="246.81724007856496" cy="-142.50000000000009" r="8.05" transform="translate(500, 500)" fill="#99FF99"></circle><circle cx="269.69178216555565" cy="-98.15978113446708" r="8.1" transform="translate(500, 500)" fill="#99FFCC"></circle><circle cx="284.60944062052806" cy="-50.18432334574309" r="8.15" transform="translate(500, 500)" fill="#99FFFF"></circle><circle cx="291" cy="-2.8509777484150383e-13" r="8.2" transform="translate(500, 500)" fill="#CC0000"></circle><circle cx="288.548671632577" cy="50.878916056410254" r="8.25" transform="translate(500, 500)" fill="#CC0033"></circle><circle cx="277.2093231318431" cy="100.8959422810719" r="8.3" transform="translate(500, 500)" fill="#CC0066"></circle><circle cx="257.2095449239785" cy="148.49999999999957" r="8.35" transform="translate(500, 500)" fill="#CC0099"></circle><circle cx="229.04728849257478" cy="192.19349529627485" r="8.4" transform="translate(500, 500)" fill="#CC00CC"></circle><circle cx="193.47907051564883" cy="230.579377378812" r="8.45" transform="translate(500, 500)" fill="#CC00FF"></circle><circle cx="151.50000000000057" cy="262.4056973466846" r="8.5" transform="translate(500, 500)" fill="#CC3300"></circle><circle cx="104.31614371432966" cy="286.6062493397018" r="8.55" transform="translate(500, 500)" fill="#CC3333"></circle><circle cx="53.309990543748405" cy="302.3359801747477" r="8.6" transform="translate(500, 500)" fill="#CC3366"></circle><circle cx="8.705477451707297e-13" cy="309" r="8.65" transform="translate(500, 500)" fill="#CC3399"></circle><circle cx="-54.004583254414406" cy="306.27521118679687" r="8.7" transform="translate(500, 500)" fill="#CC33CC"></circle><circle cx="-107.05230486093338" cy="294.1237903059897" r="8.75" transform="translate(500, 500)" fill="#CC33FF"></circle><circle cx="-157.50000000000003" cy="272.7980021920982" r="8.8" transform="translate(500, 500)" fill="#CC6600"></circle><circle cx="-203.76367227063295" cy="242.83608846871607" r="8.85" transform="translate(500, 500)" fill="#CC6633"></circle><circle cx="-244.36817735495396" cy="205.04924749000614" r="8.9" transform="translate(500, 500)" fill="#CC6666"></circle><circle cx="-277.9941546148047" cy="160.50000000000014" r="8.95" transform="translate(500, 500)" fill="#CC6699"></circle><circle cx="-303.52071651384836" cy="110.4725062941912" r="9" transform="translate(500, 500)" fill="#CC66CC"></circle><circle cx="-320.0625197289676" cy="56.43565774175266" r="9.05" transform="translate(500, 500)" fill="#CC66FF"></circle><circle cx="-327" cy="3.6041355298906607e-13" r="9.1" transform="translate(500, 500)" fill="#CC9900"></circle><circle cx="-324.0017507410165" cy="-57.13025045241966" r="9.15" transform="translate(500, 500)" fill="#CC9933"></circle><circle cx="-311.0382574801358" cy="-113.20866744079588" r="9.2" transform="translate(500, 500)" fill="#CC9966"></circle><circle cx="-288.38645946021836" cy="-166.4999999999995" r="9.25" transform="translate(500, 500)" fill="#CC9999"></circle><circle cx="-256.624888444858" cy="-215.33384924499018" r="9.3" transform="translate(500, 500)" fill="#CC99CC"></circle><circle cx="-216.6194244643643" cy="-258.15697733109516" r="9.35" transform="translate(500, 500)" fill="#CC99FF"></circle><circle cx="-169.50000000000068" cy="-293.5826118829243" r="9.4" transform="translate(500, 500)" fill="#CCCC00"></circle><circle cx="-116.62886887405385" cy="-320.4351836879945" r="9.45" transform="translate(500, 500)" fill="#CCCC33"></circle><circle cx="-59.56132493975804" cy="-337.7890592831872" r="9.5" transform="translate(500, 500)" fill="#CCCC66"></circle><circle cx="-1.0142210980136315e-12" cy="-345" r="9.55" transform="translate(500, 500)" fill="#CCCC99"></circle><circle cx="60.255917650423754" cy="-341.7282902952364" r="9.6" transform="translate(500, 500)" fill="#CCCCCC"></circle><circle cx="119.3650300206573" cy="-327.9527246542824" r="9.65" transform="translate(500, 500)" fill="#CCCCFF"></circle><circle cx="175.5" cy="-303.974916728338" r="9.7" transform="translate(500, 500)" fill="#CCFF00"></circle><circle cx="226.9040262193483" cy="-270.4136884209993" r="9.75" transform="translate(500, 500)" fill="#CCFF33"></circle><circle cx="271.9457773072371" cy="-228.18960143872158" r="9.8" transform="translate(500, 500)" fill="#CCFF66"></circle><circle cx="309.1710691510445" cy="-178.5000000000002" r="9.85" transform="translate(500, 500)" fill="#CCFF99"></circle><circle cx="337.349650862141" cy="-122.78523145391534" r="9.9" transform="translate(500, 500)" fill="#CCFFCC"></circle><circle cx="355.5155988374071" cy="-62.68699213776222" r="9.95" transform="translate(500, 500)" fill="#CCFFFF"></circle><circle cx="363" cy="-4.4454678809048924e-13" r="10" transform="translate(500, 500)" fill="#FF0000"></circle><circle cx="359.4548298494561" cy="63.381584848429064" r="10.05" transform="translate(500, 500)" fill="#FF0033"></circle><circle cx="344.8671918284286" cy="125.52139260051987" r="10.1" transform="translate(500, 500)" fill="#FF0066"></circle><circle cx="319.5633739964582" cy="184.4999999999994" r="10.15" transform="translate(500, 500)" fill="#FF0099"></circle><circle cx="284.20248839714134" cy="238.47420319370553" r="10.2" transform="translate(500, 500)" fill="#FF00CC"></circle><circle cx="239.7597784130788" cy="285.7345772833791" r="10.25" transform="translate(500, 500)" fill="#FF00FF"></circle><circle cx="187.5000000000008" cy="324.759526419164" r="10.3" transform="translate(500, 500)" fill="#FF3300"></circle><circle cx="128.9415940337768" cy="354.2641180362876" r="10.35" transform="translate(500, 500)" fill="#FF3333"></circle><circle cx="65.81265933576766" cy="373.24213839162667" r="10.4" transform="translate(500, 500)" fill="#FF3366"></circle><circle cx="-1.868720038125968e-13" cy="381" r="10.45" transform="translate(500, 500)" fill="#FF3399"></circle><circle cx="-66.5072520464331" cy="377.1813694036759" r="10.5" transform="translate(500, 500)" fill="#FF33CC"></circle><circle cx="-131.6777551803825" cy="361.7816590025747" r="10.55" transform="translate(500, 500)" fill="#FF33FF"></circle><circle cx="-193.49999999999878" cy="335.15183126457845" r="10.6" transform="translate(500, 500)" fill="#FF6600"></circle><circle cx="-250.0443801680637" cy="297.99128837328254" r="10.65" transform="translate(500, 500)" fill="#FF6633"></circle><circle cx="-299.5233772595194" cy="251.3299553874381" r="10.7" transform="translate(500, 500)" fill="#FF6666"></circle><circle cx="-340.3479836872842" cy="196.50000000000026" r="10.75" transform="translate(500, 500)" fill="#FF6699"></circle><circle cx="-371.1785852104332" cy="135.0979566136408" r="10.8" transform="translate(500, 500)" fill="#FF66CC"></circle><circle cx="-390.96867794584654" cy="68.9383265337718" r="10.85" transform="translate(500, 500)" fill="#FF66FF"></circle><circle cx="-399" cy="1.955030237987173e-12" r="10.9" transform="translate(500, 500)" fill="#FF9900"></circle><circle cx="-394.90790895789553" cy="-69.63291924443847" r="10.95" transform="translate(500, 500)" fill="#FF9933"></circle><circle cx="-378.6961261767218" cy="-137.8341177602425" r="11" transform="translate(500, 500)" fill="#FF9966"></circle><circle cx="-350.74028853269806" cy="-202.49999999999932" r="11.05" transform="translate(500, 500)" fill="#FF9999"></circle><circle cx="-311.7800883494237" cy="-261.6145571424219" r="11.1" transform="translate(500, 500)" fill="#FF99CC"></circle><circle cx="-262.90013236179533" cy="-313.3121772356614" r="11.15" transform="translate(500, 500)" fill="#FF99FF"></circle><circle cx="-205.49999999999966" cy="-355.93644095540446" r="11.2" transform="translate(500, 500)" fill="#FFCC00"></circle><circle cx="-141.25431919350225" cy="-388.0930523845798" r="11.25" transform="translate(500, 500)" fill="#FFCC33"></circle><circle cx="-72.06399373177585" cy="-408.69521750006635" r="11.3" transform="translate(500, 500)" fill="#FFCC66"></circle><circle cx="-1.3280201745610176e-12" cy="-417" r="11.35" transform="translate(500, 500)" fill="#FFCC99"></circle><circle cx="72.75858644244389" cy="-412.63444851211517" r="11.4" transform="translate(500, 500)" fill="#FFCCCC"></circle><circle cx="143.99048034010514" cy="-395.610593350868" r="11.45" transform="translate(500, 500)" fill="#FFCCFF"></circle><circle cx="211.49999999999991" cy="-366.3287458008176" r="11.5" transform="translate(500, 500)" fill="#FFFF00"></circle><circle cx="273.1847341167779" cy="-325.5688883255667" r="11.55" transform="translate(500, 500)" fill="#FFFF33"></circle><circle cx="327.1009772118034" cy="-274.4703093361525" r="11.6" transform="translate(500, 500)" fill="#FFFF66"></circle><circle cx="371.5248982235233" cy="-214.50000000000162" r="11.65" transform="translate(500, 500)" fill="#FFFF99"></circle><circle cx="405.00751955872636" cy="-147.41068177336365" r="11.7" transform="translate(500, 500)" fill="#FFFFCC"></circle><circle cx="426.42175705428576" cy="-75.1896609297829" r="11.75" transform="translate(500, 500)" fill="#FFFFFF"></circle></g></svg>