<svg xmlns="http://www.w3.org/2000/svg" xmlns:bx="https://boxy-svg.com" viewBox="0 0 1000 500"><path d="M0 0h1000v500H0z" style="fill:#181818"/><path bx:shape="triangle 118.781 163.823 145.15 129.66 0.5 0 1@365eccd2" d="m191.356 163.823 72.575 129.66h-145.15l72.575-129.66Z" style="fill:none;stroke:#3cdb99;stroke-linejoin:round;stroke-width:10px" transform="matrix(1 0 -.188 1 68.074 21.5)"/><path bx:shape="n-gon 814.801 249.999 75.591 76.039 6 0 1@546f9630" d="m814.801 173.96 65.464 38.02v76.038l-65.464 38.02-65.464-38.019v-76.04Z" style="stroke-linejoin:round;stroke:#f76363;fill:none;stroke-width:10px" transform="rotate(97.963 816.153 220.59) skewX(7.983)"/><path bx:shape="cross 666.169 163.822 129.66 129.66 42.713 42.713 0.5 1@3cb3c4b8" d="M709.643 163.822h42.713v43.474h43.473v42.713h-43.473v43.473h-42.713v-43.473h-43.474v-42.713h43.474Z" style="fill:none;stroke:#76aae2;stroke-linejoin:round;stroke-width:10px" transform="matrix(1 0 -.174 1 -97.442 21.558)"/><path d="M310.46 163.823h129.66v129.66H310.46z" style="stroke:#f865f1;fill:none;stroke-width:10px;stroke-linejoin:round" transform="matrix(1 0 -.182 1 71.47 21.498)"/></svg>