<svg xmlns="http://www.w3.org/2000/svg" width="652" height="652" viewBox="0 0 1000 1000"><rect x="0" y="0" width="1000" height="1000" fill="#181818"></rect><circle cx="667.4792455816631" cy="654.5182911856173" r="7.065673671964618"></circle><circle cx="41.21327471978242" cy="916.7265056945755" r="6.9865095157844985"></circle><circle cx="446.71144464057153" cy="859.3050259674362" r="6.675698078877083"></circle><circle cx="371.97079029830024" cy="122.65597338825285" r="4.885567265421498"></circle><circle cx="706.2309706380104" cy="328.3252186432275" r="9.247755213295424"></circle><circle cx="109.07168941603507" cy="383.33816236313646" r="5.742241021527069"></circle><circle cx="335.0152601533407" cy="773.4564641162449" r="3.7431400771689605"></circle><circle cx="544.759155925501" cy="686.3697072371333" r="5.700092396231743"></circle><circle cx="622.5726257036246" cy="991.2242773302655" r="7.304508493085604"></circle><circle cx="740.921133768999" cy="90.1122213846941" r="3.628682719673531"></circle><circle cx="184.45675956220887" cy="199.3459868055074" r="5.572626299749646"></circle><circle cx="103.39148875034998" cy="76.2196238582169" r="2.405915453252759"></circle><circle cx="956.6502275878078" cy="244.99522784571815" r="5.598386949473004"></circle><circle cx="791.9670896561379" cy="80.14111079353926" r="3.2583219475253595"></circle><circle cx="281.48354437119804" cy="491.0379003403866" r="6.8920767471371445"></circle><circle cx="428.2211920725103" cy="237.80822330393448" r="4.630636204057162"></circle><circle cx="623.6139256516803" cy="26.442288487958486" r="2.3137800238191026"></circle><circle cx="18.092292935641517" cy="674.1566124446963" r="2.8111161557943007"></circle><circle cx="424.49986363846136" cy="274.37902664993464" r="3.2465507691694855"></circle><circle cx="573.8710068151189" cy="392.7751525832888" r="9.79964869349758"></circle><circle cx="919.0024684686351" cy="648.6737388219916" r="7.154452914549431"></circle><circle cx="78.45479472477379" cy="614.2202678548449" r="8.936912261063775"></circle><circle cx="536.8283938495706" cy="471.5560749620196" r="1.4272823249484272"></circle><circle cx="521.2371284129093" cy="528.348094800112" r="1.854132405281424"></circle><circle cx="682.7982895808431" cy="791.5220838643772" r="6.745701312622142"></circle><circle cx="289.2229723609885" cy="306.1264339964263" r="6.833939395298302"></circle><circle cx="440.3223521507922" cy="172.2531287544571" r="4.433461683494911"></circle><circle cx="302.0850424148256" cy="51.9670404926722" r="3.163826515067812"></circle><circle cx="824.0743736817468" cy="133.9226724571685" r="7.833557461301706"></circle><circle cx="936.2186265730496" cy="150.05946701818607" r="6.443341841768275"></circle><circle cx="879.2385299073006" cy="261.874940615511" r="8.555784357983008"></circle><circle cx="963.6693463307082" cy="709.8680240478292" r="6.390117725922234"></circle><circle cx="635.6393761545846" cy="222.58687162600265" r="2.1812445645839436"></circle><circle cx="14.065278219731914" cy="555.2476254031482" r="5.178181032917801"></circle><circle cx="859.683053990782" cy="394.16978421786155" r="2.8763045048011397"></circle><circle cx="895.2363378348822" cy="97.02513024635007" r="9.417492944420651"></circle><circle cx="255.2035706713498" cy="947.9450418576006" r="6.814139818477074"></circle><circle cx="548.7297604348023" cy="653.6842055193557" r="9.530797797171683"></circle><circle cx="698.513377052973" cy="997.7330859361832" r="6.317800009051473"></circle><circle cx="693.4565127268064" cy="13.169544564014757" r="2.1092475764293823"></circle><circle cx="604.7315029972995" cy="928.5890352814761" r="8.88751152929212"></circle><circle cx="357.0533201651045" cy="221.75485080597235" r="4.786051784008744"></circle><circle cx="271.1444004022254" cy="710.2309763568715" r="5.722703751595568"></circle><circle cx="183.89870067763582" cy="469.20738432525025" r="6.962739461686011"></circle><circle cx="689.6326993828725" cy="213.7257082616042" r="9.440546411794788"></circle><circle cx="469.84788724333714" cy="393.6058192389316" r="4.43037204715813"></circle><circle cx="834.1330070285422" cy="713.0011332300041" r="8.886111333182635"></circle><circle cx="828.4456146702674" cy="720.4237636910948" r="6.872097749026866"></circle><circle cx="403.14238908223297" cy="904.8236792768815" r="3.2819523533982355"></circle><circle cx="293.25019397958573" cy="276.1807801600125" r="4.658412286600733"></circle><circle cx="772.9800843488075" cy="585.0218796078058" r="6.804420426067852"></circle><circle cx="234.64382289972542" cy="238.86366383071467" r="1.2719803130692358"></circle><circle cx="988.5153507746161" cy="258.71547708908025" r="3.780328445686927"></circle><circle cx="509.76914897668047" cy="63.851459791235186" r="6.944272172721266"></circle><circle cx="988.8469299348925" cy="215.28332083318057" r="6.096436761908813"></circle><circle cx="127.38842119691651" cy="461.5184992104704" r="5.786586383123963"></circle><circle cx="534.6049623829712" cy="185.91978372834683" r="3.9821925834166674"></circle><circle cx="71.78418765322792" cy="310.38177468660757" r="8.588909730823257"></circle><circle cx="274.3573033183455" cy="183.93346619004936" r="3.452666828513699"></circle><circle cx="296.81612605341525" cy="116.97805849987608" r="6.726065588821902"></circle><circle cx="662.2020111751989" cy="176.08882780371027" r="3.769619836012731"></circle><circle cx="980.4650066291249" cy="228.62071485492373" r="2.0929302996539194"></circle><circle cx="67.5372131419607" cy="891.627420725521" r="8.318664944906654"></circle><circle cx="80.19758803604194" cy="516.927034124868" r="6.594501832422921"></circle><circle cx="937.2978071786899" cy="194.9518030654669" r="3.876745945811039"></circle><circle cx="568.9859323077857" cy="418.2898604480534" r="5.121780162470615"></circle><circle cx="238.63066883860284" cy="49.10603385559242" r="9.499312849012197"></circle><circle cx="114.72247543520342" cy="19.20138693549123" r="8.725551345576005"></circle><circle cx="568.8425669397596" cy="280.5702751270771" r="7.931639275788328"></circle><circle cx="490.52894088311325" cy="320.3351398565408" r="8.281035410616381"></circle><circle cx="630.0525946152562" cy="392.76934175994893" r="8.171113312323902"></circle><circle cx="188.92319461871466" cy="499.76414644294164" r="4.209268538301375"></circle><circle cx="62.14191546541215" cy="222.20890794985547" r="2.0128302024337743"></circle><circle cx="134.7447663195749" cy="83.12966486566143" r="6.740951445007512"></circle><circle cx="325.83295059563676" cy="152.79863365898393" r="2.1873134389786966"></circle><circle cx="794.8910955564654" cy="146.43750328948892" r="1.3327375814330988"></circle><circle cx="987.4411601392832" cy="872.0392186725608" r="9.595025965940778"></circle><circle cx="165.18163730445946" cy="161.1947973545491" r="4.085963366136532"></circle><circle cx="92.03927640304777" cy="4.3888396306701605" r="5.658827082593831"></circle><circle cx="635.345834884781" cy="507.494408538556" r="9.76961525353895"></circle><circle cx="192.63819315850193" cy="328.36849809483226" r="6.505942080093461"></circle><circle cx="890.0706969602008" cy="469.1832099833575" r="8.454486823760654"></circle><circle cx="60.01837704484036" cy="283.2798454071317" r="3.2658132636103976"></circle><circle cx="832.6046307697011" cy="841.7004655044711" r="8.464269939093297"></circle><circle cx="49.51883085195563" cy="213.61183297139564" r="7.8720866168513695"></circle><circle cx="64.18320480810391" cy="929.5088173861338" r="7.300115557449275"></circle><circle cx="994.1564352509902" cy="607.4846788273516" r="6.099670002426227"></circle><circle cx="193.17021778473497" cy="37.19516562885139" r="1.86135079160121"></circle><circle cx="449.9026994043285" cy="21.92454700722779" r="1.654442253339296"></circle><circle cx="845.9570182347991" cy="988.0911367923491" r="9.504212797500292"></circle><circle cx="206.02217021879454" cy="116.92390996686287" r="5.438498385101822"></circle><circle cx="963.3602598631226" cy="844.669022078175" r="2.5620670435867092"></circle><circle cx="745.1295007816587" cy="942.2703253049402" r="4.124108411517508"></circle><circle cx="312.5359983673659" cy="505.8829231980204" r="8.74823778734136"></circle><circle cx="335.17766379261957" cy="233.98395734851118" r="4.01083029431151"></circle><circle cx="474.2416251205841" cy="533.1443123284843" r="9.303650382212009"></circle><circle cx="183.32258362258335" cy="935.1414655000352" r="1.277927038181186"></circle><circle cx="40.16600679192317" cy="166.1801520482613" r="1.6853046201329214"></circle><circle cx="803.8176243173127" cy="168.1619834635557" r="3.8062146836182222"></circle><circle cx="587.0217022487418" cy="637.5978564261022" r="1.1100276603202215"></circle><circle cx="770.8856338872205" cy="567.8084302389195" r="7.257595668504363"></circle><circle cx="218.23907991912384" cy="948.1009787815684" r="5.1166572812784805"></circle><circle cx="96.03054785678088" cy="575.3450387930554" r="8.518803036816715"></circle><circle cx="859.7763304385426" cy="659.1039455943253" r="7.8509011764506225"></circle><circle cx="109.16703268571682" cy="10.35497874921032" r="4.94906076091863"></circle><circle cx="332.6491303068215" cy="689.6870834518089" r="6.907376853361406"></circle><circle cx="573.9082742598696" cy="249.4270955304305" r="7.7185459682728075"></circle><circle cx="916.8644447188518" cy="682.134029945094" r="3.500431431126863"></circle><circle cx="25.644413746866768" cy="925.9769527775763" r="5.208151637411834"></circle><circle cx="298.3712958453177" cy="780.5298548192678" r="2.3713680591013135"></circle><circle cx="299.8119201824607" cy="924.3013297067433" r="3.4617710230579046"></circle><circle cx="145.15168205604212" cy="409.10876336752256" r="6.55282799314344"></circle><circle cx="134.21473981486963" cy="180.8523619067226" r="7.52961544835228"></circle><circle cx="160.67036932253754" cy="93.72657881746238" r="2.811809714909508"></circle><circle cx="873.0531912137765" cy="692.5393777263436" r="1.9061000567978692"></circle><circle cx="717.2527457913856" cy="146.107738482689" r="3.9538575406133725"></circle><circle cx="307.4583112459823" cy="851.9719544167061" r="3.2535049293272613"></circle><circle cx="927.161510730754" cy="338.27948377231223" r="2.6087348787299316"></circle><circle cx="662.0536829130746" cy="283.6237904375123" r="9.695597266879023"></circle><circle cx="82.55346628470205" cy="366.87430721640067" r="8.561526610862035"></circle><circle cx="863.7071065123765" cy="736.4513531913827" r="4.975803086850938"></circle><circle cx="146.77630739923785" cy="380.5763972497247" r="7.413203540850219"></circle><circle cx="408.44377853749836" cy="511.3300513524541" r="5.651150449794175"></circle><circle cx="407.3721686794143" cy="540.9216165945652" r="8.938922421504675"></circle><circle cx="393.63706830406795" cy="921.4741508219953" r="1.588239146621453"></circle><circle cx="223.3661126523414" cy="436.8464081796257" r="6.5062122482500495"></circle><circle cx="294.8994302220733" cy="980.1625223081014" r="2.5366682313133717"></circle><circle cx="286.0632652397823" cy="904.6679162833892" r="3.998302265633767"></circle><circle cx="259.28782410278404" cy="61.54419151608348" r="3.8299645245256304"></circle><circle cx="633.5213173009338" cy="152.05083263193876" r="7.5059213844048305"></circle><circle cx="484.48585155243353" cy="365.79997496411966" r="8.87353979845669"></circle><circle cx="95.08235474525063" cy="243.21758462234945" r="6.4354780470180835"></circle><circle cx="959.1360470837058" cy="776.3511732569357" r="9.993857527165103"></circle><circle cx="283.0701401014908" cy="675.1544603370869" r="5.775615632156826"></circle><circle cx="258.56583248491563" cy="352.8921155682936" r="9.982850927424565"></circle><circle cx="15.587645659049132" cy="263.96176215362567" r="4.94752093469468"></circle><circle cx="783.1423262361816" cy="30.124634276210926" r="9.564736738327394"></circle><circle cx="293.2985719478034" cy="327.9938602284211" r="8.050179758931652"></circle><circle cx="530.5860176058683" cy="24.912272225567023" r="4.8254704887690485"></circle><circle cx="124.18597446603653" cy="714.4233910345661" r="9.235712333955547"></circle><circle cx="288.8834575764554" cy="942.394056804984" r="4.665687959846817"></circle><circle cx="55.44168837721975" cy="297.54056519318704" r="7.035222317677304"></circle><circle cx="50.502409891931556" cy="321.3095613893435" r="6.679020758868322"></circle><circle cx="640.9784964623202" cy="461.734348752183" r="5.182010864633542"></circle><circle cx="749.778121333667" cy="824.5557668042143" r="2.602063334159366"></circle><circle cx="717.4839122066132" cy="438.75550219458813" r="5.654684350075194"></circle><circle cx="225.93853524318018" cy="796.649034251609" r="9.405838254475638"></circle><circle cx="800.6542809889459" cy="720.3586825774202" r="1.21707058337942"></circle><circle cx="812.996081260452" cy="162.83571703360832" r="2.9491031500434413"></circle><circle cx="691.673759770179" cy="782.3190708490364" r="4.108219047642242"></circle><circle cx="759.944119790297" cy="677.5466462442081" r="9.493479439021534"></circle><circle cx="520.2108443640203" cy="625.8219278221258" r="6.572459530248452"></circle><circle cx="292.5309484560705" cy="148.09810442156635" r="3.640019091152162"></circle><circle cx="889.7087039405125" cy="485.90360057916837" r="7.512045306858445"></circle><circle cx="298.93380862249643" cy="152.4024991050097" r="8.836415574162462"></circle><circle cx="188.0119786458294" cy="985.6842842768691" r="6.339894440181645"></circle><circle cx="820.8583265474239" cy="24.25268476764275" r="8.967030038504419"></circle><circle cx="107.61070212064871" cy="414.10882168757877" r="9.285256316544098"></circle><circle cx="733.2340749509749" cy="686.6582631312397" r="4.284386702638708"></circle><circle cx="953.7909061457706" cy="276.4133138204687" r="7.264992240703963"></circle><circle cx="190.03996454058836" cy="399.15393513467023" r="9.119133258357978"></circle><circle cx="138.8717458213742" cy="879.1161945282571" r="6.862174215838284"></circle><circle cx="33.65174643030788" cy="431.2323035101198" r="2.9693479942466805"></circle><circle cx="527.1295088181889" cy="530.1869182433463" r="8.536056585410469"></circle><circle cx="740.0896458841313" cy="446.4135288244362" r="9.032165827922086"></circle><circle cx="353.51643557098697" cy="934.3935632137601" r="9.79030737916508"></circle><circle cx="409.9780906856436" cy="652.1119121712602" r="5.294235626781012"></circle><circle cx="526.9235792538733" cy="469.4237135945838" r="7.306994882933275"></circle><circle cx="901.1141275496631" cy="253.99864688992713" r="5.148230242109282"></circle><circle cx="519.3287953931256" cy="261.0345724380565" r="9.277863692476643"></circle><circle cx="989.4235529576567" cy="191.58922270139357" r="9.946173152159954"></circle><circle cx="606.5616999770893" cy="924.0440771422873" r="4.32754331311733"></circle><circle cx="71.94717240634674" cy="454.3639685077423" r="4.913175622515618"></circle><circle cx="552.3589358067145" cy="997.9534285668321" r="8.206125463429473"></circle><circle cx="162.14467306200575" cy="209.80677791272018" r="5.972657335678432"></circle><circle cx="478.39996346029955" cy="570.3613036510826" r="9.748472164263823"></circle><circle cx="57.653592944997726" cy="833.8400290467521" r="6.391880911896798"></circle><circle cx="595.4918658152433" cy="256.2170330114462" r="5.001115192415493"></circle><circle cx="598.76068358462" cy="173.0886422022302" r="7.95699083434822"></circle><circle cx="256.62060459828837" cy="367.2038141302367" r="5.947827597811214"></circle><circle cx="397.61086900455564" cy="538.9563294817646" r="4.523820255131955"></circle><circle cx="822.5246962723198" cy="52.821723363574826" r="3.1870205300557704"></circle><circle cx="739.9604985817551" cy="768.993291784851" r="6.7084412255022485"></circle><circle cx="388.9457011007831" cy="284.64252178740645" r="6.2042126327490354"></circle><circle cx="74.25139092802424" cy="866.8325370767307" r="1.3158491806122532"></circle><circle cx="269.65779816132283" cy="959.8217868578813" r="2.9965865370291604"></circle><circle cx="586.5694709743705" cy="622.0245593550442" r="3.989757923911645"></circle><circle cx="631.0945058809025" cy="134.9428696818198" r="3.4743236231519834"></circle><circle cx="939.8409819473088" cy="720.3204699883796" r="9.561988543320215"></circle><circle cx="215.44509976932846" cy="22.7918333709618" r="6.7629723670288096"></circle><circle cx="712.8377036530912" cy="787.0664433230725" r="1.996553718175947"></circle><circle cx="768.4316716951953" cy="490.1929672678016" r="2.852224637311331"></circle><circle cx="292.56943051567316" cy="760.4666635877933" r="4.388616938852408"></circle><circle cx="906.9055667577093" cy="607.8821513069632" r="7.437471975542612"></circle><circle cx="560.6470867143152" cy="382.56089084679036" r="9.141693157133965"></circle><circle cx="730.9378671479851" cy="279.496920770812" r="4.1365330008684404"></circle><circle cx="923.2902465849251" cy="99.99104447058093" r="7.0674028563492195"></circle><circle cx="729.7829463480905" cy="924.0784621035255" r="7.953353904143485"></circle><circle cx="311.91842560899727" cy="369.4565093716402" r="5.926406447242457"></circle><circle cx="339.7439142232832" cy="283.4690298341969" r="3.6488909715378854"></circle><circle cx="917.2093761298304" cy="914.404665819611" r="4.878902779408065"></circle><circle cx="243.38778576527176" cy="97.974811242574" r="7.602810681269524"></circle><circle cx="203.08274832809838" cy="271.7625860813626" r="8.365142807167823"></circle><circle cx="861.2281422035011" cy="605.2768938048719" r="5.218679396958169"></circle><circle cx="392.37124169829053" cy="600.4518914163818" r="2.0333047982658954"></circle><circle cx="278.3981280338652" cy="617.8260762401833" r="2.524448456099046"></circle><circle cx="593.782922935322" cy="183.54125210736805" r="2.3956397900734223"></circle><circle cx="469.2956737380052" cy="92.75201344241069" r="4.6716888283063955"></circle><circle cx="787.473167454863" cy="521.3568380864892" r="8.750502119421162"></circle><circle cx="342.31615747728307" cy="883.6368815412077" r="7.020722518449276"></circle><circle cx="566.9250303586592" cy="266.42435711267166" r="3.0531150601177917"></circle><circle cx="801.0092616841531" cy="147.3324088716097" r="7.520551308875296"></circle><circle cx="766.310971641573" cy="630.0314497716726" r="5.029848556000584"></circle><circle cx="122.95178061668909" cy="186.6251976410589" r="9.301579446311564"></circle><circle cx="966.4889818802276" cy="559.3276715254048" r="6.979134010419828"></circle><circle cx="587.709510390733" cy="5.545286952700623" r="9.277197763289974"></circle><circle cx="517.0369661775667" cy="759.3638511782699" r="2.9111902655945308"></circle><circle cx="778.2861231913769" cy="878.2317720809525" r="6.585639894727981"></circle><circle cx="882.4455290257682" cy="690.4631628506081" r="1.2801978652344288"></circle><circle cx="241.93567542036277" cy="559.2124114041312" r="3.9651497728504697"></circle><circle cx="549.4770220647043" cy="404.86094325309983" r="7.349336309460288"></circle><circle cx="502.3438127963176" cy="655.4494592282729" r="4.021856550058856"></circle><circle cx="660.4414410780668" cy="993.3646929777356" r="9.649978836984982"></circle><circle cx="162.70031122372396" cy="86.78684085729516" r="3.166689524287043"></circle><circle cx="375.77120011778754" cy="875.8662630193272" r="8.984754262373965"></circle><circle cx="606.5074915020654" cy="107.33406391435962" r="5.2508291898262405"></circle><circle cx="989.8880268353156" cy="780.9650015220391" r="6.347941364828811"></circle><circle cx="352.4152067331703" cy="623.2140500286714" r="9.19567222227764"></circle><circle cx="611.8745702370934" cy="592.2425846253012" r="7.177811477689743"></circle><circle cx="932.6175259854998" cy="674.421182774578" r="7.610910289856243"></circle><circle cx="649.098719715178" cy="268.2273828158448" r="3.4643091901131413"></circle><circle cx="447.67587639377626" cy="707.3223002105844" r="9.73790230932724"></circle><circle cx="285.07685912074624" cy="401.3409422762346" r="7.417299434186041"></circle><circle cx="479.49739311140127" cy="443.2497905540425" r="5.094773470335905"></circle><circle cx="240.80326810622955" cy="955.971463104633" r="3.324119089989247"></circle><circle cx="301.5016296673347" cy="3.5895183095504546" r="8.284262252347022"></circle><circle cx="834.9639298849847" cy="782.947638357881" r="7.636719188033352"></circle><circle cx="518.0147812734182" cy="867.2485232098337" r="6.513968106609878"></circle><circle cx="411.7411578545027" cy="396.45261354816495" r="9.197153575171342"></circle><circle cx="331.08006072482453" cy="842.2209520138344" r="5.144471010431911"></circle><circle cx="790.3705128360257" cy="174.03371037565262" r="5.916418770809575"></circle><circle cx="542.576691927253" cy="326.207795522923" r="1.9976388128349947"></circle><circle cx="991.6792745868414" cy="10.268555544156621" r="6.95343685497698"></circle><circle cx="81.77801924533235" cy="81.80912271531571" r="1.9471921857482966"></circle><circle cx="759.4917772481009" cy="359.3487159252562" r="3.3624058588006096"></circle><circle cx="454.4938116259523" cy="443.86020619275456" r="8.356489119357988"></circle><circle cx="733.0480941051953" cy="224.30912569186302" r="4.574132458728071"></circle><circle cx="70.07769365538886" cy="425.8095144095171" r="7.673017119608172"></circle><circle cx="927.3135949237279" cy="769.8349457801805" r="3.176636309626836"></circle><circle cx="398.8484884043564" cy="576.9730546881773" r="5.5715682752792635"></circle><circle cx="277.2113491282593" cy="856.8340687332783" r="6.558569208375431"></circle><circle cx="798.4041614130011" cy="500.1652028632415" r="1.7950768706174398"></circle><circle cx="636.9050990819871" cy="7.192338014002875" r="4.106224394667538"></circle><circle cx="936.5410461551073" cy="859.5043921738161" r="9.077186885437426"></circle><circle cx="393.6357931478447" cy="570.3532784391119" r="9.162729273633836"></circle><circle cx="772.0645365984232" cy="564.4838498178528" r="1.786353307838313"></circle><circle cx="801.632916534359" cy="6.806713921182039" r="2.68971334463222"></circle><circle cx="176.71085734580072" cy="798.1066487196314" r="9.121238616219312"></circle><circle cx="767.4970548451076" cy="255.13582032570946" r="4.038944772530414"></circle><circle cx="404.99346729087904" cy="521.9238643796363" r="1.4843457265378295"></circle><circle cx="405.0131961496195" cy="290.92539850210676" r="1.373878644390021"></circle><circle cx="317.4967847877372" cy="765.8562212799516" r="4.584692891088349"></circle><circle cx="309.6582809164081" cy="633.518044191109" r="9.642431601296604"></circle><circle cx="392.080927102544" cy="324.35783860724877" r="7.289344036638239"></circle><circle cx="763.7460392000581" cy="49.37046662045353" r="6.408855087542758"></circle><circle cx="494.23538707174754" cy="885.8739163641811" r="8.373120396262266"></circle><circle cx="190.0172251429175" cy="611.0786783724711" r="6.393427954390839"></circle><circle cx="497.76965119928286" cy="166.41209116984678" r="9.101482190044157"></circle><circle cx="549.0255655683725" cy="94.51943021776077" r="9.600827619884049"></circle><circle cx="985.5943996674372" cy="753.9300666743516" r="3.8433748312017553"></circle><circle cx="556.1521201141884" cy="895.3376093624705" r="6.819601568369628"></circle><circle cx="272.97151338374846" cy="995.9764622915197" r="9.073273578921182"></circle><circle cx="872.6429661002342" cy="621.7820224906714" r="3.5414402820584834"></circle><circle cx="352.33289624234396" cy="296.2564647590864" r="4.088042553425238"></circle><circle cx="889.1302345418936" cy="382.78649268324295" r="5.905118745325997"></circle><circle cx="351.165974333993" cy="946.6283471368375" r="6.3991571381848305"></circle><circle cx="724.5769289886557" cy="379.44176877068327" r="3.579768551162656"></circle><circle cx="764.3583029635637" cy="728.5835694172573" r="9.234475632944946"></circle><circle cx="506.3072224740852" cy="92.63545091749515" r="9.48322244110712"></circle><circle cx="144.36945415049917" cy="608.2487469826604" r="9.308096637790399"></circle><circle cx="155.56363025957376" cy="36.663146165823555" r="4.612130109473015"></circle><circle cx="683.9731637238726" cy="37.05760876363517" r="1.5234316497886295"></circle><circle cx="163.6945225636257" cy="403.6369623221532" r="7.008346560862426"></circle><circle cx="309.5293652996156" cy="949.764620035382" r="4.7739269218719915"></circle><circle cx="777.2351943486703" cy="916.5850016379513" r="9.271990299142864"></circle><circle cx="571.3824721342811" cy="359.97404398888654" r="8.041540052527965"></circle><circle cx="40.78419418729218" cy="880.9230494052144" r="8.46049061314742"></circle><circle cx="534.2224526454634" cy="59.13499921048504" r="9.974346785709567"></circle><circle cx="146.01514722572472" cy="573.8123994110454" r="1.2030868848567982"></circle><circle cx="958.5582475553069" cy="215.41139834070754" r="4.583758103305473"></circle><circle cx="355.96073137462" cy="758.3415494057977" r="8.16798936292774"></circle><circle cx="359.96298021850583" cy="978.6400111867204" r="3.9618786010456173"></circle><circle cx="547.6831358450496" cy="799.699912171531" r="6.265082776440602"></circle><circle cx="200.113107568056" cy="588.2082210977615" r="5.99367684535348"></circle><circle cx="928.4321019435828" cy="727.1696149848159" r="4.598491519854635"></circle><circle cx="438.5865536677944" cy="834.0941386330035" r="5.261416288410652"></circle><circle cx="421.33900868992623" cy="481.7864195140624" r="7.964844768544849"></circle><circle cx="748.2012523112893" cy="66.99507343142552" r="8.911462283140779"></circle><circle cx="564.9012777470448" cy="576.9273972028531" r="5.069616529081264"></circle><circle cx="833.1147680091447" cy="822.2444602211494" r="3.2401769145236594"></circle><circle cx="39.156187210563466" cy="672.5278615859361" r="2.117503468449898"></circle><circle cx="324.96462800753847" cy="69.33288149299966" r="5.745682585988982"></circle><circle cx="423.5976912066466" cy="205.64149234538286" r="7.527894726632547"></circle><circle cx="227.429713680676" cy="420.38940267339854" r="2.1828975603602534"></circle><circle cx="498.27530500970084" cy="318.8219143578379" r="5.10175778746265"></circle><circle cx="729.0408162229984" cy="209.59341324114655" r="4.8795673755792315"></circle><circle cx="86.66626262518152" cy="790.9770840935977" r="6.221665806843838"></circle><circle cx="175.1124198462881" cy="299.43167649066794" r="3.1125897465044288"></circle><circle cx="632.6441547210679" cy="878.9278850358302" r="6.294246976009278"></circle><circle cx="932.7665089497226" cy="429.95525445438875" r="4.012356579859675"></circle><circle cx="355.6337806877432" cy="763.0661493127894" r="1.8937823228526742"></circle><circle cx="433.5832245619493" cy="201.51701756862784" r="7.999114564787331"></circle><circle cx="846.5222326171156" cy="67.6496098478947" r="6.631370153338987"></circle><circle cx="941.2066049656918" cy="971.6418573537262" r="2.841635002560744"></circle><circle cx="337.0735173047057" cy="62.30955471192034" r="8.08085216178775"></circle><circle cx="442.7088162911723" cy="233.4008831459846" r="6.470580738746781"></circle><circle cx="66.24861838349561" cy="172.42487114420314" r="9.626582633348608"></circle><circle cx="937.4079959184638" cy="57.160506132707845" r="6.486379671836534"></circle><circle cx="888.5807329038844" cy="20.912227304744178" r="6.847679408327405"></circle><circle cx="389.9156753301607" cy="549.5415074594894" r="3.69511829904212"></circle><circle cx="379.87563784572086" cy="657.3756364506725" r="9.024120282228619"></circle><circle cx="221.0616417637661" cy="660.2155518070134" r="3.458156403377455"></circle><circle cx="976.4528372633878" cy="876.0580254427667" r="7.874506911234745"></circle><circle cx="288.48319225276975" cy="521.2973426738632" r="7.060876536731088"></circle><circle cx="729.7254297174571" cy="880.4023227580547" r="7.565196742151286"></circle><circle cx="123.52028687642314" cy="353.9162872972961" r="5.079515662759956"></circle><circle cx="589.8493200369026" cy="306.9384906439858" r="6.077998113350769"></circle><circle cx="323.7482961305567" cy="113.26156483691396" r="2.824105433139478"></circle><circle cx="273.62208490376406" cy="866.9917174223912" r="6.23594349977366"></circle><circle cx="269.01078864479166" cy="904.8936625848282" r="3.8504789498970564"></circle><circle cx="977.1864770940392" cy="23.645243232078172" r="2.3760460256767955"></circle><circle cx="247.88607580731735" cy="12.589228995193436" r="6.0861224028697265"></circle><circle cx="636.3291970687817" cy="694.8276179216122" r="3.902875698271277"></circle><circle cx="991.0632515166218" cy="326.98070843091574" r="6.576324547442484"></circle><circle cx="915.2033512403746" cy="249.30671370726222" r="5.0436078140071725"></circle><circle cx="681.5657479110541" cy="697.8095098683834" r="9.287452900088882"></circle><circle cx="387.4551328638769" cy="72.43223209217531" r="7.505904800413164"></circle><circle cx="553.526061688565" cy="362.8299722315194" r="3.954899035520543"></circle><circle cx="251.34876776228876" cy="740.8110694692521" r="3.7142782467739717"></circle><circle cx="886.2866249161832" cy="825.8228882880047" r="7.473829608006362"></circle><circle cx="471.0440728152907" cy="201.47001144014044" r="4.645492383437716"></circle><circle cx="2.5017174606234427" cy="46.354566507762705" r="6.398352881223845"></circle><circle cx="781.0099523639029" cy="505.26641269393633" r="9.019346442199591"></circle><circle cx="659.290171004997" cy="991.5759195790341" r="1.237312548954905"></circle><circle cx="278.16495119311344" cy="726.409193128438" r="1.8972867883018856"></circle><circle cx="628.3268931628925" cy="612.4824460496611" r="4.160631845553055"></circle><circle cx="269.01155800658927" cy="942.3571731980089" r="6.897966341644787"></circle><circle cx="860.6408288162705" cy="362.1252957479477" r="5.897598911526489"></circle><circle cx="681.2286943285204" cy="459.06833591227047" r="2.3962882603888875"></circle><circle cx="348.65665968991055" cy="361.63880042027154" r="2.3449520171702867"></circle><circle cx="541.8170617799695" cy="776.7974632611551" r="1.0549823929310158"></circle><circle cx="635.0968358342124" cy="68.76035901948252" r="6.9977016329219515"></circle><circle cx="812.302524662258" cy="170.2286372870443" r="6.934919917236991"></circle><circle cx="606.4843051245938" cy="81.83862612568072" r="4.5279244534492165"></circle><circle cx="456.10463824699707" cy="536.9299174908286" r="2.3136728556158768"></circle><circle cx="561.0016750660723" cy="933.4020932205094" r="3.4004774458929905"></circle><circle cx="742.1461452210112" cy="95.15224484753526" r="1.9761628738947383"></circle><circle cx="765.6430935584877" cy="882.0634177165754" r="4.957464575921005"></circle><circle cx="412.74809509579" cy="928.8457580558016" r="5.220387205364937"></circle><circle cx="388.4081797109715" cy="193.6767301260567" r="7.509317790519829"></circle><circle cx="789.0256947402565" cy="932.9865714589416" r="2.1731285128516253"></circle><circle cx="699.1605150870583" cy="509.5840775575991" r="8.96697704623027"></circle><circle cx="988.6860390896355" cy="404.7700945955217" r="9.349796921595189"></circle><circle cx="616.4662948843313" cy="799.0160867876224" r="3.5995809874004276"></circle><circle cx="251.92389125655558" cy="738.9388925596023" r="7.571235361379622"></circle><circle cx="36.513335351032964" cy="332.6909423809958" r="8.356894369567556"></circle><circle cx="423.9667546374406" cy="729.9714121425483" r="9.424695377055244"></circle><circle cx="352.7119230545059" cy="415.90534130416177" r="1.6781505640958363"></circle><circle cx="409.6586787740737" cy="27.17834588899337" r="7.198281266517014"></circle><circle cx="835.502670773074" cy="836.1423852045318" r="5.622491660174805"></circle><circle cx="32.363219765601414" cy="370.7703155697113" r="7.126775831053014"></circle><circle cx="131.1205407809659" cy="680.4083743985951" r="9.874864705962228"></circle><circle cx="207.35089820515972" cy="651.9073767253352" r="9.984904981953276"></circle><circle cx="923.0241427323016" cy="60.6991184479877" r="8.08061033479136"></circle><circle cx="947.4269395657675" cy="805.6451034847221" r="2.1842801598743784"></circle><circle cx="547.9456651213952" cy="858.6431100154552" r="9.983222950575058"></circle><circle cx="686.1475165689137" cy="50.06949461672683" r="9.903706945407492"></circle><circle cx="813.7879528942071" cy="564.7344279655131" r="3.078466815232032"></circle><circle cx="740.6435115663356" cy="466.88889759112095" r="5.167523816825612"></circle><circle cx="313.50044221730843" cy="725.7350231570681" r="3.4438171444473182"></circle><circle cx="114.22883041990106" cy="101.75421959491082" r="5.554541675717262"></circle><circle cx="898.5572445784311" cy="110.64463660652967" r="2.6511966556951787"></circle><circle cx="691.3146387623144" cy="694.0808517999659" r="6.584009004576472"></circle><circle cx="684.0664746198966" cy="261.4107668063075" r="6.670305130524772"></circle><circle cx="414.36653658943624" cy="807.9342867979997" r="1.5797409240966283"></circle><circle cx="106.12556594815969" cy="872.973302462305" r="3.1048270445386645"></circle><circle cx="4.790174593521712" cy="719.6013344525501" r="1.516436512447749"></circle><circle cx="931.5438684983206" cy="834.0242157207165" r="3.2268954711403515"></circle><circle cx="875.7809451308635" cy="166.2167263742622" r="5.747331110503223"></circle><circle cx="11.805973251844515" cy="453.5615369976265" r="7.676622049167353"></circle><circle cx="55.3604102920755" cy="469.2021365486625" r="6.384772706756584"></circle><circle cx="246.97051851776507" cy="55.065233280971796" r="3.775168477727963"></circle><circle cx="487.99767905009395" cy="4.252695965873965" r="2.0987716282578726"></circle><circle cx="949.6912869095576" cy="696.2005339550052" r="4.406093381336265"></circle><circle cx="789.4115563518775" cy="481.122233843142" r="8.045348199173326"></circle><circle cx="259.21308300152026" cy="668.5782825131123" r="5.091892900804838"></circle><circle cx="101.4173956166451" cy="181.70479083754975" r="7.813981374611911"></circle><circle cx="147.07086000232562" cy="401.5288961770784" r="7.245506469684838"></circle><circle cx="778.504736780685" cy="688.8026924554042" r="1.562541201658325"></circle><circle cx="500.00752524145156" cy="1.9968228928599618" r="5.934531861838103"></circle><circle cx="322.79251445327463" cy="919.2828189859243" r="1.0698884093609378"></circle><circle cx="953.1629228313138" cy="115.2239928519403" r="9.861524075755336"></circle><circle cx="226.31726815492058" cy="764.8253469591382" r="1.736156868502869"></circle><circle cx="705.936955061109" cy="227.11379566452283" r="9.751608629737781"></circle><circle cx="505.26955890083514" cy="517.7398907193933" r="3.3997018701060475"></circle><circle cx="291.12467682656563" cy="668.0085307488993" r="5.0699277093181845"></circle><circle cx="566.2994721200834" cy="930.8416906107628" r="6.409766570613194"></circle><circle cx="957.35174545218" cy="200.03168273392325" r="7.260015616982177"></circle><circle cx="351.2134369449551" cy="641.2631644938227" r="4.95989381917885"></circle><circle cx="753.7524795612138" cy="281.53931734471513" r="6.838920313184793"></circle><circle cx="344.6136369596211" cy="314.83121901255663" r="6.8968973345940325"></circle><circle cx="247.0463254088895" cy="890.7720430514023" r="8.027674199731312"></circle><circle cx="417.9692607946035" cy="979.2938634466879" r="3.4022913599134124"></circle><circle cx="547.2021340153503" cy="169.98802301112926" r="8.045160405145243"></circle><circle cx="125.38144177518507" cy="537.9510381224695" r="7.610054226139243"></circle><circle cx="779.9950773442246" cy="1.831827599764635" r="8.214491055354102"></circle><circle cx="35.523506038160015" cy="586.232462078365" r="4.3988437637949644"></circle><circle cx="625.3035472133539" cy="353.4535890320574" r="3.613066696607935"></circle><circle cx="898.2282829718692" cy="980.5690444323558" r="7.912102899365431"></circle><circle cx="68.06781094573977" cy="248.27288579789376" r="4.763873393345309"></circle><circle cx="162.8500806143618" cy="209.39355676418202" r="5.603319356993714"></circle><circle cx="746.380690703719" cy="929.8056158681072" r="8.165148668772074"></circle><circle cx="985.098940276401" cy="260.92284413557553" r="5.963201620632"></circle><circle cx="861.7855401146633" cy="924.5888874882539" r="3.8260766727727513"></circle><circle cx="267.6802837921186" cy="21.761425520363087" r="8.991084540804117"></circle><circle cx="738.0681457818703" cy="580.2117340348017" r="4.750903290309008"></circle><circle cx="729.5023524078103" cy="236.37231029656002" r="6.838705584197643"></circle><circle cx="675.5678907002527" cy="346.0697319791244" r="4.600962774012487"></circle><circle cx="509.5841570317503" cy="389.6773494068773" r="1.3409290501151245"></circle><circle cx="24.0946320560711" cy="945.9664810917532" r="2.8930309790331803"></circle><circle cx="363.33293977346216" cy="695.8048171285716" r="1.4237116559494376"></circle><circle cx="942.4522292862318" cy="329.8499180103147" r="4.882472652096789"></circle><circle cx="151.5040531933487" cy="14.72905808413838" r="8.48608177944908"></circle><circle cx="992.1084841772263" cy="344.2757656872137" r="8.107318989688928"></circle><circle cx="370.9029913746389" cy="419.9415442337138" r="5.1656436154345915"></circle><circle cx="368.7583522896538" cy="805.1670668733224" r="1.040317429343001"></circle><circle cx="542.7772131696285" cy="268.50865009028246" r="1.7952458408440184"></circle><circle cx="348.07885215864445" cy="436.7520959561104" r="1.9016741118204779"></circle><circle cx="324.27622629763687" cy="829.3047691322101" r="8.22374601473419"></circle><circle cx="928.978437975139" cy="763.4063827694662" r="2.6638954958249403"></circle><circle cx="439.13896210432955" cy="362.94675051849424" r="8.979082376741562"></circle><circle cx="192.6876973818117" cy="798.1418520020283" r="5.3295933862184866"></circle><circle cx="844.5308726646934" cy="929.9975992181327" r="4.389270786321601"></circle><circle cx="849.7851304573182" cy="810.7418373128053" r="4.517377496886013"></circle><circle cx="557.8347618249182" cy="710.9469607283594" r="8.590491581873156"></circle><circle cx="245.44362688458742" cy="252.8810098330796" r="1.042217430751291"></circle><circle cx="339.55896989723476" cy="256.52469250335486" r="4.673900543698064"></circle><circle cx="830.0859917281658" cy="332.09692361577135" r="8.4133393970259"></circle><circle cx="297.6078530329358" cy="686.9693031535069" r="9.786748399066129"></circle><circle cx="791.0060418315246" cy="5.957865196397183" r="7.68955315821832"></circle><circle cx="102.1859226332682" cy="786.0087665476476" r="1.9676528039346228"></circle><circle cx="682.5767141068931" cy="617.8420982648698" r="8.136548138086487"></circle><circle cx="626.9466824225991" cy="849.1583708147776" r="7.19963086556874"></circle><circle cx="263.60454142836477" cy="557.2980034788679" r="4.918440904389031"></circle><circle cx="670.2019322184032" cy="751.7354509740493" r="6.71536768460772"></circle><circle cx="406.26311809200513" cy="885.7057281696576" r="5.549340893828747"></circle><circle cx="530.4345954508012" cy="22.138239363106436" r="7.832125217607571"></circle><circle cx="337.36629114922613" cy="109.51584950605752" r="8.431678698839573"></circle><circle cx="456.1026970216973" cy="261.7741695776363" r="1.756523633562333"></circle><circle cx="574.0356168037355" cy="123.7895008084804" r="7.789775334051601"></circle><circle cx="357.072296538617" cy="150.62257497592557" r="1.73926230516225"></circle><circle cx="671.6998333514208" cy="451.9419433809813" r="4.677703048888315"></circle><circle cx="495.04797420601477" cy="874.7920737752479" r="5.553789157081296"></circle><circle cx="588.3843641886795" cy="221.10738593164726" r="2.5755848410907207"></circle><circle cx="164.14990942349328" cy="967.3917225778579" r="8.999574921749678"></circle><circle cx="652.166092232696" cy="153.00302315959357" r="3.5940434973573994"></circle><circle cx="746.4778209015859" cy="821.2747745847026" r="2.675494711386648"></circle><circle cx="326.4969205533199" cy="427.9873453441776" r="7.892415617736873"></circle><circle cx="524.6867164025235" cy="45.81431015420057" r="6.0640751183482"></circle><circle cx="228.24682450868372" cy="931.7327707066578" r="6.068519165220103"></circle><circle cx="367.82802665419666" cy="860.798605890565" r="2.9019530228558637"></circle><circle cx="773.6797539023444" cy="205.30423736056846" r="5.375325086819156"></circle><circle cx="213.50222747926773" cy="860.8989225463948" r="9.18840754925299"></circle><circle cx="333.52474957075316" cy="826.6786849901762" r="5.705794108993157"></circle><circle cx="428.5017530380322" cy="797.610180613646" r="4.048812233410858"></circle><circle cx="759.5242676189305" cy="131.7271839079579" r="9.813421356158642"></circle><circle cx="820.2681592461754" cy="640.5606906476224" r="3.1380363430530607"></circle><circle cx="106.72527760001383" cy="89.16225345757445" r="8.006811634301044"></circle><circle cx="902.8337256698462" cy="467.34349047953106" r="2.7592411892709423"></circle><circle cx="693.4187357154887" cy="155.85692433518284" r="6.202125096007151"></circle><circle cx="253.3726639882765" cy="97.76089067427974" r="8.813937397844771"></circle><circle cx="18.69473026600965" cy="930.6588418361601" r="5.419226445923865"></circle><circle cx="179.75231890169053" cy="918.1793596254191" r="3.7171255099831244"></circle><circle cx="633.1616660226966" cy="107.23900244027674" r="8.52014312934031"></circle><circle cx="983.5527191580278" cy="469.58402827409304" r="8.18820998624555"></circle><circle cx="802.6915161120827" cy="672.1747727577246" r="5.658930430791591"></circle><circle cx="130.92637484555004" cy="383.62250067513656" r="6.734667885200682"></circle><circle cx="396.3605930839955" cy="708.1566393041161" r="9.920316052480926"></circle><circle cx="206.1421257523932" cy="653.6022937732951" r="5.451255599674631"></circle><circle cx="371.7407616304409" cy="369.0915702822144" r="9.456886947489082"></circle><circle cx="11.866650529590572" cy="295.1286573892087" r="3.1906242582797413"></circle><circle cx="102.85227726594259" cy="365.3983443828801" r="4.107535614425225"></circle><circle cx="744.4253840885107" cy="538.3627932253372" r="9.519925109048604"></circle><circle cx="107.19291911451312" cy="153.49016263570724" r="7.387414197539877"></circle><circle cx="850.7911316876377" cy="267.85912035954465" r="4.724666667215644"></circle><circle cx="778.3468859887588" cy="838.2939659817739" r="3.052819196949179"></circle><circle cx="562.672077193285" cy="469.81415998472255" r="1.2225857223044476"></circle><circle cx="625.4011234470538" cy="346.9485038064488" r="3.565699958120702"></circle><circle cx="326.4631348289988" cy="85.1454803011531" r="2.3989730394490247"></circle><circle cx="886.4842434261564" cy="299.1700813539127" r="9.909292330727089"></circle><circle cx="649.8787513177813" cy="970.2796504445421" r="3.4381849720992523"></circle><circle cx="642.9468512762481" cy="286.3856146916077" r="6.115197346755299"></circle><circle cx="704.1430978242662" cy="700.0147802923188" r="6.174325134197058"></circle><circle cx="456.795851195924" cy="449.0489462231675" r="9.706719696080706"></circle><circle cx="714.7292139207353" cy="689.1647508548635" r="9.621741958400825"></circle><circle cx="274.12283582869577" cy="941.0990793166361" r="3.9954050796117206"></circle><circle cx="848.56420610563" cy="144.0053772340686" r="1.1221638860281182"></circle><circle cx="218.66703795714204" cy="221.00926008542055" r="6.4575900095042575"></circle><circle cx="264.1546578217273" cy="327.68637465866647" r="7.114312966513975"></circle><circle cx="49.45933196258512" cy="470.70227248682903" r="6.8937185327585375"></circle><circle cx="829.3765837027518" cy="971.6234855783441" r="8.863078064057646"></circle><circle cx="205.88518103165688" cy="177.9416532084197" r="4.366810564743268"></circle><circle cx="338.59733034292725" cy="321.67629674115483" r="4.194425500688355"></circle><circle cx="649.3079283927088" cy="202.77402505702557" r="1.1725610620392999"></circle><circle cx="281.1216642003262" cy="814.6106691954847" r="3.957829340532598"></circle><circle cx="632.9425753225923" cy="617.5389775266078" r="1.0218001755613744"></circle><circle cx="306.93528806061664" cy="116.50590033697772" r="3.491392464634677"></circle><circle cx="661.7121633231234" cy="520.7334062843992" r="6.255511464568045"></circle><circle cx="624.1596415554404" cy="149.40657305508353" r="3.1855460138948537"></circle><circle cx="683.2600492034986" cy="889.2757237905669" r="2.8057355203718766"></circle><circle cx="431.5639429295648" cy="15.696209452554788" r="7.815910104979285"></circle><circle cx="373.47919972566524" cy="35.759877130462804" r="5.640192448860831"></circle><circle cx="597.0147932219298" cy="377.53861935832435" r="6.817772897564058"></circle><circle cx="221.55773518448595" cy="157.41297116576015" r="9.703818575776186"></circle><circle cx="226.77718373788537" cy="831.4622758325992" r="2.873190250489071"></circle><circle cx="984.299075982388" cy="481.7056310753964" r="2.0388963848265247"></circle><circle cx="28.165028390375603" cy="37.38261161416645" r="4.022676135559898"></circle><circle cx="525.740487030582" cy="822.2521548521979" r="5.054052877016016"></circle><circle cx="994.1348281288815" cy="583.5496300368021" r="5.3896701139279575"></circle><circle cx="400.37292975782003" cy="147.473126363451" r="8.649536302036946"></circle><circle cx="941.1557972073103" cy="251.27391944038968" r="5.878293640181685"></circle><circle cx="79.64776407326069" cy="723.6688322800462" r="1.4541233406119025"></circle><circle cx="383.4241440067703" cy="436.2719065638143" r="7.536701839279153"></circle><circle cx="521.9360314586808" cy="510.69831570521495" r="5.71799225066696"></circle><circle cx="885.1446984746569" cy="929.7527720627676" r="8.09423124046296"></circle><circle cx="307.4721589086351" cy="982.6726303086704" r="1.5202881820760399"></circle><circle cx="71.01510811936085" cy="838.6229026607974" r="2.8009724270567755"></circle><circle cx="193.22369475198587" cy="925.4516282366629" r="2.8789495455116723"></circle><circle cx="542.5348670606695" cy="785.6219366937895" r="2.319126916230271"></circle><circle cx="533.3929527970771" cy="279.15393304841587" r="3.7291557291630215"></circle><circle cx="188.0346811171154" cy="594.2798730113057" r="2.4044932199347393"></circle><circle cx="728.8815999748921" cy="455.9044734680835" r="9.459817313875106"></circle><circle cx="36.27867128927065" cy="872.6226270942152" r="7.363027390768297"></circle><circle cx="87.83799312128026" cy="67.56457117639125" r="2.1383403996157178"></circle><circle cx="56.21793833888788" cy="563.9820985459088" r="7.881016647313113"></circle><circle cx="903.1173833240263" cy="833.7830239804894" r="3.993267373424628"></circle><circle cx="35.412017849012045" cy="675.9169032961845" r="1.6980242085846233"></circle><circle cx="188.31140496930465" cy="635.7232934408652" r="4.472202115946395"></circle><circle cx="961.0123888006019" cy="674.3265653054041" r="4.883203727817596"></circle><circle cx="249.75871906693615" cy="26.664655349761812" r="2.0591240372070825"></circle><circle cx="350.53303898840295" cy="117.28326678465083" r="4.912064247235914"></circle><circle cx="994.2168666826294" cy="795.85508745975" r="6.707495727775121"></circle><circle cx="199.6193355879252" cy="229.8113906696555" r="6.241688312746886"></circle><circle cx="112.58252855309637" cy="259.8944656834814" r="9.583463310442946"></circle><circle cx="309.58556846242647" cy="95.7928337639673" r="8.669068685013599"></circle><circle cx="583.8050059206446" cy="886.3905285144276" r="6.363000679595676"></circle><circle cx="684.3038598470075" cy="366.9355410634363" r="7.665168498682981"></circle><circle cx="488.97345239691515" cy="767.2264598432996" r="5.0197062658533"></circle><circle cx="173.120570572036" cy="107.85201452953518" r="7.089058214310488"></circle><circle cx="22.042357849966443" cy="983.7462097660017" r="3.95411705883096"></circle><circle cx="359.4204130701961" cy="176.38696969236568" r="8.30259701011359"></circle><circle cx="196.79126932312775" cy="831.2682104779753" r="5.6150800684360656"></circle><circle cx="596.4791547647997" cy="725.8678237655245" r="5.603724926804652"></circle><circle cx="226.23825203465975" cy="523.4021241276332" r="6.625861643168105"></circle><circle cx="402.6469303792344" cy="371.0265876404868" r="7.452645540924795"></circle><circle cx="397.1737087058189" cy="547.5885113869316" r="5.655845387532824"></circle><circle cx="728.426181817106" cy="384.68484414326645" r="4.665202879492651"></circle><circle cx="756.79824292825" cy="32.67772571680516" r="1.9799792041231647"></circle><circle cx="229.697127504632" cy="152.15242276091678" r="2.201468966277074"></circle><circle cx="478.12706172619033" cy="731.0088739779237" r="5.280986605456993"></circle><circle cx="698.998265011548" cy="90.24272681379553" r="5.004835063618842"></circle><circle cx="536.9725150653768" cy="646.692676965448" r="9.728708324146007"></circle><circle cx="399.0373890307788" cy="428.6597910453982" r="9.983670661535406"></circle><circle cx="463.81460341483825" cy="433.02105736740805" r="5.168065297491825"></circle><circle cx="213.62211507840433" cy="425.752183828342" r="4.688904498057068"></circle><circle cx="735.9739208970619" cy="988.9141515233259" r="2.498546390876763"></circle><circle cx="461.23290890755374" cy="759.837820296281" r="5.64244910583259"></circle><circle cx="614.9997543421899" cy="930.0595481867804" r="8.104624214325565"></circle><circle cx="940.6307734372276" cy="662.2641772580569" r="1.1752205247235314"></circle><circle cx="97.7629071410624" cy="301.33286903082654" r="3.995403055848527"></circle><circle cx="13.735784020856068" cy="513.8579407866271" r="3.9235443380450254"></circle><circle cx="319.6477300674536" cy="420.16976020529097" r="6.283200388829252"></circle><circle cx="878.0549900245765" cy="797.1554671484811" r="6.490736868502879"></circle><circle cx="275.27535998598296" cy="2.4818009495231053" r="1.0111733055253767"></circle><circle cx="593.471716678738" cy="583.1666006538138" r="2.1156220463981255"></circle><circle cx="292.79121757604366" cy="706.8683960143487" r="7.0580783955958"></circle><circle cx="539.9785724453226" cy="739.0945681122761" r="9.735792552643879"></circle><circle cx="346.8358654123025" cy="610.3594587019754" r="3.739986518656655"></circle><circle cx="234.67372997497503" cy="877.609916655907" r="2.4008512303173903"></circle><circle cx="241.85633407896435" cy="426.48988548280875" r="1.6774876562619943"></circle><circle cx="850.6961649621165" cy="115.01513046764744" r="6.070213314621132"></circle><circle cx="641.4120390442819" cy="113.25325489007199" r="8.858027414225717"></circle><circle cx="379.076914136109" cy="912.0949916252134" r="9.412113860622938"></circle><circle cx="555.3595461317565" cy="768.3362541041561" r="5.8142001433405115"></circle><circle cx="811.2404960903898" cy="108.74454517778287" r="5.215111464523423"></circle><circle cx="486.01437376130605" cy="156.05046436412007" r="5.07183485229259"></circle><circle cx="414.454012282224" cy="283.1273459316779" r="8.625085688537157"></circle><circle cx="809.183353910423" cy="339.15545532911875" r="5.01809815024605"></circle><circle cx="359.0292331960339" cy="702.844453186535" r="6.960260308343325"></circle><circle cx="790.8911481846205" cy="517.5489073166739" r="9.788101967176807"></circle><circle cx="401.9775518375639" cy="856.6581329155003" r="8.944155245503154"></circle><circle cx="255.74642222435972" cy="600.6329326415766" r="8.564339106967836"></circle><circle cx="362.8108585467731" cy="326.1236961487304" r="1.0343087364552361"></circle><circle cx="569.3556974954525" cy="184.5321348039899" r="9.834200078321238"></circle><circle cx="19.363381203705732" cy="488.70545749357984" r="8.290288856361641"></circle><circle cx="448.321312900539" cy="119.96729819861307" r="2.429240038369698"></circle><circle cx="950.6265843758488" cy="317.30264926223" r="8.000033803886318"></circle><circle cx="17.75033151544281" cy="743.666230685341" r="4.880301174868765"></circle><circle cx="521.5791863043646" cy="445.3202010367929" r="2.233623918644107"></circle><circle cx="881.9429505698755" cy="454.6162740737212" r="8.334098510024592"></circle><circle cx="909.5607158457652" cy="317.6134121799723" r="5.0393078508976075"></circle><circle cx="363.7277477957386" cy="876.6096604840576" r="2.6715103588057243"></circle><circle cx="624.7619763361021" cy="474.11498853072965" r="8.138329339573652"></circle><circle cx="337.5431169938785" cy="997.5139360174121" r="1.884697340925378"></circle><circle cx="703.2567646818409" cy="330.6719034521175" r="1.7894008968328217"></circle><circle cx="342.62264771117646" cy="597.3530826998008" r="3.294400810673901"></circle><circle cx="53.1620775347772" cy="172.9519817052114" r="6.864474624278518"></circle><circle cx="14.357034651735656" cy="737.2509361575978" r="2.105304674891313"></circle><circle cx="302.72089629513687" cy="655.353689118014" r="1.4476115577525277"></circle><circle cx="750.593593039592" cy="930.4021758493839" r="9.061862844095742"></circle><circle cx="814.6558832143844" cy="311.0128018368672" r="6.707625169123927"></circle><circle cx="732.0593999164154" cy="864.9337014027332" r="3.45763424178829"></circle><circle cx="819.9620588620535" cy="19.88036236492796" r="5.827633296664082"></circle><circle cx="9.195989983343367" cy="624.5381929521872" r="1.2895257779163236"></circle><circle cx="391.22485554795384" cy="19.95115401358327" r="2.1697888692467044"></circle><circle cx="288.2200989797117" cy="847.2504245214438" r="9.325514010111753"></circle><circle cx="366.6664855121369" cy="246.435112369622" r="1.8696949846091315"></circle><circle cx="483.1045102439226" cy="421.79894862674263" r="6.856991461141657"></circle><circle cx="288.8740918452506" cy="515.1166229992518" r="4.883389804099955"></circle><circle cx="337.25628070043115" cy="324.17779176986204" r="9.717442101928938"></circle><circle cx="888.9586062172227" cy="670.9947286343983" r="6.070132327958648"></circle><circle cx="791.5756634128211" cy="506.19230932872904" r="2.0239132678328335"></circle><circle cx="314.31481846920485" cy="108.23718777884905" r="4.228732772520335"></circle><circle cx="17.15961286247225" cy="644.5904945461969" r="9.210241027347713"></circle><circle cx="142.56577610980358" cy="523.26098457364" r="3.691979686680094"></circle><circle cx="546.858580129107" cy="77.2007502083012" r="1.5795851695852798"></circle><circle cx="788.0394207385773" cy="443.36219516271314" r="1.0893816428310372"></circle><circle cx="295.06280669728693" cy="600.8288640517221" r="3.4980073271542675"></circle><circle cx="290.8182836572082" cy="111.90188762590859" r="3.1636987655779776"></circle><circle cx="532.7206446353985" cy="701.2859612820204" r="4.1352395292944255"></circle><circle cx="971.4033396434827" cy="365.90289890661643" r="5.825426168052822"></circle><circle cx="160.76195137743832" cy="447.49007509558834" r="2.0079068537271203"></circle><circle cx="532.6875329409257" cy="494.270076271951" r="9.624105587776532"></circle><circle cx="758.2824574058164" cy="8.107687003511721" r="2.560829914952948"></circle><circle cx="838.5690417392726" cy="200.47829002418572" r="9.79434980386658"></circle><circle cx="481.82150077770046" cy="229.8322597783804" r="5.515221812240072"></circle><circle cx="943.6271540640681" cy="720.896814694827" r="7.061532624627415"></circle><circle cx="746.6225231849486" cy="645.7634820123166" r="5.111467466932833"></circle><circle cx="638.527923650966" cy="290.82138741697537" r="4.528034564282043"></circle><circle cx="685.4709989020773" cy="236.59157365998084" r="9.262588292504297"></circle><circle cx="760.229597350337" cy="774.6945544100325" r="1.7158891656886617"></circle><circle cx="158.12563637894806" cy="726.8639235804155" r="7.799089064553877"></circle><circle cx="806.4803727974612" cy="207.11317382905747" r="5.701252038158193"></circle><circle cx="701.5320077405601" cy="182.65117375406658" r="2.5645107331251142"></circle><circle cx="521.0421714606741" cy="264.5820278423756" r="5.81349906314211"></circle><circle cx="526.8549088193761" cy="763.8531689276862" r="7.6637969909286285"></circle><circle cx="908.4887013689269" cy="162.38051492667128" r="6.890189362124346"></circle><circle cx="370.9319610787438" cy="373.22219040180846" r="4.964058637494202"></circle><circle cx="538.4666503286819" cy="656.7681213930401" r="7.254313357691237"></circle><circle cx="506.4079279046501" cy="489.02181417706834" r="4.798455963545604"></circle><circle cx="235.29984663695825" cy="40.33128656023055" r="6.576624386218105"></circle><circle cx="690.9294185802397" cy="354.82981319173047" r="6.879781211421849"></circle></svg>