<?xml version="1.0" encoding="UTF-8"?>
<svg width="652" height="70" version="1.1" viewBox="0 0 1e3 107.36" xmlns="http://www.w3.org/2000/svg">
 <rect width="1e3" height="107.36" fill="#181818" stroke-width=".46338"/>
 <g transform="translate(-73.601 122.08)" fill="#fff" stroke-width="1.4217">
  <rect x="173.08" y="-106.75" width="1" height="76.687"/>
  <rect x="101.2" y="-106.75" width="1" height="76.687"/>
  <rect x="142.35" y="-106.75" width="1" height="76.687"/>
  <rect x="150.96" y="-106.75" width="1" height="76.687"/>
  <rect x="219.17" y="-106.75" width="1" height="76.687"/>
  <rect x="153.79" y="-106.75" width="1" height="76.687"/>
  <rect x="138.21" y="-106.75" width="1" height="76.687"/>
  <rect x="124.22" y="-106.75" width="1" height="76.687"/>
  <rect x="165.29" y="-106.75" width="1" height="76.687"/>
  <rect x="107.22" y="-106.75" width="1" height="76.687"/>
  <rect x="151.09" y="-106.75" width="1" height="76.687"/>
  <rect x="126.07" y="-106.75" width="1" height="76.687"/>
  <rect x="227.72" y="-106.75" width="1" height="76.687"/>
  <rect x="107.35" y="-106.75" width="1" height="76.687"/>
  <rect x="122.8" y="-106.75" width="1" height="76.687"/>
  <rect x="149.67" y="-106.75" width="1" height="76.687"/>
  <rect x="99.051" y="-106.75" width="1" height="76.687"/>
  <rect x="136.67" y="-106.75" width="1" height="76.687"/>
  <rect x="124.33" y="-106.75" width="1" height="76.687"/>
  <rect x="186.36" y="-106.75" width="1" height="76.687"/>
  <rect x="112.39" y="-106.75" width="1" height="76.687"/>
  <rect x="131.39" y="-106.75" width="1" height="76.687"/>
  <rect x="121.88" y="-106.75" width="1" height="76.687"/>
  <rect x="135.49" y="-106.75" width="1" height="76.687"/>
  <rect x="102.85" y="-106.75" width="1" height="76.687"/>
  <rect x="117.7" y="-106.75" width="1" height="76.687"/>
  <rect x="160.74" y="-106.75" width="1" height="76.687"/>
  <rect x="103.55" y="-106.75" width="1" height="76.687"/>
  <rect x="112.77" y="-106.75" width="1" height="76.687"/>
  <rect x="244.8" y="-106.75" width="1" height="76.687"/>
  <rect x="102.54" y="-106.75" width="1" height="76.687"/>
  <rect x="352.92" y="-106.75" width="1" height="76.687"/>
  <rect x="106.69" y="-106.75" width="1" height="76.687"/>
  <rect x="193.26" y="-106.75" width="1" height="76.687"/>
  <rect x="149.31" y="-106.75" width="1" height="76.687"/>
  <rect x="143.11" y="-106.75" width="1" height="76.687"/>
  <rect x="105.87" y="-106.75" width="1" height="76.687"/>
  <rect x="124.3" y="-106.75" width="1" height="76.687"/>
  <rect x="188.83" y="-106.75" width="1" height="76.687"/>
  <rect x="203.16" y="-106.75" width="1" height="76.687"/>
  <rect x="128.74" y="-106.75" width="1" height="76.687"/>
  <rect x="115.28" y="-106.75" width="1" height="76.687"/>
  <rect x="814.33" y="-106.75" width="1" height="76.687"/>
  <rect x="120.16" y="-106.75" width="1" height="76.687"/>
  <rect x="105.99" y="-106.75" width="1" height="76.687"/>
  <rect x="348.92" y="-106.75" width="1" height="76.687"/>
  <rect x="104.18" y="-106.75" width="1" height="76.687"/>
  <rect x="169.05" y="-106.75" width="1" height="76.687"/>
  <rect x="130.19" y="-106.75" width="1" height="76.687"/>
  <rect x="116.09" y="-106.75" width="1" height="76.687"/>
  <rect x="165.36" y="-106.75" width="1" height="76.687"/>
  <rect x="118.91" y="-106.75" width="1" height="76.687"/>
  <rect x="110.2" y="-106.75" width="1" height="76.687"/>
  <rect x="137.32" y="-106.75" width="1" height="76.687"/>
  <rect x="247.12" y="-106.75" width="1" height="76.687"/>
  <rect x="131.57" y="-106.75" width="1" height="76.687"/>
  <rect x="103.87" y="-106.75" width="1" height="76.687"/>
  <rect x="158.14" y="-106.75" width="1" height="76.687"/>
  <rect x="105.64" y="-106.75" width="1" height="76.687"/>
  <rect x="141.51" y="-106.75" width="1" height="76.687"/>
  <rect x="365.02" y="-106.75" width="1" height="76.687"/>
  <rect x="119.31" y="-106.75" width="1" height="76.687"/>
  <rect x="105.5" y="-106.75" width="1" height="76.687"/>
  <rect x="104.42" y="-106.75" width="1" height="76.687"/>
  <rect x="122.32" y="-106.75" width="1" height="76.687"/>
  <rect x="99.823" y="-106.75" width="1" height="76.687"/>
  <rect x="99.134" y="-106.75" width="1" height="76.687"/>
  <rect x="168.86" y="-106.75" width="1" height="76.687"/>
  <rect x="271.72" y="-106.75" width="1" height="76.687"/>
  <rect x="147.41" y="-106.75" width="1" height="76.687"/>
  <rect x="99.411" y="-106.75" width="1" height="76.687"/>
  <rect x="100.78" y="-106.75" width="1" height="76.687"/>
  <rect x="214.97" y="-106.75" width="1" height="76.687"/>
  <rect x="470.61" y="-106.75" width="1" height="76.687"/>
  <rect x="100.26" y="-106.75" width="1" height="76.687"/>
  <rect x="138.87" y="-106.75" width="1" height="76.687"/>
  <rect x="132.41" y="-106.75" width="1" height="76.687"/>
  <rect x="117.37" y="-106.75" width="1" height="76.687"/>
  <rect x="732.23" y="-106.75" width="1" height="76.687"/>
  <rect x="107.06" y="-106.75" width="1" height="76.687"/>
  <rect x="116.73" y="-106.75" width="1" height="76.687"/>
  <rect x="150.89" y="-106.75" width="1" height="76.687"/>
  <rect x="212.6" y="-106.75" width="1" height="76.687"/>
  <rect x="127.7" y="-106.75" width="1" height="76.687"/>
  <rect x="100.84" y="-106.75" width="1" height="76.687"/>
  <rect x="109.92" y="-106.75" width="1" height="76.687"/>
  <rect x="107.42" y="-106.75" width="1" height="76.687"/>
  <rect x="689.98" y="-106.75" width="1" height="76.687"/>
  <rect x="109.94" y="-106.75" width="1" height="76.687"/>
  <rect x="245.02" y="-106.75" width="1" height="76.687"/>
  <rect x="115.38" y="-106.75" width="1" height="76.687"/>
  <rect x="143.12" y="-106.75" width="1" height="76.687"/>
  <rect x="144.9" y="-106.75" width="1" height="76.687"/>
  <rect x="964.66" y="-106.75" width="1" height="76.687"/>
  <rect x="109.41" y="-106.75" width="1" height="76.687"/>
  <rect x="108.83" y="-106.75" width="1" height="76.687"/>
  <rect x="144.45" y="-106.75" width="1" height="76.687"/>
  <rect x="127.7" y="-106.75" width="1" height="76.687"/>
  <rect x="108.12" y="-106.75" width="1" height="76.687"/>
  <rect x="128.5" y="-106.75" width="1" height="76.687"/>
  <rect x="140.51" y="-106.75" width="1" height="76.687"/>
  <rect x="110.12" y="-106.75" width="1" height="76.687"/>
  <rect x="250.07" y="-106.75" width="1" height="76.687"/>
  <rect x="116.11" y="-106.75" width="1" height="76.687"/>
  <rect x="170.93" y="-106.75" width="1" height="76.687"/>
  <rect x="136.11" y="-106.75" width="1" height="76.687"/>
  <rect x="109.49" y="-106.75" width="1" height="76.687"/>
  <rect x="111.64" y="-106.75" width="1" height="76.687"/>
  <rect x="283.89" y="-106.75" width="1" height="76.687"/>
  <rect x="99.703" y="-106.75" width="1" height="76.687"/>
  <rect x="127.12" y="-106.75" width="1" height="76.687"/>
  <rect x="105.74" y="-106.75" width="1" height="76.687"/>
  <rect x="100.08" y="-106.75" width="1" height="76.687"/>
  <rect x="126.48" y="-106.75" width="1" height="76.687"/>
  <rect x="251.68" y="-106.75" width="1" height="76.687"/>
  <rect x="167.15" y="-106.75" width="1" height="76.687"/>
  <rect x="310.89" y="-106.75" width="1" height="76.687"/>
  <rect x="132.39" y="-106.75" width="1" height="76.687"/>
  <rect x="109.7" y="-106.75" width="1" height="76.687"/>
  <rect x="106.69" y="-106.75" width="1" height="76.687"/>
  <rect x="124.83" y="-106.75" width="1" height="76.687"/>
  <rect x="105.03" y="-106.75" width="1" height="76.687"/>
  <rect x="99.95" y="-106.75" width="1" height="76.687"/>
  <rect x="159.67" y="-106.75" width="1" height="76.687"/>
  <rect x="101.93" y="-106.75" width="1" height="76.687"/>
  <rect x="387.32" y="-106.75" width="1" height="76.687"/>
  <rect x="102.66" y="-106.75" width="1" height="76.687"/>
  <rect x="108.64" y="-106.75" width="1" height="76.687"/>
  <rect x="101.16" y="-106.75" width="1" height="76.687"/>
  <rect x="111.39" y="-106.75" width="1" height="76.687"/>
  <rect x="146.99" y="-106.75" width="1" height="76.687"/>
  <rect x="167.64" y="-106.75" width="1" height="76.687"/>
  <rect x="142.49" y="-106.75" width="1" height="76.687"/>
  <rect x="100.98" y="-106.75" width="1" height="76.687"/>
  <rect x="153.13" y="-106.75" width="1" height="76.687"/>
  <rect x="521.08" y="-106.75" width="1" height="76.687"/>
  <rect x="134.44" y="-106.75" width="1" height="76.687"/>
  <rect x="105.91" y="-106.75" width="1" height="76.687"/>
  <rect x="99.468" y="-106.75" width="1" height="76.687"/>
  <rect x="118.93" y="-106.75" width="1" height="76.687"/>
  <rect x="183.57" y="-106.75" width="1" height="76.687"/>
  <rect x="103.01" y="-106.75" width="1" height="76.687"/>
  <rect x="190.59" y="-106.75" width="1" height="76.687"/>
  <rect x="107.2" y="-106.75" width="1" height="76.687"/>
  <rect x="141.93" y="-106.75" width="1" height="76.687"/>
  <rect x="115.99" y="-106.75" width="1" height="76.687"/>
  <rect x="147.24" y="-106.75" width="1" height="76.687"/>
  <rect x="301.29" y="-106.75" width="1" height="76.687"/>
  <rect x="114.32" y="-106.75" width="1" height="76.687"/>
  <rect x="182.68" y="-106.75" width="1" height="76.687"/>
  <rect x="104.69" y="-106.75" width="1" height="76.687"/>
  <rect x="182.34" y="-106.75" width="1" height="76.687"/>
  <rect x="311.22" y="-106.75" width="1" height="76.687"/>
  <rect x="291.55" y="-106.75" width="1" height="76.687"/>
  <rect x="163.95" y="-106.75" width="1" height="76.687"/>
  <rect x="130.1" y="-106.75" width="1" height="76.687"/>
  <rect x="100.96" y="-106.75" width="1" height="76.687"/>
  <rect x="100.32" y="-106.75" width="1" height="76.687"/>
  <rect x="101.55" y="-106.75" width="1" height="76.687"/>
  <rect x="115.55" y="-106.75" width="1" height="76.687"/>
  <rect x="340.41" y="-106.75" width="1" height="76.687"/>
  <rect x="145.54" y="-106.75" width="1" height="76.687"/>
  <rect x="117.1" y="-106.75" width="1" height="76.687"/>
  <rect x="101.87" y="-106.75" width="1" height="76.687"/>
  <rect x="212.2" y="-106.75" width="1" height="76.687"/>
  <rect x="193.83" y="-106.75" width="1" height="76.687"/>
  <rect x="103.4" y="-106.75" width="1" height="76.687"/>
  <rect x="339.38" y="-106.75" width="1" height="76.687"/>
  <rect x="345.02" y="-106.75" width="1" height="76.687"/>
  <rect x="146.78" y="-106.75" width="1" height="76.687"/>
  <rect x="286.93" y="-106.75" width="1" height="76.687"/>
  <rect x="191.78" y="-106.75" width="1" height="76.687"/>
  <rect x="583.13" y="-106.75" width="1" height="76.687"/>
  <rect x="162.14" y="-106.75" width="1" height="76.687"/>
  <rect x="154.99" y="-106.75" width="1" height="76.687"/>
  <rect x="103.49" y="-106.75" width="1" height="76.687"/>
  <rect x="197.31" y="-106.75" width="1" height="76.687"/>
  <rect x="143.9" y="-106.75" width="1" height="76.687"/>
  <rect x="215.37" y="-106.75" width="1" height="76.687"/>
  <rect x="690.91" y="-106.75" width="1" height="76.687"/>
  <rect x="114.14" y="-106.75" width="1" height="76.687"/>
  <rect x="131.17" y="-106.75" width="1" height="76.687"/>
  <rect x="106.15" y="-106.75" width="1" height="76.687"/>
  <rect x="112.79" y="-106.75" width="1" height="76.687"/>
  <rect x="112.03" y="-106.75" width="1" height="76.687"/>
  <rect x="138.43" y="-106.75" width="1" height="76.687"/>
  <rect x="265.94" y="-106.75" width="1" height="76.687"/>
  <rect x="184.3" y="-106.75" width="1" height="76.687"/>
  <rect x="103.24" y="-106.75" width="1" height="76.687"/>
  <rect x="112.46" y="-106.75" width="1" height="76.687"/>
  <rect x="106.84" y="-106.75" width="1" height="76.687"/>
  <rect x="99.408" y="-106.75" width="1" height="76.687"/>
  <rect x="838.6" y="-106.75" width="1" height="76.687"/>
  <rect x="737.1" y="-106.75" width="1" height="76.687"/>
  <rect x="104.74" y="-106.75" width="1" height="76.687"/>
  <rect x="106.83" y="-106.75" width="1" height="76.687"/>
  <rect x="101.42" y="-106.75" width="1" height="76.687"/>
  <rect x="163.07" y="-106.75" width="1" height="76.687"/>
  <rect x="99.78" y="-106.75" width="1" height="76.687"/>
  <rect x="99.827" y="-106.75" width="1" height="76.687"/>
  <rect x="120.99" y="-106.75" width="1" height="76.687"/>
  <rect x="203.65" y="-106.75" width="1" height="76.687"/>
  <rect x="119.52" y="-106.75" width="1" height="76.687"/>
  <rect x="126.8" y="-106.75" width="1" height="76.687"/>
  <rect x="174.48" y="-106.75" width="1" height="76.687"/>
  <rect x="99.177" y="-106.75" width="1" height="76.687"/>
  <rect x="134.76" y="-106.75" width="1" height="76.687"/>
  <rect x="270.64" y="-106.75" width="1" height="76.687"/>
  <rect x="102.76" y="-106.75" width="1" height="76.687"/>
  <rect x="199.81" y="-106.75" width="1" height="76.687"/>
  <rect x="281.97" y="-106.75" width="1" height="76.687"/>
  <rect x="156.68" y="-106.75" width="1" height="76.687"/>
  <rect x="138.96" y="-106.75" width="1" height="76.687"/>
  <rect x="102.9" y="-106.75" width="1" height="76.687"/>
  <rect x="137.6" y="-106.75" width="1" height="76.687"/>
  <rect x="202.12" y="-106.75" width="1" height="76.687"/>
  <rect x="274.55" y="-106.75" width="1" height="76.687"/>
  <rect x="158.24" y="-106.75" width="1" height="76.687"/>
  <rect x="112.41" y="-106.75" width="1" height="76.687"/>
  <rect x="341.02" y="-106.75" width="1" height="76.687"/>
  <rect x="155.41" y="-106.75" width="1" height="76.687"/>
  <rect x="122.56" y="-106.75" width="1" height="76.687"/>
  <rect x="115.52" y="-106.75" width="1" height="76.687"/>
  <rect x="114.44" y="-106.75" width="1" height="76.687"/>
  <rect x="125.4" y="-106.75" width="1" height="76.687"/>
  <rect x="146.59" y="-106.75" width="1" height="76.687"/>
  <rect x="106.2" y="-106.75" width="1" height="76.687"/>
  <rect x="116.02" y="-106.75" width="1" height="76.687"/>
  <rect x="156.68" y="-106.75" width="1" height="76.687"/>
  <rect x="216.81" y="-106.75" width="1" height="76.687"/>
  <rect x="141.91" y="-106.75" width="1" height="76.687"/>
  <rect x="235.32" y="-106.75" width="1" height="76.687"/>
  <rect x="187.21" y="-106.75" width="1" height="76.687"/>
  <rect x="129.71" y="-106.75" width="1" height="76.687"/>
  <rect x="114.79" y="-106.75" width="1" height="76.687"/>
  <rect x="134.48" y="-106.75" width="1" height="76.687"/>
  <rect x="134.45" y="-106.75" width="1" height="76.687"/>
  <rect x="99.839" y="-106.75" width="1" height="76.687"/>
  <rect x="115.47" y="-106.75" width="1" height="76.687"/>
  <rect x="222.49" y="-106.75" width="1" height="76.687"/>
  <rect x="154.01" y="-106.75" width="1" height="76.687"/>
  <rect x="107.83" y="-106.75" width="1" height="76.687"/>
  <rect x="180.7" y="-106.75" width="1" height="76.687"/>
  <rect x="107.61" y="-106.75" width="1" height="76.687"/>
  <rect x="166.93" y="-106.75" width="1" height="76.687"/>
  <rect x="98.651" y="-106.75" width="1" height="76.687"/>
  <rect x="136.3" y="-106.75" width="1" height="76.687"/>
  <rect x="121.07" y="-106.75" width="1" height="76.687"/>
  <rect x="145.25" y="-106.75" width="1" height="76.687"/>
  <rect x="99.26" y="-106.75" width="1" height="76.687"/>
  <rect x="114.27" y="-106.75" width="1" height="76.687"/>
  <rect x="236.37" y="-106.75" width="1" height="76.687"/>
  <rect x="111.09" y="-106.75" width="1" height="76.687"/>
  <rect x="104.38" y="-106.75" width="1" height="76.687"/>
  <rect x="107.45" y="-106.75" width="1" height="76.687"/>
  <rect x="152.93" y="-106.75" width="1" height="76.687"/>
  <rect x="120.48" y="-106.75" width="1" height="76.687"/>
  <rect x="122.88" y="-106.75" width="1" height="76.687"/>
  <rect x="120.86" y="-106.75" width="1" height="76.687"/>
  <rect x="130.67" y="-106.75" width="1" height="76.687"/>
  <rect x="138.16" y="-106.75" width="1" height="76.687"/>
  <rect x="109.56" y="-106.75" width="1" height="76.687"/>
  <rect x="116.6" y="-106.75" width="1" height="76.687"/>
  <rect x="107.43" y="-106.75" width="1" height="76.687"/>
  <rect x="490.27" y="-106.75" width="1" height="76.687"/>
  <rect x="109.93" y="-106.75" width="1" height="76.687"/>
  <rect x="124.12" y="-106.75" width="1" height="76.687"/>
  <rect x="107.16" y="-106.75" width="1" height="76.687"/>
  <rect x="98.73" y="-106.75" width="1" height="76.687"/>
  <rect x="104.57" y="-106.75" width="1" height="76.687"/>
  <rect x="115.02" y="-106.75" width="1" height="76.687"/>
  <rect x="451.19" y="-106.75" width="1" height="76.687"/>
  <rect x="157.2" y="-106.75" width="1" height="76.687"/>
  <rect x="405.49" y="-106.75" width="1" height="76.687"/>
  <rect x="103.72" y="-106.75" width="1" height="76.687"/>
  <rect x="179.37" y="-106.75" width="1" height="76.687"/>
  <rect x="120.04" y="-106.75" width="1" height="76.687"/>
  <rect x="153.49" y="-106.75" width="1" height="76.687"/>
  <rect x="350.79" y="-106.75" width="1" height="76.687"/>
  <rect x="202.04" y="-106.75" width="1" height="76.687"/>
  <rect x="197.4" y="-106.75" width="1" height="76.687"/>
  <rect x="421.99" y="-106.75" width="1" height="76.687"/>
  <rect x="280.25" y="-106.75" width="1" height="76.687"/>
  <rect x="99.765" y="-106.75" width="1" height="76.687"/>
  <rect x="119.48" y="-106.75" width="1" height="76.687"/>
  <rect x="102.77" y="-106.75" width="1" height="76.687"/>
  <rect x="122.75" y="-106.75" width="1" height="76.687"/>
  <rect x="165.17" y="-106.75" width="1" height="76.687"/>
  <rect x="104.96" y="-106.75" width="1" height="76.687"/>
  <rect x="198.16" y="-106.75" width="1" height="76.687"/>
  <rect x="231.48" y="-106.75" width="1" height="76.687"/>
  <rect x="175.99" y="-106.75" width="1" height="76.687"/>
  <rect x="102.79" y="-106.75" width="1" height="76.687"/>
  <rect x="133.02" y="-106.75" width="1" height="76.687"/>
  <rect x="180.89" y="-106.75" width="1" height="76.687"/>
  <rect x="271.51" y="-106.75" width="1" height="76.687"/>
  <rect x="105.69" y="-106.75" width="1" height="76.687"/>
  <rect x="141" y="-106.75" width="1" height="76.687"/>
  <rect x="153.51" y="-106.75" width="1" height="76.687"/>
  <rect x="113.63" y="-106.75" width="1" height="76.687"/>
  <rect x="110.53" y="-106.75" width="1" height="76.687"/>
  <rect x="101.02" y="-106.75" width="1" height="76.687"/>
  <rect x="114.28" y="-106.75" width="1" height="76.687"/>
  <rect x="113.56" y="-106.75" width="1" height="76.687"/>
  <rect x="110.3" y="-106.75" width="1" height="76.687"/>
  <rect x="113.1" y="-106.75" width="1" height="76.687"/>
  <rect x="139.77" y="-106.75" width="1" height="76.687"/>
  <rect x="161.07" y="-106.75" width="1" height="76.687"/>
  <rect x="172.99" y="-106.75" width="1" height="76.687"/>
  <rect x="110.03" y="-106.75" width="1" height="76.687"/>
  <rect x="129.09" y="-106.75" width="1" height="76.687"/>
  <rect x="154.06" y="-106.75" width="1" height="76.687"/>
  <rect x="649.4" y="-106.75" width="1" height="76.687"/>
  <rect x="111.25" y="-106.75" width="1" height="76.687"/>
  <rect x="150.96" y="-106.75" width="1" height="76.687"/>
  <rect x="171.15" y="-106.75" width="1" height="76.687"/>
  <rect x="404.52" y="-106.75" width="1" height="76.687"/>
  <rect x="189.93" y="-106.75" width="1" height="76.687"/>
  <rect x="159.67" y="-106.75" width="1" height="76.687"/>
  <rect x="137.26" y="-106.75" width="1" height="76.687"/>
  <rect x="104.17" y="-106.75" width="1" height="76.687"/>
  <rect x="168.43" y="-106.75" width="1" height="76.687"/>
  <rect x="100.8" y="-106.75" width="1" height="76.687"/>
  <rect x="148.54" y="-106.75" width="1" height="76.687"/>
  <rect x="110.41" y="-106.75" width="1" height="76.687"/>
  <rect x="106.52" y="-106.75" width="1" height="76.687"/>
  <rect x="187.53" y="-106.75" width="1" height="76.687"/>
  <rect x="121.48" y="-106.75" width="1" height="76.687"/>
  <rect x="106.95" y="-106.75" width="1" height="76.687"/>
  <rect x="101.9" y="-106.75" width="1" height="76.687"/>
  <rect x="131.35" y="-106.75" width="1" height="76.687"/>
  <rect x="109.84" y="-106.75" width="1" height="76.687"/>
  <rect x="198.18" y="-106.75" width="1" height="76.687"/>
  <rect x="277.66" y="-106.75" width="1" height="76.687"/>
  <rect x="101.03" y="-106.75" width="1" height="76.687"/>
  <rect x="106.19" y="-106.75" width="1" height="76.687"/>
  <rect x="172.02" y="-106.75" width="1" height="76.687"/>
  <rect x="104.23" y="-106.75" width="1" height="76.687"/>
  <rect x="107.91" y="-106.75" width="1" height="76.687"/>
  <rect x="847.21" y="-106.75" width="1" height="76.687"/>
  <rect x="126.24" y="-106.75" width="1" height="76.687"/>
  <rect x="100.41" y="-106.75" width="1" height="76.687"/>
  <rect x="1047.6" y="-106.75" width="1" height="76.687"/>
  <rect x="120.4" y="-106.75" width="1" height="76.687"/>
  <rect x="182.32" y="-106.75" width="1" height="76.687"/>
  <rect x="116.13" y="-106.75" width="1" height="76.687"/>
  <rect x="151.64" y="-106.75" width="1" height="76.687"/>
  <rect x="99.228" y="-106.75" width="1" height="76.687"/>
  <rect x="105.12" y="-106.75" width="1" height="76.687"/>
  <rect x="144.07" y="-106.75" width="1" height="76.687"/>
  <rect x="151.02" y="-106.75" width="1" height="76.687"/>
  <rect x="110.21" y="-106.75" width="1" height="76.687"/>
  <rect x="315.67" y="-106.75" width="1" height="76.687"/>
  <rect x="118.68" y="-106.75" width="1" height="76.687"/>
  <rect x="124.62" y="-106.75" width="1" height="76.687"/>
  <rect x="123.99" y="-106.75" width="1" height="76.687"/>
  <rect x="205.38" y="-106.75" width="1" height="76.687"/>
  <rect x="940.65" y="-106.75" width="1" height="76.687"/>
  <rect x="176.51" y="-106.75" width="1" height="76.687"/>
  <rect x="117.11" y="-106.75" width="1" height="76.687"/>
  <rect x="343.13" y="-106.75" width="1" height="76.687"/>
  <rect x="109" y="-106.75" width="1" height="76.687"/>
  <rect x="322.04" y="-106.75" width="1" height="76.687"/>
  <rect x="103.24" y="-106.75" width="1" height="76.687"/>
  <rect x="116.88" y="-106.75" width="1" height="76.687"/>
  <rect x="132.42" y="-106.75" width="1" height="76.687"/>
  <rect x="239.96" y="-106.75" width="1" height="76.687"/>
  <rect x="113.07" y="-106.75" width="1" height="76.687"/>
  <rect x="357.06" y="-106.75" width="1" height="76.687"/>
  <rect x="107.77" y="-106.75" width="1" height="76.687"/>
  <rect x="111.44" y="-106.75" width="1" height="76.687"/>
  <rect x="219.34" y="-106.75" width="1" height="76.687"/>
  <rect x="105.21" y="-106.75" width="1" height="76.687"/>
  <rect x="149.31" y="-106.75" width="1" height="76.687"/>
  <rect x="192.09" y="-106.75" width="1" height="76.687"/>
  <rect x="967.73" y="-106.75" width="1" height="76.687"/>
  <rect x="121.31" y="-106.75" width="1" height="76.687"/>
  <rect x="107.73" y="-106.75" width="1" height="76.687"/>
  <rect x="134.57" y="-106.75" width="1" height="76.687"/>
  <rect x="106.94" y="-106.75" width="1" height="76.687"/>
  <rect x="154.38" y="-106.75" width="1" height="76.687"/>
  <rect x="112.35" y="-106.75" width="1" height="76.687"/>
  <rect x="170.08" y="-106.75" width="1" height="76.687"/>
  <rect x="115.36" y="-106.75" width="1" height="76.687"/>
  <rect x="159.04" y="-106.75" width="1" height="76.687"/>
  <rect x="848.61" y="-106.75" width="1" height="76.687"/>
  <rect x="240.46" y="-106.75" width="1" height="76.687"/>
  <rect x="129.37" y="-106.75" width="1" height="76.687"/>
  <rect x="173.24" y="-106.75" width="1" height="76.687"/>
  <rect x="102.03" y="-106.75" width="1" height="76.687"/>
  <rect x="140.44" y="-106.75" width="1" height="76.687"/>
  <rect x="128.55" y="-106.75" width="1" height="76.687"/>
  <rect x="142.83" y="-106.75" width="1" height="76.687"/>
  <rect x="127.05" y="-106.75" width="1" height="76.687"/>
  <rect x="101.37" y="-106.75" width="1" height="76.687"/>
  <rect x="147.88" y="-106.75" width="1" height="76.687"/>
  <rect x="190.14" y="-106.75" width="1" height="76.687"/>
  <rect x="133.41" y="-106.75" width="1" height="76.687"/>
  <rect x="188.87" y="-106.75" width="1" height="76.687"/>
  <rect x="182.61" y="-106.75" width="1" height="76.687"/>
  <rect x="118.89" y="-106.75" width="1" height="76.687"/>
  <rect x="222.09" y="-106.75" width="1" height="76.687"/>
  <rect x="122.44" y="-106.75" width="1" height="76.687"/>
  <rect x="102.04" y="-106.75" width="1" height="76.687"/>
  <rect x="192.64" y="-106.75" width="1" height="76.687"/>
  <rect x="146.55" y="-106.75" width="1" height="76.687"/>
  <rect x="175.54" y="-106.75" width="1" height="76.687"/>
  <rect x="161.67" y="-106.75" width="1" height="76.687"/>
  <rect x="112.48" y="-106.75" width="1" height="76.687"/>
  <rect x="147.77" y="-106.75" width="1" height="76.687"/>
  <rect x="140.96" y="-106.75" width="1" height="76.687"/>
  <rect x="166.18" y="-106.75" width="1" height="76.687"/>
  <rect x="671.76" y="-106.75" width="1" height="76.687"/>
  <rect x="122.59" y="-106.75" width="1" height="76.687"/>
  <rect x="110.37" y="-106.75" width="1" height="76.687"/>
  <rect x="149.97" y="-106.75" width="1" height="76.687"/>
  <rect x="116.95" y="-106.75" width="1" height="76.687"/>
  <rect x="425.38" y="-106.75" width="1" height="76.687"/>
  <rect x="103.62" y="-106.75" width="1" height="76.687"/>
  <rect x="118.49" y="-106.75" width="1" height="76.687"/>
  <rect x="101.41" y="-106.75" width="1" height="76.687"/>
  <rect x="138.53" y="-106.75" width="1" height="76.687"/>
  <rect x="144.8" y="-106.75" width="1" height="76.687"/>
  <rect x="524.19" y="-106.75" width="1" height="76.687"/>
  <rect x="147.56" y="-106.75" width="1" height="76.687"/>
  <rect x="126.55" y="-106.75" width="1" height="76.687"/>
  <rect x="106.25" y="-106.75" width="1" height="76.687"/>
  <rect x="387.77" y="-106.75" width="1" height="76.687"/>
  <rect x="190.94" y="-106.75" width="1" height="76.687"/>
  <rect x="98.746" y="-106.75" width="1" height="76.687"/>
  <rect x="108.08" y="-106.75" width="1" height="76.687"/>
  <rect x="108.64" y="-106.75" width="1" height="76.687"/>
  <rect x="105.87" y="-106.75" width="1" height="76.687"/>
  <rect x="381.36" y="-106.75" width="1" height="76.687"/>
  <rect x="153.85" y="-106.75" width="1" height="76.687"/>
  <rect x="203.62" y="-106.75" width="1" height="76.687"/>
  <rect x="340.02" y="-106.75" width="1" height="76.687"/>
  <rect x="283.97" y="-106.75" width="1" height="76.687"/>
  <rect x="576.99" y="-106.75" width="1" height="76.687"/>
  <rect x="698.85" y="-106.75" width="1" height="76.687"/>
  <rect x="111.34" y="-106.75" width="1" height="76.687"/>
  <rect x="123.37" y="-106.75" width="1" height="76.687"/>
  <rect x="159.95" y="-106.75" width="1" height="76.687"/>
  <rect x="115.1" y="-106.75" width="1" height="76.687"/>
  <rect x="115.07" y="-106.75" width="1" height="76.687"/>
  <rect x="126.07" y="-106.75" width="1" height="76.687"/>
  <rect x="243.68" y="-106.75" width="1" height="76.687"/>
  <rect x="200.9" y="-106.75" width="1" height="76.687"/>
  <rect x="103.39" y="-106.75" width="1" height="76.687"/>
  <rect x="106.63" y="-106.75" width="1" height="76.687"/>
  <rect x="178.18" y="-106.75" width="1" height="76.687"/>
  <rect x="196.12" y="-106.75" width="1" height="76.687"/>
  <rect x="111.66" y="-106.75" width="1" height="76.687"/>
  <rect x="144.12" y="-106.75" width="1" height="76.687"/>
  <rect x="112.71" y="-106.75" width="1" height="76.687"/>
  <rect x="99.315" y="-106.75" width="1" height="76.687"/>
  <rect x="99.121" y="-106.75" width="1" height="76.687"/>
  <rect x="371.02" y="-106.75" width="1" height="76.687"/>
  <rect x="99.778" y="-106.75" width="1" height="76.687"/>
  <rect x="113.66" y="-106.75" width="1" height="76.687"/>
  <rect x="270.3" y="-106.75" width="1" height="76.687"/>
  <rect x="119.91" y="-106.75" width="1" height="76.687"/>
  <rect x="108.61" y="-106.75" width="1" height="76.687"/>
  <rect x="104.58" y="-106.75" width="1" height="76.687"/>
  <rect x="99.897" y="-106.75" width="1" height="76.687"/>
  <rect x="139.43" y="-106.75" width="1" height="76.687"/>
  <rect x="155.57" y="-106.75" width="1" height="76.687"/>
  <rect x="101.68" y="-106.75" width="1" height="76.687"/>
  <rect x="130.25" y="-106.75" width="1" height="76.687"/>
  <rect x="141.55" y="-106.75" width="1" height="76.687"/>
  <rect x="147.02" y="-106.75" width="1" height="76.687"/>
  <rect x="111.19" y="-106.75" width="1" height="76.687"/>
  <rect x="165.15" y="-106.75" width="1" height="76.687"/>
  <rect x="112.4" y="-106.75" width="1" height="76.687"/>
  <rect x="103.79" y="-106.75" width="1" height="76.687"/>
  <rect x="117.08" y="-106.75" width="1" height="76.687"/>
  <rect x="108.31" y="-106.75" width="1" height="76.687"/>
  <rect x="188.92" y="-106.75" width="1" height="76.687"/>
  <rect x="151.98" y="-106.75" width="1" height="76.687"/>
  <rect x="120.95" y="-106.75" width="1" height="76.687"/>
  <rect x="125.41" y="-106.75" width="1" height="76.687"/>
  <rect x="522.59" y="-106.75" width="1" height="76.687"/>
  <rect x="160.07" y="-106.75" width="1" height="76.687"/>
  <rect x="123.69" y="-106.75" width="1" height="76.687"/>
  <rect x="227.96" y="-106.75" width="1" height="76.687"/>
  <rect x="904.44" y="-106.75" width="1" height="76.687"/>
  <rect x="101.35" y="-106.75" width="1" height="76.687"/>
  <rect x="103.97" y="-106.75" width="1" height="76.687"/>
  <rect x="98.959" y="-106.75" width="1" height="76.687"/>
  <rect x="743.01" y="-106.75" width="1" height="76.687"/>
  <rect x="113.42" y="-106.75" width="1" height="76.687"/>
  <rect x="131.06" y="-106.75" width="1" height="76.687"/>
  <rect x="118.42" y="-106.75" width="1" height="76.687"/>
  <rect x="104.3" y="-106.75" width="1" height="76.687"/>
  <rect x="145.31" y="-106.75" width="1" height="76.687"/>
  <rect x="196.72" y="-106.75" width="1" height="76.687"/>
 </g>
</svg>
