<svg xmlns="http://www.w3.org/2000/svg" width="652" height="652" viewBox="0 0 1000 1000"><rect x="0" y="0" width="1000" height="1000" fill="#181818"></rect><g mask="url(#mask)"><rect x="150" y="150" width="700" height="400" fill="url(#sky)"></rect><rect x="150" y="555" width="700" height="295" fill="url(#river)"></rect><line x1="150" y1="550" x2="150" y2="529.7336474572528" stroke="#181818" stroke-width="8"></line><line x1="162" y1="550" x2="162" y2="492.0162421211771" stroke="#181818" stroke-width="8"></line><line x1="174" y1="550" x2="174" y2="476.41337373468536" stroke="#181818" stroke-width="8"></line><line x1="186" y1="550" x2="186" y2="498.2829651498192" stroke="#181818" stroke-width="8"></line><line x1="198" y1="550" x2="198" y2="529.311547524076" stroke="#181818" stroke-width="8"></line><line x1="210" y1="550" x2="210" y2="488.11710990088784" stroke="#181818" stroke-width="8"></line><line x1="222" y1="550" x2="222" y2="522.7350675750837" stroke="#181818" stroke-width="8"></line><line x1="234" y1="550" x2="234" y2="511.8544132307078" stroke="#181818" stroke-width="8"></line><line x1="246" y1="550" x2="246" y2="356.87778154658076" stroke="#181818" stroke-width="8"></line><line x1="258" y1="550" x2="258" y2="524.5636328188826" stroke="#181818" stroke-width="8"></line><line x1="270" y1="550" x2="270" y2="517.586518782189" stroke="#181818" stroke-width="8"></line><line x1="282" y1="550" x2="282" y2="521.4617844562504" stroke="#181818" stroke-width="8"></line><line x1="294" y1="550" x2="294" y2="527.2523564087562" stroke="#181818" stroke-width="8"></line><line x1="306" y1="550" x2="306" y2="448.1736394239004" stroke="#181818" stroke-width="8"></line><line x1="318" y1="550" x2="318" y2="528.2719057433543" stroke="#181818" stroke-width="8"></line><line x1="330" y1="550" x2="330" y2="515.7836464880081" stroke="#181818" stroke-width="8"></line><line x1="342" y1="550" x2="342" y2="527.8970680584773" stroke="#181818" stroke-width="8"></line><line x1="354" y1="550" x2="354" y2="528.4038868241504" stroke="#181818" stroke-width="8"></line><line x1="366" y1="550" x2="366" y2="525.9228346184192" stroke="#181818" stroke-width="8"></line><line x1="378" y1="550" x2="378" y2="515.1176912942141" stroke="#181818" stroke-width="8"></line><line x1="390" y1="550" x2="390" y2="507.4970827800005" stroke="#181818" stroke-width="8"></line><line x1="402" y1="550" x2="402" y2="486.88497908394606" stroke="#181818" stroke-width="8"></line><line x1="414" y1="550" x2="414" y2="528.5327616053718" stroke="#181818" stroke-width="8"></line><line x1="426" y1="550" x2="426" y2="456.7305218448116" stroke="#181818" stroke-width="8"></line><line x1="438" y1="550" x2="438" y2="518.5616486578028" stroke="#181818" stroke-width="8"></line><line x1="450" y1="550" x2="450" y2="525.3014264728022" stroke="#181818" stroke-width="8"></line><line x1="462" y1="550" x2="462" y2="396.83490756736285" stroke="#181818" stroke-width="8"></line><line x1="474" y1="550" x2="474" y2="507.63290151831046" stroke="#181818" stroke-width="8"></line><line x1="486" y1="550" x2="486" y2="528.0973940112748" stroke="#181818" stroke-width="8"></line><line x1="498" y1="550" x2="498" y2="464.1742939408371" stroke="#181818" stroke-width="8"></line><line x1="510" y1="550" x2="510" y2="497.846608140391" stroke="#181818" stroke-width="8"></line><line x1="522" y1="550" x2="522" y2="513.1916236672106" stroke="#181818" stroke-width="8"></line><line x1="534" y1="550" x2="534" y2="522.7240462149784" stroke="#181818" stroke-width="8"></line><line x1="546" y1="550" x2="546" y2="483.2677778430889" stroke="#181818" stroke-width="8"></line><line x1="558" y1="550" x2="558" y2="485.2220931620024" stroke="#181818" stroke-width="8"></line><line x1="570" y1="550" x2="570" y2="463.47936371834123" stroke="#181818" stroke-width="8"></line><line x1="582" y1="550" x2="582" y2="498.6671355697639" stroke="#181818" stroke-width="8"></line><line x1="594" y1="550" x2="594" y2="508.58405631258813" stroke="#181818" stroke-width="8"></line><line x1="606" y1="550" x2="606" y2="518.7711901280675" stroke="#181818" stroke-width="8"></line><line x1="618" y1="550" x2="618" y2="453.48457327118706" stroke="#181818" stroke-width="8"></line><line x1="630" y1="550" x2="630" y2="494.097859808488" stroke="#181818" stroke-width="8"></line><line x1="642" y1="550" x2="642" y2="528.9519626589631" stroke="#181818" stroke-width="8"></line><line x1="654" y1="550" x2="654" y2="513.4594041600575" stroke="#181818" stroke-width="8"></line><line x1="666" y1="550" x2="666" y2="525.557856542197" stroke="#181818" stroke-width="8"></line><line x1="678" y1="550" x2="678" y2="523.6929975942887" stroke="#181818" stroke-width="8"></line><line x1="690" y1="550" x2="690" y2="525.0782389901285" stroke="#181818" stroke-width="8"></line><line x1="702" y1="550" x2="702" y2="500.45586700875833" stroke="#181818" stroke-width="8"></line><line x1="714" y1="550" x2="714" y2="501.6479101156301" stroke="#181818" stroke-width="8"></line><line x1="726" y1="550" x2="726" y2="527.6337318086903" stroke="#181818" stroke-width="8"></line><line x1="738" y1="550" x2="738" y2="489.7405015646287" stroke="#181818" stroke-width="8"></line><line x1="750" y1="550" x2="750" y2="519.1816662114782" stroke="#181818" stroke-width="8"></line><line x1="762" y1="550" x2="762" y2="523.5530381078055" stroke="#181818" stroke-width="8"></line><line x1="774" y1="550" x2="774" y2="513.6623188130619" stroke="#181818" stroke-width="8"></line><line x1="786" y1="550" x2="786" y2="475.9531249589399" stroke="#181818" stroke-width="8"></line><line x1="798" y1="550" x2="798" y2="455.0903067239433" stroke="#181818" stroke-width="8"></line><line x1="810" y1="550" x2="810" y2="505.1952889022661" stroke="#181818" stroke-width="8"></line><line x1="822" y1="550" x2="822" y2="507.6917180566551" stroke="#181818" stroke-width="8"></line><line x1="834" y1="550" x2="834" y2="521.6835608806672" stroke="#181818" stroke-width="8"></line><line x1="846" y1="550" x2="846" y2="443.1667747590227" stroke="#181818" stroke-width="8"></line><line x1="858" y1="550" x2="858" y2="455.45099868251594" stroke="#181818" stroke-width="8"></line></g><defs><linearGradient id="sky" gradientTransform="rotate(90)"><stop offset="0" stop-color="#f58b10"></stop><stop offset="0.5" stop-color="#d21263"></stop><stop offset="0.75" stop-color="#940c5e"></stop><stop offset="1" stop-color="#25226c"></stop></linearGradient><linearGradient id="river" gradientTransform="rotate(90)"><stop offset="0.1" stop-color="#80e5ff23"></stop><stop offset="1" stop-color="#70b566"></stop></linearGradient><radialGradient id="radialGrad"><stop offset="0.5" stop-color="#fff"></stop><stop offset="1" stop-color="#fff" stop-opacity="0.2"></stop></radialGradient><linearGradient id="strokeGrad" gradientTransform="rotate(45)"><stop offset="0" stop-color="#eee"></stop><stop offset="1" stop-color="#eee" stop-opacity="0.1"></stop></linearGradient></defs><mask id="mask"><circle cx="500" cy="500" r="325" fill="url(#radialGrad)"></circle></mask><circle cx="500" cy="500" r="345" fill="none" stroke="url(#strokeGrad)" stroke-width="2.5"></circle></svg>