<svg xmlns="http://www.w3.org/2000/svg" width="565" height="565" viewBox="0 0 1000 1000"><path fill="#181818" d="M0 0h1000v1000H0z"/><g fill="none"><path stroke="hsl(197 80% 80% / 0.8)" d="M190.2 252.7c-11-100 239-100 300 0s339 100 300-50"/><path stroke="hsl(196.56 80% 80% / 0.8)" d="M190.2 257.7c-8-100 242-100 300 0s342 100 300-50"/><path stroke="hsl(196.24 80% 80% / 0.8)" d="M190.2 262.7c-5-100 245-100 300 0s345 100 300-50"/><path stroke="hsl(196.04000000000002 80% 80% / 0.8)" d="M190.2 267.7c-2-100 248-100 300 0s348 100 300-50"/><path stroke="hsl(195.96 80% 80% / 0.8)" d="M190.2 272.7c1-100 251-100 300 0s351 100 300-50"/><path stroke="hsl(196 80% 80% / 0.8)" d="M190.2 277.7c3-100 253-100 300 0s353 100 300-50"/><path stroke="hsl(196.12 80% 80% / 0.8)" d="M190.2 282.7c4-100 254-100 300 0s354 100 300-50"/><path stroke="hsl(196.28 80% 80% / 0.8)" d="M190.2 287.7c4-100 254-100 300 0s354 100 300-50"/><path stroke="hsl(196.44 80% 80% / 0.8)" d="M190.2 292.7c4-100 254-100 300 0s354 100 300-50"/><path stroke="hsl(196.6 80% 80% / 0.8)" d="M190.2 297.7c2-100 252-100 300 0s352 100 300-50"/><path stroke="hsl(196.68 80% 80% / 0.8)" d="M190.2 302.7c0-100 250-100 300 0s350 100 300-50"/><path stroke="hsl(196.68 80% 80% / 0.8)" d="M190.2 307.7c-2-100 248-100 300 0s348 100 300-50"/><path stroke="hsl(196.6 80% 80% / 0.8)" d="M190.2 312.7c-6-100 244-100 300 0s344 100 300-50"/><path stroke="hsl(196.35999999999999 80% 80% / 0.8)" d="M190.2 317.7c-11-100 239-100 300 0s339 100 300-50"/><path stroke="hsl(195.92 80% 80% / 0.8)" d="M190.2 322.7c-17-100 233-100 300 0s333 100 300-50"/><path stroke="hsl(195.23999999999998 80% 80% / 0.8)" d="M190.2 327.7c-25-100 225-100 300 0s325 100 300-50"/><path stroke="hsl(194.23999999999998 80% 80% / 0.8)" d="M190.2 332.7c-33-100 217-100 300 0s317 100 300-50"/><path stroke="hsl(192.92 80% 80% / 0.8)" d="M190.2 337.7c-42-100 208-100 300 0s308 100 300-50"/><path stroke="hsl(191.23999999999998 80% 80% / 0.8)" d="M190.2 342.7c-50-100 200-100 300 0s300 100 300-50"/><path stroke="hsl(189.23999999999998 80% 80% / 0.8)" d="M190.2 347.7c-56-100 194-100 300 0s294 100 300-50"/><path stroke="hsl(186.99999999999997 80% 80% / 0.8)" d="M190.2 352.7c-61-100 189-100 300 0s289 100 300-50"/><path stroke="hsl(184.55999999999997 80% 80% / 0.8)" d="M190.2 357.7c-63-100 187-100 300 0s287 100 300-50"/><path stroke="hsl(182.03999999999996 80% 80% / 0.8)" d="M190.2 362.7c-63-100 187-100 300 0s287 100 300-50"/><path stroke="hsl(179.51999999999995 80% 80% / 0.8)" d="M190.2 367.7c-60-100 190-100 300 0s290 100 300-50"/><path stroke="hsl(177.11999999999995 80% 80% / 0.8)" d="M190.2 372.7c-55-100 195-100 300 0s295 100 300-50"/><path stroke="hsl(174.91999999999996 80% 80% / 0.8)" d="M190.2 377.7c-48-100 202-100 300 0s302 100 300-50"/><path stroke="hsl(172.99999999999997 80% 80% / 0.8)" d="M190.2 382.7c-40-100 210-100 300 0s310 100 300-50"/><path stroke="hsl(171.39999999999998 80% 80% / 0.8)" d="M190.2 387.7c-30-100 220-100 300 0s320 100 300-50"/><path stroke="hsl(170.2 80% 80% / 0.8)" d="M190.2 392.7c-20-100 230-100 300 0s330 100 300-50"/><path stroke="hsl(169.39999999999998 80% 80% / 0.8)" d="M190.2 397.7c-10-100 240-100 300 0s340 100 300-50"/><path stroke="hsl(168.99999999999997 80% 80% / 0.8)" d="M190.2 402.7c0-100 250-100 300 0s350 100 300-50"/><path stroke="hsl(168.99999999999997 80% 80% / 0.8)" d="M190.2 407.7c10-100 260-100 300 0s360 100 300-50"/><path stroke="hsl(169.39999999999998 80% 80% / 0.8)" d="M190.2 412.7c21-100 271-100 300 0s371 100 300-50"/><path stroke="hsl(170.23999999999998 80% 80% / 0.8)" d="M190.2 417.7c34-100 284-100 300 0s384 100 300-50"/><path stroke="hsl(171.6 80% 80% / 0.8)" d="M190.2 422.7c48-100 298-100 300 0s398 100 300-50"/><path stroke="hsl(173.51999999999998 80% 80% / 0.8)" d="M190.2 427.7c62-100 312-100 300 0s412 100 300-50"/><path stroke="hsl(175.99999999999997 80% 80% / 0.8)" d="M190.2 432.7c76-100 326-100 300 0s426 100 300-50"/><path stroke="hsl(179.03999999999996 80% 80% / 0.8)" d="M190.2 437.7c88-100 338-100 300 0s438 100 300-50"/><path stroke="hsl(182.55999999999997 80% 80% / 0.8)" d="M190.2 442.7c97-100 347-100 300 0s447 100 300-50"/><path stroke="hsl(186.43999999999997 80% 80% / 0.8)" d="M190.2 447.7c103-100 353-100 300 0s453 100 300-50"/><path stroke="hsl(190.55999999999997 80% 80% / 0.8)" d="M190.2 452.7c106-100 356-100 300 0s456 100 300-50"/><path stroke="hsl(194.79999999999998 80% 80% / 0.8)" d="M190.2 457.7c105-100 355-100 300 0s455 100 300-50"/><path stroke="hsl(198.99999999999997 80% 80% / 0.8)" d="M190.2 462.7c99-100 349-100 300 0s449 100 300-50"/><path stroke="hsl(202.95999999999998 80% 80% / 0.8)" d="M190.2 467.7c91-100 341-100 300 0s441 100 300-50"/><path stroke="hsl(206.59999999999997 80% 80% / 0.8)" d="M190.2 472.7c79-100 329-100 300 0s429 100 300-50"/><path stroke="hsl(209.75999999999996 80% 80% / 0.8)" d="M190.2 477.7c66-100 316-100 300 0s416 100 300-50"/><path stroke="hsl(212.39999999999995 80% 80% / 0.8)" d="M190.2 482.7c52-100 302-100 300 0s402 100 300-50"/><path stroke="hsl(214.47999999999996 80% 80% / 0.8)" d="M190.2 487.7c37-100 287-100 300 0s387 100 300-50"/><path stroke="hsl(215.95999999999995 80% 80% / 0.8)" d="M190.2 492.7c24-100 274-100 300 0s374 100 300-50"/><path stroke="hsl(216.91999999999996 80% 80% / 0.8)" d="M190.2 497.7c12-100 262-100 300 0s362 100 300-50"/><path stroke="hsl(217.39999999999995 80% 80% / 0.8)" d="M190.2 502.7c0-100 250-100 300 0s350 100 300-50"/><path stroke="hsl(217.39999999999995 80% 80% / 0.8)" d="M190.2 507.7c-11-100 239-100 300 0s339 100 300-50"/><path stroke="hsl(216.95999999999995 80% 80% / 0.8)" d="M190.2 512.7c-21-100 229-100 300 0s329 100 300-50"/><path stroke="hsl(216.11999999999995 80% 80% / 0.8)" d="M190.2 517.7c-30-100 220-100 300 0s320 100 300-50"/><path stroke="hsl(214.91999999999996 80% 80% / 0.8)" d="M190.2 522.7c-36-100 214-100 300 0s314 100 300-50"/><path stroke="hsl(213.47999999999996 80% 80% / 0.8)" d="M190.2 527.7c-40-100 210-100 300 0s310 100 300-50"/><path stroke="hsl(211.87999999999997 80% 80% / 0.8)" d="M190.2 532.7c-41-100 209-100 300 0s309 100 300-50"/><path stroke="hsl(210.23999999999998 80% 80% / 0.8)" d="M190.2 537.7c-40-100 210-100 300 0s310 100 300-50"/><path stroke="hsl(208.64 80% 80% / 0.8)" d="M190.2 542.7c-37-100 213-100 300 0s313 100 300-50"/><path stroke="hsl(207.16 80% 80% / 0.8)" d="M190.2 547.7c-31-100 219-100 300 0s319 100 300-50"/><path stroke="hsl(205.92 80% 80% / 0.8)" d="M190.2 552.7c-24-100 226-100 300 0s326 100 300-50"/><path stroke="hsl(204.95999999999998 80% 80% / 0.8)" d="M190.2 557.7c-16-100 234-100 300 0s334 100 300-50"/><path stroke="hsl(204.32 80% 80% / 0.8)" d="M190.2 562.7c-8-100 242-100 300 0s342 100 300-50"/><path stroke="hsl(204 80% 80% / 0.8)" d="M190.2 567.7c0-100 250-100 300 0s350 100 300-50"/><path stroke="hsl(204 80% 80% / 0.8)" d="M190.2 572.7c7-100 257-100 300 0s357 100 300-50"/><path stroke="hsl(204.28 80% 80% / 0.8)" d="M190.2 577.7c11-100 261-100 300 0s361 100 300-50"/><path stroke="hsl(204.72 80% 80% / 0.8)" d="M190.2 582.7c14-100 264-100 300 0s364 100 300-50"/><path stroke="hsl(205.28 80% 80% / 0.8)" d="M190.2 587.7c14-100 264-100 300 0s364 100 300-50"/><path stroke="hsl(205.84 80% 80% / 0.8)" d="M190.2 592.7c11-100 261-100 300 0s361 100 300-50"/><path stroke="hsl(206.28 80% 80% / 0.8)" d="M190.2 597.7c6-100 256-100 300 0s356 100 300-50"/><path stroke="hsl(206.52 80% 80% / 0.8)" d="M190.2 602.7c0-100 250-100 300 0s350 100 300-50"/><path stroke="hsl(206.52 80% 80% / 0.8)" d="M190.2 607.7c-6-100 244-100 300 0s344 100 300-50"/><path stroke="hsl(206.28 80% 80% / 0.8)" d="M190.2 612.7c-13-100 237-100 300 0s337 100 300-50"/><path stroke="hsl(205.76 80% 80% / 0.8)" d="M190.2 617.7c-19-100 231-100 300 0s331 100 300-50"/><path stroke="hsl(205 80% 80% / 0.8)" d="M190.2 622.7c-24-100 226-100 300 0s326 100 300-50"/><path stroke="hsl(204.04 80% 80% / 0.8)" d="M190.2 627.7c-29-100 221-100 300 0s321 100 300-50"/><path stroke="hsl(202.88 80% 80% / 0.8)" d="M190.2 632.7c-33-100 217-100 300 0s317 100 300-50"/><path stroke="hsl(201.56 80% 80% / 0.8)" d="M190.2 637.7c-35-100 215-100 300 0s315 100 300-50"/><path stroke="hsl(200.16 80% 80% / 0.8)" d="M190.2 642.7c-36-100 214-100 300 0s314 100 300-50"/><path stroke="hsl(198.72 80% 80% / 0.8)" d="M190.2 647.7c-35-100 215-100 300 0s315 100 300-50"/><path stroke="hsl(197.32 80% 80% / 0.8)" d="M190.2 652.7c-33-100 217-100 300 0s317 100 300-50"/><path stroke="hsl(196 80% 80% / 0.8)" d="M190.2 657.7c-30-100 220-100 300 0s320 100 300-50"/><path stroke="hsl(194.8 80% 80% / 0.8)" d="M190.2 662.7c-26-100 224-100 300 0s324 100 300-50"/><path stroke="hsl(193.76000000000002 80% 80% / 0.8)" d="M190.2 667.7c-21-100 229-100 300 0s329 100 300-50"/><path stroke="hsl(192.92000000000002 80% 80% / 0.8)" d="M190.2 672.7c-16-100 234-100 300 0s334 100 300-50"/><path stroke="hsl(192.28000000000003 80% 80% / 0.8)" d="M190.2 677.7c-11-100 239-100 300 0s339 100 300-50"/><path stroke="hsl(191.84000000000003 80% 80% / 0.8)" d="M190.2 682.7c-7-100 243-100 300 0s343 100 300-50"/><path stroke="hsl(191.56000000000003 80% 80% / 0.8)" d="M190.2 687.7c-3-100 247-100 300 0s347 100 300-50"/><path stroke="hsl(191.44000000000003 80% 80% / 0.8)" d="M190.2 692.7c-1-100 249-100 300 0s349 100 300-50"/><path stroke="hsl(191.40000000000003 80% 80% / 0.8)" d="M190.2 697.7c0-100 250-100 300 0s350 100 300-50"/><path stroke="hsl(191.40000000000003 80% 80% / 0.8)" d="M190.2 702.7c0-100 250-100 300 0s350 100 300-50"/><path stroke="hsl(191.40000000000003 80% 80% / 0.8)" d="M190.2 707.7c0-100 250-100 300 0s350 100 300-50"/><path stroke="hsl(191.40000000000003 80% 80% / 0.8)" d="M190.2 712.7c-1-100 249-100 300 0s349 100 300-50"/><path stroke="hsl(191.36000000000004 80% 80% / 0.8)" d="M190.2 717.7c-3-100 247-100 300 0s347 100 300-50"/><path stroke="hsl(191.24000000000004 80% 80% / 0.8)" d="M190.2 722.7c-7-100 243-100 300 0s343 100 300-50"/><path stroke="hsl(190.96000000000004 80% 80% / 0.8)" d="M190.2 727.7c-11-100 239-100 300 0s339 100 300-50"/><path stroke="hsl(190.52000000000004 80% 80% / 0.8)" d="M190.2 732.7c-17-100 233-100 300 0s333 100 300-50"/><path stroke="hsl(189.84000000000003 80% 80% / 0.8)" d="M190.2 737.7c-23-100 227-100 300 0s327 100 300-50"/><path stroke="hsl(188.92000000000004 80% 80% / 0.8)" d="M190.2 742.7c-29-100 221-100 300 0s321 100 300-50"/><path stroke="hsl(187.76000000000005 80% 80% / 0.8)" d="M190.2 747.7c-34-100 216-100 300 0s316 100 300-50"/><path stroke="hsl(186.40000000000003 80% 80% / 0.8)" d="M190.2 752.7c-38-100 212-100 300 0s312 100 300-50"/></g><circle cx="242" cy="392" r="22" fill="hsl(0 0% 100% / 0.1)" stroke="#888"/><circle cx="121.3" cy="230" r="40" fill="hsl(0 0% 100% / 0.1)" stroke="#888"/><circle cx="842" cy="836" r="40" fill="hsl(0 0% 100% / 0.1)" stroke="#888"/><circle cx="168.3" cy="531" r="7" fill="hsl(0 0% 100% / 0.1)" stroke="#888"/><circle cx="332" cy="271" r="19" fill="hsl(0 0% 100% / 0.1)" stroke="#888"/><circle cx="786" cy="721" r="24" fill="hsl(0 0% 100% / 0.1)" stroke="#888"/><circle cx="770" cy="637" r="18" fill="hsl(0 0% 100% / 0.1)" stroke="#888"/><circle cx="270" cy="759" r="50" fill="hsl(0 0% 100% / 0.1)" stroke="#888"/><circle cx="689.5" cy="248" r="42" fill="hsl(0 0% 100% / 0.1)" stroke="#888"/><circle cx="590" cy="810" r="14" fill="hsl(0 0% 100% / 0.1)" stroke="#888"/><circle cx="426" cy="559" r="35" fill="hsl(0 0% 100% / 0.1)" stroke="#888"/><circle cx="500" cy="161" r="29" fill="hsl(0 0% 100% / 0.1)" stroke="#888"/></svg>