<svg xmlns="http://www.w3.org/2000/svg" width="565" height="565" viewBox="0 0 1000 1000"><style>
  #slinky path {
    fill: none;
    stroke-width: 0.7;
    stroke-linecap: round;
  }</style><rect x="0" y="0" width="1000" height="1000" fill="#181818"></rect><g id="slinky" transform="translate(200 328.75)"><path stroke="hsl(179 90% 80% / 0.85)" d="M 0 0 q 213 -400 600 0"></path><path stroke="hsl(180.5 90% 80% / 0.85)" d="M 0 5 q 225 -395 600 0"></path><path stroke="hsl(182 90% 80% / 0.85)" d="M 0 10 q 347 -390 600 0"></path><path stroke="hsl(183.5 90% 80% / 0.85)" d="M 0 15 q 246 -385 600 0"></path><path stroke="hsl(185 90% 80% / 0.85)" d="M 0 20 q 294 -380 600 0"></path><path stroke="hsl(186.5 90% 80% / 0.85)" d="M 0 25 q 250 -375 600 0"></path><path stroke="hsl(188 90% 80% / 0.85)" d="M 0 30 q 228 -370 600 0"></path><path stroke="hsl(189.5 90% 80% / 0.85)" d="M 0 35 q 230 -365 600 0"></path><path stroke="hsl(191 90% 80% / 0.85)" d="M 0 40 q 221 -360 600 0"></path><path stroke="hsl(192.5 90% 80% / 0.85)" d="M 0 45 q 333 -355 600 0"></path><path stroke="hsl(194 90% 80% / 0.85)" d="M 0 50 q 313 -350 600 0"></path><path stroke="hsl(195.5 90% 80% / 0.85)" d="M 0 55 q 374 -345 600 0"></path><path stroke="hsl(197 90% 80% / 0.85)" d="M 0 60 q 326 -340 600 0"></path><path stroke="hsl(198.5 90% 80% / 0.85)" d="M 0 65 q 290 -335 600 0"></path><path stroke="hsl(200 90% 80% / 0.85)" d="M 0 70 q 247 -330 600 0"></path><path stroke="hsl(201.5 90% 80% / 0.85)" d="M 0 75 q 355 -325 600 0"></path><path stroke="hsl(203 90% 80% / 0.85)" d="M 0 80 q 269 -320 600 0"></path><path stroke="hsl(204.5 90% 80% / 0.85)" d="M 0 85 q 262 -315 600 0"></path><path stroke="hsl(206 90% 80% / 0.85)" d="M 0 90 q 326 -310 600 0"></path><path stroke="hsl(207.5 90% 80% / 0.85)" d="M 0 95 q 269 -305 600 0"></path><path stroke="hsl(209 90% 80% / 0.85)" d="M 0 100 q 317 -300 600 0"></path><path stroke="hsl(210.5 90% 80% / 0.85)" d="M 0 105 q 312 -295 600 0"></path><path stroke="hsl(212 90% 80% / 0.85)" d="M 0 110 q 372 -290 600 0"></path><path stroke="hsl(213.5 90% 80% / 0.85)" d="M 0 115 q 201 -285 600 0"></path><path stroke="hsl(215 90% 80% / 0.85)" d="M 0 120 q 314 -280 600 0"></path><path stroke="hsl(216.5 90% 80% / 0.85)" d="M 0 125 q 253 -275 600 0"></path><path stroke="hsl(218 90% 80% / 0.85)" d="M 0 130 q 383 -270 600 0"></path><path stroke="hsl(219.5 90% 80% / 0.85)" d="M 0 135 q 212 -265 600 0"></path><path stroke="hsl(221 90% 80% / 0.85)" d="M 0 140 q 309 -260 600 0"></path><path stroke="hsl(222.5 90% 80% / 0.85)" d="M 0 145 q 343 -255 600 0"></path><path stroke="hsl(224 90% 80% / 0.85)" d="M 0 150 q 393 -250 600 0"></path><path stroke="hsl(225.5 90% 80% / 0.85)" d="M 0 155 q 218 -245 600 0"></path><path stroke="hsl(227 90% 80% / 0.85)" d="M 0 160 q 258 -240 600 0"></path><path stroke="hsl(228.5 90% 80% / 0.85)" d="M 0 165 q 207 -235 600 0"></path><path stroke="hsl(230 90% 80% / 0.85)" d="M 0 170 q 304 -230 600 0"></path><path stroke="hsl(231.5 90% 80% / 0.85)" d="M 0 175 q 257 -225 600 0"></path><path stroke="hsl(233 90% 80% / 0.85)" d="M 0 180 q 261 -220 600 0"></path><path stroke="hsl(234.5 90% 80% / 0.85)" d="M 0 185 q 230 -215 600 0"></path><path stroke="hsl(236 90% 80% / 0.85)" d="M 0 190 q 322 -210 600 0"></path><path stroke="hsl(237.5 90% 80% / 0.85)" d="M 0 195 q 361 -205 600 0"></path><path stroke="hsl(239 90% 80% / 0.85)" d="M 0 200 q 302 -200 600 0"></path><path stroke="hsl(240.5 90% 80% / 0.85)" d="M 0 205 q 388 -195 600 0"></path><path stroke="hsl(242 90% 80% / 0.85)" d="M 0 210 q 337 -190 600 0"></path><path stroke="hsl(243.5 90% 80% / 0.85)" d="M 0 215 q 386 -185 600 0"></path><path stroke="hsl(245 90% 80% / 0.85)" d="M 0 220 q 363 -180 600 0"></path><path stroke="hsl(246.5 90% 80% / 0.85)" d="M 0 225 q 238 -175 600 0"></path><path stroke="hsl(248 90% 80% / 0.85)" d="M 0 230 q 364 -170 600 0"></path><path stroke="hsl(249.5 90% 80% / 0.85)" d="M 0 235 q 202 -165 600 0"></path><path stroke="hsl(251 90% 80% / 0.85)" d="M 0 240 q 256 -160 600 0"></path><path stroke="hsl(252.5 90% 80% / 0.85)" d="M 0 245 q 209 -155 600 0"></path><path stroke="hsl(254 90% 80% / 0.85)" d="M 0 250 q 348 -150 600 0"></path><path stroke="hsl(255.5 90% 80% / 0.85)" d="M 0 255 q 348 -145 600 0"></path><path stroke="hsl(257 90% 80% / 0.85)" d="M 0 260 q 356 -140 600 0"></path><path stroke="hsl(258.5 90% 80% / 0.85)" d="M 0 265 q 341 -135 600 0"></path><path stroke="hsl(260 90% 80% / 0.85)" d="M 0 270 q 296 -130 600 0"></path><path stroke="hsl(261.5 90% 80% / 0.85)" d="M 0 275 q 219 -125 600 0"></path><path stroke="hsl(263 90% 80% / 0.85)" d="M 0 280 q 224 -120 600 0"></path><path stroke="hsl(264.5 90% 80% / 0.85)" d="M 0 285 q 231 -115 600 0"></path><path stroke="hsl(266 90% 80% / 0.85)" d="M 0 290 q 379 -110 600 0"></path><path stroke="hsl(267.5 90% 80% / 0.85)" d="M 0 295 q 302 -105 600 0"></path><path stroke="hsl(269 90% 80% / 0.85)" d="M 0 300 q 301 -100 600 0"></path><path stroke="hsl(270.5 90% 80% / 0.85)" d="M 0 305 q 266 -95 600 0"></path><path stroke="hsl(272 90% 80% / 0.85)" d="M 0 310 q 334 -90 600 0"></path><path stroke="hsl(273.5 90% 80% / 0.85)" d="M 0 315 q 323 -85 600 0"></path><path stroke="hsl(275 90% 80% / 0.85)" d="M 0 320 q 321 -80 600 0"></path><path stroke="hsl(276.5 90% 80% / 0.85)" d="M 0 325 q 331 -75 600 0"></path><path stroke="hsl(278 90% 80% / 0.85)" d="M 0 330 q 310 -70 600 0"></path><path stroke="hsl(279.5 90% 80% / 0.85)" d="M 0 335 q 256 -65 600 0"></path><path stroke="hsl(281 90% 80% / 0.85)" d="M 0 340 q 201 -60 600 0"></path><path stroke="hsl(282.5 90% 80% / 0.85)" d="M 0 345 q 241 -55 600 0"></path><path stroke="hsl(284 90% 80% / 0.85)" d="M 0 350 q 200 -50 600 0"></path><path stroke="hsl(285.5 90% 80% / 0.85)" d="M 0 355 q 247 -45 600 0"></path><path stroke="hsl(287 90% 80% / 0.85)" d="M 0 360 q 343 -40 600 0"></path><path stroke="hsl(288.5 90% 80% / 0.85)" d="M 0 365 q 340 -35 600 0"></path><path stroke="hsl(290 90% 80% / 0.85)" d="M 0 370 q 211 -30 600 0"></path><path stroke="hsl(291.5 90% 80% / 0.85)" d="M 0 375 q 284 -25 600 0"></path><path stroke="hsl(293 90% 80% / 0.85)" d="M 0 380 q 212 -20 600 0"></path><path stroke="hsl(294.5 90% 80% / 0.85)" d="M 0 385 q 283 -15 600 0"></path><path stroke="hsl(296 90% 80% / 0.85)" d="M 0 390 q 249 -10 600 0"></path><path stroke="hsl(297.5 90% 80% / 0.85)" d="M 0 395 q 245 -5 600 0"></path><path stroke="hsl(299 90% 80% / 0.85)" d="M 0 400 q 343 0 600 0"></path><path stroke="hsl(300.5 90% 80% / 0.85)" d="M 0 405 q 384 5 600 0"></path><path stroke="hsl(302 90% 80% / 0.85)" d="M 0 410 q 356 10 600 0"></path><path stroke="hsl(303.5 90% 80% / 0.85)" d="M 0 415 q 248 15 600 0"></path><path stroke="hsl(305 90% 80% / 0.85)" d="M 0 420 q 287 20 600 0"></path><path stroke="hsl(306.5 90% 80% / 0.85)" d="M 0 425 q 313 25 600 0"></path><path stroke="hsl(308 90% 80% / 0.85)" d="M 0 430 q 243 30 600 0"></path><path stroke="hsl(309.5 90% 80% / 0.85)" d="M 0 435 q 386 35 600 0"></path><path stroke="hsl(311 90% 80% / 0.85)" d="M 0 440 q 231 40 600 0"></path><path stroke="hsl(312.5 90% 80% / 0.85)" d="M 0 445 q 202 45 600 0"></path><path stroke="hsl(314 90% 80% / 0.85)" d="M 0 450 q 271 50 600 0"></path><path stroke="hsl(315.5 90% 80% / 0.85)" d="M 0 455 q 358 55 600 0"></path><path stroke="hsl(317 90% 80% / 0.85)" d="M 0 460 q 209 60 600 0"></path><path stroke="hsl(318.5 90% 80% / 0.85)" d="M 0 465 q 229 65 600 0"></path><path stroke="hsl(320 90% 80% / 0.85)" d="M 0 470 q 363 70 600 0"></path><path stroke="hsl(321.5 90% 80% / 0.85)" d="M 0 475 q 294 75 600 0"></path><path stroke="hsl(323 90% 80% / 0.85)" d="M 0 480 q 308 80 600 0"></path><path stroke="hsl(324.5 90% 80% / 0.85)" d="M 0 485 q 337 85 600 0"></path><path stroke="hsl(326 90% 80% / 0.85)" d="M 0 490 q 230 90 600 0"></path><path stroke="hsl(327.5 90% 80% / 0.85)" d="M 0 495 q 289 95 600 0"></path></g></svg>