<?xml version="1.0" encoding="UTF-8" standalone="no"?>
<svg
   width="500"
   height="400"
   viewBox="0 0 500 400"
   version="1.1"
   id="svg8"
   xmlns="http://www.w3.org/2000/svg"
   xmlns:svg="http://www.w3.org/2000/svg"
   xmlns:rdf="http://www.w3.org/1999/02/22-rdf-syntax-ns#"
   xmlns:cc="http://creativecommons.org/ns#"
   xmlns:dc="http://purl.org/dc/elements/1.1/">
  <defs
     id="defs2">
    <marker
       style="overflow:visible"
       id="marker8209"
       refX="0"
       refY="0"
       orient="auto-start-reverse"
       markerWidth="5.3244081"
       markerHeight="6.155385"
       viewBox="0 0 5.3244081 6.1553851"
       preserveAspectRatio="xMidYMid">
      <path
         transform="scale(0.5)"
         style="fill:context-stroke;fill-rule:evenodd;stroke:context-stroke;stroke-width:1pt"
         d="M 5.77,0 -2.88,5 V -5 Z"
         id="path8207" />
    </marker>
    <marker
       style="overflow:visible"
       id="marker7921"
       refX="0"
       refY="0"
       orient="auto-start-reverse"
       markerWidth="5.3244081"
       markerHeight="6.155385"
       viewBox="0 0 5.3244081 6.1553851"
       preserveAspectRatio="xMidYMid">
      <path
         transform="scale(0.5)"
         style="fill:context-stroke;fill-rule:evenodd;stroke:context-stroke;stroke-width:1pt"
         d="M 5.77,0 -2.88,5 V -5 Z"
         id="path7919" />
    </marker>
    <marker
       style="overflow:visible"
       id="marker3003"
       refX="0"
       refY="0"
       orient="auto-start-reverse"
       markerWidth="5.3244081"
       markerHeight="6.155385"
       viewBox="0 0 5.3244081 6.1553851"
       preserveAspectRatio="xMidYMid">
      <path
         transform="scale(0.5)"
         style="fill:context-stroke;fill-rule:evenodd;stroke:context-stroke;stroke-width:1pt"
         d="M 5.77,0 -2.88,5 V -5 Z"
         id="path3001" />
    </marker>
    <marker
       style="overflow:visible"
       id="marker2247"
       refX="0"
       refY="0"
       orient="auto-start-reverse"
       markerWidth="5.3244081"
       markerHeight="6.155385"
       viewBox="0 0 5.3244081 6.1553851"
       preserveAspectRatio="xMidYMid">
      <path
         transform="scale(0.5)"
         style="fill:context-stroke;fill-rule:evenodd;stroke:context-stroke;stroke-width:1pt"
         d="M 5.77,0 -2.88,5 V -5 Z"
         id="path2245" />
    </marker>
  </defs>
  <metadata
     id="metadata5">
    <rdf:RDF>
      <cc:Work
         rdf:about="">
        <dc:format>image/svg+xml</dc:format>
        <dc:type
           rdf:resource="http://purl.org/dc/dcmitype/StillImage" />
      </cc:Work>
    </rdf:RDF>
  </metadata>
  <rect
     style="fill:#181818;stroke:none;stroke-width:0.525543"
     id="rect239"
     width="500"
     height="400"
     x="0"
     y="0" />
  <path
     style="fill:#bc5fd3;fill-opacity:1;stroke:none;stroke-width:2;stroke-linecap:round;paint-order:markers stroke fill"
     id="path407"
     d="m 215.30344,45.910289 -3.19904,-5.540897 -3.19904,-5.540897 6.39808,0 6.39807,0 -3.19904,5.540897 z"
     transform="matrix(0,0.85050855,0.85050855,0,215.66549,-104.14829)" />
  <path
     style="fill:#ffdd55;fill-opacity:1;stroke:none;stroke-width:2;stroke-linecap:round;paint-order:markers stroke fill"
     id="path1372"
     d="m 215.30344,45.910289 -3.19904,-5.540897 -3.19904,-5.540897 6.39808,0 6.39807,0 -3.19904,5.540897 z"
     transform="matrix(0,0.85050855,0.85050855,0,215.66549,-23.960598)" />
  <path
     style="fill:#99ff55;fill-opacity:1;stroke:none;stroke-width:2;stroke-linecap:round;paint-order:markers stroke fill"
     id="path1674"
     d="m 215.30344,45.910289 -3.19904,-5.540897 -3.19904,-5.540897 6.39808,0 6.39807,0 -3.19904,5.540897 z"
     transform="matrix(0,0.85050855,-0.85050855,0,284.33451,56.931007)" />
  <path
     style="fill:#5fbcd3;fill-opacity:1;stroke:none;stroke-width:2;stroke-linecap:round;paint-order:markers stroke fill"
     id="path1676"
     d="m 215.30344,45.910289 -3.19904,-5.540897 -3.19904,-5.540897 6.39808,0 6.39807,0 -3.19904,5.540897 z"
     transform="matrix(0,0.85050855,-0.85050855,0,284.33451,137.91347)" />
  <path
     style="fill:none;fill-opacity:1;stroke:#99ff55;stroke-width:2.28595;stroke-linecap:round;stroke-opacity:1;paint-order:markers stroke fill"
     id="path2211"
     d="M 394.22734,199.58206 A 166.53938,80.965996 0 0 1 250,240.06506 166.53938,80.965996 0 0 1 105.77266,199.58206" />
  <path
     style="fill:none;fill-opacity:1;stroke:#bc5fd3;stroke-width:2.28595;stroke-linecap:round;stroke-opacity:1;paint-order:markers stroke fill"
     id="path2565"
     d="m 105.77266,200.41812 a 166.53938,80.965996 0 0 1 37.17789,-102.506552 166.53938,80.965996 0 0 1 214.0989,10e-7 166.53938,80.965996 0 0 1 37.17789,102.506551" />
  <path
     style="fill:none;fill-opacity:1;stroke:#ffdd55;stroke-width:2.28595;stroke-linecap:round;stroke-opacity:1;paint-order:markers stroke fill"
     id="path2619"
     d="M 394.22734,-199.58207 A 166.53938,80.965996 0 0 1 250,-159.09907 a 166.53938,80.965996 0 0 1 -144.22734,-40.483"
     transform="scale(1,-1)" />
  <path
     style="fill:none;fill-opacity:1;stroke:#5fbcd3;stroke-width:2.28595;stroke-linecap:round;stroke-opacity:1;paint-order:markers stroke fill"
     id="path2621"
     d="m 105.77266,-199.58207 a 166.53938,80.965996 0 0 1 37.17789,-102.50655 166.53938,80.965996 0 0 1 214.0989,10e-6 166.53938,80.965996 0 0 1 37.17789,102.50654"
     transform="scale(1,-1)" />
  <rect
     style="fill:#181818;stroke:none;stroke-width:2.10864;stroke-linecap:round;paint-order:markers stroke fill;fill-opacity:1"
     id="rect613"
     width="6.507"
     height="6.507"
     x="-78.826935"
     y="209.75351"
     transform="rotate(-47.296452)" />
  <rect
     style="fill:#181818;stroke:none;stroke-width:2.10864;stroke-linecap:round;paint-order:markers stroke fill;fill-opacity:1"
     id="rect689"
     width="6.507"
     height="6.507"
     x="-417.8031"
     y="-157.54579"
     transform="matrix(-0.67820518,-0.7348726,-0.7348726,0.67820518,0,0)" />
</svg>
