<?xml version="1.0" encoding="UTF-8" standalone="no"?>
<!-- Created with Inkscape (http://www.inkscape.org/) -->

<svg
   width="1000"
   height="1000"
   viewBox="0 0 1000 1000"
   version="1.1"
   id="svg1"
   xml:space="preserve"
   xmlns="http://www.w3.org/2000/svg"
   xmlns:svg="http://www.w3.org/2000/svg"
   xmlns:rdf="http://www.w3.org/1999/02/22-rdf-syntax-ns#"
   xmlns:cc="http://creativecommons.org/ns#"
   xmlns:dc="http://purl.org/dc/elements/1.1/"><defs
     id="defs1"><marker
       style="overflow:visible"
       id="marker8209"
       refX="0"
       refY="0"
       orient="auto-start-reverse"
       markerWidth="5.3244081"
       markerHeight="6.155385"
       viewBox="0 0 5.3244081 6.1553851"
       preserveAspectRatio="xMidYMid"><path
         transform="scale(0.5)"
         style="fill:context-stroke;fill-rule:evenodd;stroke:context-stroke;stroke-width:1pt"
         d="M 5.77,0 -2.88,5 V -5 Z"
         id="path8207" /></marker><marker
       style="overflow:visible"
       id="marker7921"
       refX="0"
       refY="0"
       orient="auto-start-reverse"
       markerWidth="3.46"
       markerHeight="4.00000001"
       viewBox="0 0 5.3244081 6.1553851"
       preserveAspectRatio="xMidYMid"
       markerUnits="strokeWidth"><path
         transform="scale(0.5)"
         style="fill:context-stroke;fill-rule:evenodd;stroke:context-stroke;stroke-width:1pt"
         d="M 5.77,0 -2.88,5 V -5 Z"
         id="path7919" /></marker><marker
       style="overflow:visible"
       id="marker3003"
       refX="0"
       refY="0"
       orient="auto-start-reverse"
       markerWidth="5.32440803"
       markerHeight="6.15538502"
       viewBox="0 0 5.3244081 6.1553851"
       preserveAspectRatio="xMidYMid"><path
         transform="scale(0.5)"
         style="fill:context-stroke;fill-rule:evenodd;stroke:context-stroke;stroke-width:1pt"
         d="M 5.77,0 -2.88,5 V -5 Z"
         id="path3001" /></marker><marker
       style="overflow:visible"
       id="marker2247"
       refX="0"
       refY="0"
       orient="auto-start-reverse"
       markerWidth="5.3244081"
       markerHeight="6.155385"
       viewBox="0 0 5.3244081 6.1553851"
       preserveAspectRatio="xMidYMid"><path
         transform="scale(0.5)"
         style="fill:context-stroke;fill-rule:evenodd;stroke:context-stroke;stroke-width:1pt"
         d="M 5.77,0 -2.88,5 V -5 Z"
         id="path2245" /></marker></defs><g
     id="layer1"><rect
       style="fill:#181818;fill-opacity:1;stroke:none;stroke-width:1.00976"
       id="rect1"
       width="1000"
       height="1000"
       x="1.5258789e-05"
       y="0" /></g><g
     id="layer2"><circle
       style="opacity:1;fill:none;stroke:#bc5fd3;stroke-width:5;stroke-dasharray:none;stroke-opacity:1"
       id="path1"
       cx="500"
       cy="500"
       r="314.58966" /><path
       id="path2"
       style="color:#000000;fill:#ffdd55;-inkscape-stroke:none"
       d="m 218.00399,492.09408 -8.01172,4.625 -8.00976,4.625 8.00976,4.625 8.01172,4.625 v -2.50391 -4.24609 h 185.67383 v -5 H 218.00399 Z" /><path
       d="m 428.13225,513.59192 v -2.5261 q -1.904,2.97854 -5.5989,2.97854 -2.39414,0 -4.41125,-1.31961 -1.99826,-1.31961 -3.1105,-3.67605 -1.09339,-2.37529 -1.09339,-5.44808 0,-2.99739 0.99913,-5.42924 0.99913,-2.4507 2.99739,-3.75145 1.99826,-1.30075 4.46781,-1.30075 1.80974,0 3.22361,0.77291 1.41386,0.75406 2.29988,1.97941 v -9.9159 h 3.37442 v 27.63632 z m -10.72651,-9.9913 q 0,3.84571 1.62123,5.74971 1.62123,1.904 3.82686,1.904 2.22447,0 3.7703,-1.80974 1.56467,-1.8286 1.56467,-5.5612 0,-4.10963 -1.58352,-6.03248 -1.58353,-1.92286 -3.90227,-1.92286 -2.26218,0 -3.78915,1.84745 -1.50812,1.84745 -1.50812,5.82512 z m 22.47804,-13.74276 v -3.90226 h 3.39327 v 3.90226 z m 0,23.73406 v -20.02031 h 3.39327 v 20.02031 z m 24.87219,-2.46955 q -1.88515,1.60238 -3.63834,2.26218 -1.73434,0.65981 -3.7326,0.65981 -3.29902,0 -5.07106,-1.60238 -1.77204,-1.62123 -1.77204,-4.12848 0,-1.47042 0.6598,-2.67692 0.67865,-1.22535 1.75319,-1.96056 1.09339,-0.73521 2.4507,-1.11224 0.99913,-0.26392 3.01624,-0.50899 4.10963,-0.49014 6.05134,-1.16879 0.0188,-0.69751 0.0188,-0.88602 0,-2.07367 -0.96143,-2.92199 -1.30075,-1.14994 -3.86456,-1.14994 -2.39414,0 -3.54408,0.84832 -1.1311,0.82947 -1.67779,2.95969 l -3.31787,-0.45244 q 0.45244,-2.13022 1.48927,-3.43097 1.03684,-1.31961 2.99739,-2.01712 1.96056,-0.71635 4.54322,-0.71635 2.5638,0 4.16618,0.60324 1.60238,0.60325 2.35644,1.52698 0.75406,0.90487 1.05569,2.29988 0.16966,0.86717 0.16966,3.12935 v 4.52437 q 0,4.73173 0.20737,5.99478 0.22622,1.2442 0.86717,2.39414 h -3.54409 q -0.52784,-1.05569 -0.67865,-2.46955 z m -0.28277,-7.57831 q -1.84745,0.75406 -5.54235,1.28191 -2.09252,0.30162 -2.95969,0.67865 -0.86717,0.37703 -1.33845,1.11224 -0.47129,0.71636 -0.47129,1.60238 0,1.35731 1.01798,2.26218 1.03683,0.90487 3.01624,0.90487 1.96056,0 3.48753,-0.84832 1.52697,-0.86717 2.24333,-2.35644 0.5467,-1.14994 0.5467,-3.39327 z m 11.94004,10.04786 v -20.02031 h 3.0351 v 2.80888 q 0.94257,-1.47042 2.50725,-2.35644 1.56467,-0.90487 3.56294,-0.90487 2.22447,0 3.63834,0.92372 1.43271,0.92372 2.01711,2.58266 2.37529,-3.50638 6.1833,-3.50638 2.97853,0 4.58091,1.65893 1.60238,1.64008 1.60238,5.07106 v 13.74275 h -3.37442 v -12.61166 q 0,-2.03597 -0.33933,-2.92199 -0.32047,-0.90487 -1.18764,-1.45156 -0.86717,-0.5467 -2.03597,-0.5467 -2.11136,0 -3.50638,1.41387 -1.39501,1.39501 -1.39501,4.48666 v 11.63138 h -3.39327 v -13.00755 q 0,-2.26218 -0.82947,-3.39327 -0.82946,-1.13109 -2.71462,-1.13109 -1.43271,0 -2.65806,0.75406 -1.2065,0.75406 -1.75319,2.20563 -0.54669,1.45157 -0.54669,4.18504 v 10.38718 z m 49.11524,-6.44722 3.50638,0.43359 q -0.82947,3.07279 -3.0728,4.76943 -2.24333,1.69664 -5.73086,1.69664 -4.3924,0 -6.97506,-2.69577 -2.5638,-2.71462 -2.5638,-7.59716 0,-5.05221 2.60151,-7.84223 2.6015,-2.79002 6.74884,-2.79002 4.01537,0 6.56032,2.73347 2.54496,2.73346 2.54496,7.69141 0,0.30163 -0.0189,0.90488 h -14.9304 q 0.18851,3.29901 1.8663,5.0522 1.67778,1.75319 4.18503,1.75319 1.8663,0 3.18591,-0.98028 1.31961,-0.98028 2.09252,-3.12935 z m -11.14125,-5.48579 h 11.17895 q -0.22622,-2.5261 -1.2819,-3.78915 -1.62123,-1.96056 -4.20389,-1.96056 -2.33759,0 -3.93997,1.56468 -1.58352,1.56467 -1.75319,4.18503 z m 29.56622,8.89792 0.49014,2.99739 q -1.43272,0.30162 -2.56381,0.30162 -1.84745,0 -2.86543,-0.5844 -1.01798,-0.58439 -1.43272,-1.52697 -0.41473,-0.96143 -0.41473,-4.01537 v -11.51828 h -2.4884 v -2.63921 h 2.4884 v -4.95795 l 3.37442,-2.03596 v 6.99391 h 3.41213 v 2.63921 h -3.41213 v 11.70679 q 0,1.45157 0.16967,1.8663 0.18851,0.41474 0.58439,0.65981 0.41474,0.24507 1.1688,0.24507 0.56554,0 1.48927,-0.13196 z m 20.27241,-3.41213 3.50639,0.43359 q -0.82947,3.07279 -3.0728,4.76943 -2.24333,1.69664 -5.73086,1.69664 -4.3924,0 -6.97506,-2.69577 -2.56381,-2.71462 -2.56381,-7.59716 0,-5.05221 2.60151,-7.84223 2.60151,-2.79002 6.74884,-2.79002 4.01538,0 6.56033,2.73347 2.54496,2.73346 2.54496,7.69141 0,0.30163 -0.0189,0.90488 h -14.93039 q 0.18851,3.29901 1.8663,5.0522 1.67778,1.75319 4.18503,1.75319 1.8663,0 3.18591,-0.98028 1.3196,-0.98028 2.09251,-3.12935 z m -11.14124,-5.48579 h 11.17895 q -0.22622,-2.5261 -1.28191,-3.78915 -1.62123,-1.96056 -4.20388,-1.96056 -2.33759,0 -3.93997,1.56468 -1.58353,1.56467 -1.75319,4.18503 z m 22.11987,11.93301 v -20.02031 h 3.05394 v 3.0351 q 1.1688,-2.13023 2.14907,-2.80888 0.99913,-0.67865 2.18678,-0.67865 1.71549,0 3.48753,1.09338 l -1.16879,3.14821 q -1.2442,-0.73521 -2.4884,-0.73521 -1.11224,0 -1.99826,0.67865 -0.88603,0.6598 -1.26306,1.84745 -0.56554,1.80975 -0.56554,3.95882 v 10.48144 z"
       id="text3"
       style="font-size:38.6079px;line-height:0.9;font-family:Arial;-inkscape-font-specification:Arial;letter-spacing:3.2495px;fill:#ffdd55;stroke:#ffdd55;stroke-width:0"
       aria-label="diameter" /><path
       id="path5"
       style="color:#000000;fill:#ffdd55;-inkscape-stroke:none"
       d="m 781.996,492.09408 8.01172,4.625 8.00976,4.625 -8.00976,4.625 -8.01172,4.625 v -2.50391 -4.24609 H 596.32218 v -5 H 781.996 Z" /><path
       id="path6"
       style="color:#000000;fill:#99ff55;fill-opacity:1;-inkscape-stroke:none"
       d="M 708.57812 291.42188 L 699.64258 293.81641 L 690.70703 296.21094 L 695.48047 300.98438 L 522.85156 473.61328 L 526.38672 477.14844 L 699.01562 304.51953 L 702.01758 307.52148 L 703.78906 309.29297 L 706.18359 300.35742 L 708.57812 291.42188 z " /><path
       d="m 108.68064,685.9541 v -20.02031 h 3.05395 v 3.0351 q 1.16879,-2.13022 2.14907,-2.80888 0.99913,-0.67865 2.18678,-0.67865 1.71549,0 3.48753,1.09339 l -1.1688,3.1482 q -1.2442,-0.73521 -2.4884,-0.73521 -1.11224,0 -1.99826,0.67865 -0.88602,0.65981 -1.26305,1.84745 -0.56554,1.80975 -0.56554,3.95882 v 10.48144 z m 29.20804,-2.46955 q -1.88515,1.60238 -3.63834,2.26218 -1.73434,0.65981 -3.7326,0.65981 -3.29902,0 -5.07106,-1.60238 -1.77204,-1.62123 -1.77204,-4.12848 0,-1.47042 0.6598,-2.67692 0.67865,-1.22535 1.75319,-1.96055 1.09339,-0.73521 2.4507,-1.11224 0.99913,-0.26392 3.01624,-0.50899 4.10963,-0.49014 6.05134,-1.1688 0.0189,-0.6975 0.0189,-0.88602 0,-2.07367 -0.96143,-2.92198 -1.30076,-1.14995 -3.86456,-1.14995 -2.39414,0 -3.54409,0.84832 -1.13109,0.82947 -1.67778,2.95969 l -3.31787,-0.45244 q 0.45244,-2.13022 1.48927,-3.43097 1.03684,-1.31961 2.99739,-2.01711 1.96056,-0.71636 4.54322,-0.71636 2.5638,0 4.16618,0.60325 1.60238,0.60325 2.35644,1.52697 0.75406,0.90487 1.05569,2.29988 0.16966,0.86717 0.16966,3.12936 v 4.52436 q 0,4.73173 0.20737,5.99478 0.22622,1.2442 0.86717,2.39414 h -3.54409 q -0.52784,-1.05568 -0.67865,-2.46955 z m -0.28277,-7.5783 q -1.84745,0.75406 -5.54235,1.2819 -2.09252,0.30162 -2.95969,0.67865 -0.86717,0.37703 -1.33845,1.11224 -0.47129,0.71636 -0.47129,1.60238 0,1.35731 1.01798,2.26218 1.03683,0.90487 3.01624,0.90487 1.96056,0 3.48753,-0.84831 1.52697,-0.86717 2.24333,-2.35644 0.5467,-1.14994 0.5467,-3.39328 z m 24.92874,10.04785 v -2.5261 q -1.90401,2.97854 -5.5989,2.97854 -2.39415,0 -4.41126,-1.31961 -1.99826,-1.3196 -3.1105,-3.67604 -1.09338,-2.37529 -1.09338,-5.44809 0,-2.99739 0.99913,-5.42924 0.99913,-2.45069 2.99739,-3.75145 1.99826,-1.30075 4.4678,-1.30075 1.80975,0 3.22361,0.77291 1.41387,0.75406 2.29989,1.97941 v -9.9159 h 3.37442 v 27.63632 z m -10.72651,-9.9913 q 0,3.84571 1.62123,5.74971 1.62123,1.904 3.82685,1.904 2.22448,0 3.77031,-1.80974 1.56467,-1.8286 1.56467,-5.5612 0,-4.10963 -1.58353,-6.03248 -1.58352,-1.92286 -3.90226,-1.92286 -2.26218,0 -3.78915,1.84745 -1.50812,1.84745 -1.50812,5.82512 z m 22.47804,-13.74275 v -3.90227 h 3.39327 v 3.90227 z m 0,23.73405 v -20.02031 h 3.39327 v 20.02031 z m 24.92874,0 v -2.94083 q -2.33759,3.39327 -6.35296,3.39327 -1.77205,0 -3.31787,-0.67866 -1.52697,-0.67865 -2.28103,-1.69663 -0.73521,-1.03684 -1.03684,-2.52611 -0.20736,-0.99913 -0.20736,-3.16705 v -12.4043 h 3.39327 v 11.10355 q 0,2.65806 0.20737,3.58178 0.32047,1.33846 1.3573,2.11137 1.03684,0.75406 2.56381,0.75406 1.52697,0 2.86543,-0.77291 1.33846,-0.79176 1.88515,-2.13022 0.56555,-1.35731 0.56555,-3.92111 v -10.72652 h 3.39327 v 20.02031 z m 10.24341,-5.97593 3.35557,-0.52784 q 0.28277,2.01711 1.56467,3.09165 1.30076,1.07453 3.61949,1.07453 2.33759,0 3.46868,-0.94257 1.13109,-0.96143 1.13109,-2.24333 0,-1.14994 -0.99913,-1.80975 -0.6975,-0.45243 -3.46868,-1.14994 -3.73259,-0.94257 -5.18416,-1.62123 -1.43272,-0.69751 -2.18678,-1.904 -0.73521,-1.22535 -0.73521,-2.69577 0,-1.33846 0.60325,-2.46955 0.6221,-1.14994 1.67779,-1.904 0.79176,-0.5844 2.14907,-0.98028 1.37616,-0.41473 2.94084,-0.41473 2.35643,0 4.12848,0.67865 1.79089,0.67866 2.63921,1.84745 0.84832,1.14994 1.16879,3.09165 l -3.31786,0.45244 q -0.22622,-1.54583 -1.31961,-2.413 -1.07454,-0.86717 -3.05394,-0.86717 -2.33759,0 -3.33672,0.77291 -0.99913,0.77292 -0.99913,1.80975 0,0.6598 0.41473,1.18764 0.41473,0.5467 1.30075,0.90488 0.509,0.18851 2.9974,0.86717 3.60063,0.96142 5.0145,1.58352 1.43271,0.60325 2.24333,1.77205 0.81061,1.16879 0.81061,2.90313 0,1.69664 -0.99913,3.20476 -0.98028,1.48927 -2.84658,2.31873 -1.8663,0.81062 -4.22273,0.81062 -3.90227,0 -5.95708,-1.62123 -2.03597,-1.62123 -2.60151,-4.80714 z"
       id="text6"
       style="font-size:38.6079px;line-height:0.9;font-family:Arial;-inkscape-font-specification:Arial;letter-spacing:3.2495px;fill:#99ff55;stroke:#ffdd55;stroke-width:0;fill-opacity:1"
       transform="rotate(-45)"
       aria-label="radius" /><path
       d="m 373.17774,173.05997 3.25753,-0.84269 q 0.77996,3.40468 -0.58736,6.0677 -1.35686,2.6385 -4.40015,3.86237 -3.81286,1.53335 -7.13784,-0.0148 -3.31453,-1.57264 -5.18549,-6.22503 -1.2098,-3.00831 -1.12021,-5.66547 0.0896,-2.65715 1.6683,-4.59244 1.58916,-1.9598 3.98532,-2.92342 3.0258,-1.21683 5.56868,-0.4514 2.53586,0.74794 4.21048,3.34581 l -2.87087,1.70313 q -1.18986,-1.6956 -2.68906,-2.18992 -1.4817,-0.50134 -3.05582,0.13169 -2.37866,0.95659 -3.17602,3.26849 -0.8044,2.29441 0.67971,5.98484 1.50522,3.7429 3.62168,4.86268 2.11647,1.11979 4.42517,0.19134 1.85396,-0.74557 2.63857,-2.38183 0.78461,-1.63625 0.16738,-4.13107 z m 3.9248,-18.85802 -1.2751,-3.68805 3.20701,-1.10879 1.2751,3.68806 z m 7.75535,22.43123 -6.54184,-18.92134 3.207,-1.10878 6.54184,18.92134 z m 11.16405,-3.72957 -5.77599,-19.169 2.92408,-0.88109 0.87565,2.90604 q 0.50451,-2.37685 1.24731,-3.30946 0.76085,-0.93805 1.89799,-1.2807 1.64254,-0.49493 3.65468,0.0407 l -0.21081,3.35154 q -1.40341,-0.34498 -2.5947,0.014 -1.06495,0.32088 -1.7175,1.2263 -0.65799,0.88737 -0.67634,2.13329 -0.0194,1.89596 0.60065,3.95365 l 3.02397,10.03575 z m 26.47666,-14.7174 3.34524,-0.36203 q 0.27864,3.48174 -1.45995,5.91867 -1.72468,2.41417 -4.91313,3.18438 -3.99473,0.96497 -7.06045,-1.04838 -3.05182,-2.0361 -4.22926,-6.91041 -0.76136,-3.1518 -0.28788,-5.76797 0.47348,-2.61616 2.31582,-4.3024 1.85624,-1.70899 4.36669,-2.31542 3.17013,-0.76578 5.57535,0.35986 2.4008,1.10731 3.68152,3.92033 l -3.08726,1.2694 q -0.93175,-1.85006 -2.34355,-2.55629 -1.39347,-0.71065 -3.04267,-0.31226 -2.49212,0.602 -3.61591,2.77405 -1.12821,2.15372 -0.19422,6.02018 0.94727,3.92144 2.87924,5.33594 1.93198,1.4145 4.35081,0.8302 1.94239,-0.46921 2.95571,-1.97458 1.01331,-1.50537 0.7639,-4.06327 z m 23.93864,2.93337 -0.49456,-2.89896 q -1.73364,3.73806 -5.69183,4.41334 -1.7468,0.298 -3.38474,-0.11102 -1.61936,-0.4122 -2.53387,-1.28887 -0.89911,-0.89842 -1.44689,-2.31576 -0.37244,-0.95002 -0.73702,-3.08707 l -2.08605,-12.22763 3.34494,-0.57065 1.8673,10.9454 q 0.44701,2.6202 0.80677,3.4959 0.541,1.2655 1.69305,1.85304 1.14888,0.56895 2.65411,0.31216 1.50522,-0.2568 2.69463,-1.24379 1.18625,-1.00558 1.50006,-2.41691 0.32923,-1.43309 -0.10193,-3.96038 l -1.80389,-10.57374 3.34494,-0.57065 3.36685,19.73517 z m 11.47066,-1.82476 -1.64826,-19.95234 3.02479,-0.24988 0.23125,2.79934 q 0.81832,-1.54302 2.30474,-2.55486 1.48486,-1.03061 3.47634,-1.19513 2.21693,-0.18314 3.70204,0.62105 1.5039,0.80263 2.22289,2.40782 2.07855,-3.69004 5.87363,-4.00355 2.96843,-0.24522 4.70194,1.27616 1.73197,1.50259 2.01444,4.92192 l 1.13143,13.6961 -3.36296,0.27781 -1.03831,-12.56885 q -0.16762,-2.02905 -0.57874,-2.88412 -0.39389,-0.87542 -1.30312,-1.34886 -0.90924,-0.47345 -2.07407,-0.37722 -2.1042,0.17382 -3.37807,1.69774 -1.27543,1.50513 -1.02089,4.58628 l 0.9576,11.59189 -3.38175,0.27937 -1.0709,-12.96338 q -0.18625,-2.25451 -1.10602,-3.31347 -0.91977,-1.05896 -2.79852,-0.90376 -1.42786,0.11796 -2.58696,0.97034 -1.14032,0.85083 -1.56565,2.34248 -0.42534,1.49165 -0.20029,4.21584 l 0.85517,10.35192 z m 36.14289,-2.24854 -0.19705,-17.37998 -2.9972,0.034 -0.0299,-2.63904 2.9972,-0.034 -0.0242,-2.13009 q -0.0229,-2.01698 0.32417,-3.00126 0.47515,-1.32507 1.69123,-2.14953 1.23472,-0.84352 3.45905,-0.86874 1.43263,-0.0162 3.1707,0.30341 l -0.4754,2.96526 q -1.05776,-0.17653 -2.00027,-0.16585 -1.54573,0.0175 -2.17916,0.68456 -0.63343,0.66702 -0.61291,2.47665 l 0.0209,1.84733 3.90202,-0.0442 0.0299,2.63904 -3.90202,0.0442 0.19705,17.37998 z m 27.14585,-5.89966 3.4837,0.58867 q -0.96492,3.03298 -3.28129,4.62846 -2.31637,1.59548 -5.80047,1.44081 -4.38808,-0.19479 -6.84864,-3.00244 -2.44089,-2.82565 -2.22436,-7.70339 0.22406,-5.04723 2.94674,-7.71914 2.72268,-2.67191 6.86593,-2.48798 4.01143,0.17808 6.43265,3.02172 2.42123,2.84365 2.20135,7.79672 -0.0134,0.30132 -0.059,0.90314 l -14.91571,-0.66214 q 0.042,3.30413 1.6404,5.13001 1.59839,1.82587 4.10317,1.93706 1.86446,0.0828 3.22625,-0.83802 1.36178,-0.9208 2.22924,-3.03348 z m -10.887,-5.97449 11.16795,0.49577 q -0.11397,-2.53365 -1.1126,-3.84227 -1.53269,-2.03053 -4.1128,-2.14507 -2.33529,-0.10367 -4.00548,1.38841 -1.65136,1.49291 -1.93707,4.10316 z m 21.54775,13.27104 2.06103,-19.91394 3.03772,0.3144 -0.31246,3.01897 q 1.38189,-1.99858 2.42682,-2.57272 1.06369,-0.57219 2.24503,-0.44992 1.70637,0.1766 3.35644,1.44661 l -1.48669,3.01115 q -1.1619,-0.85939 -2.39949,-0.98748 -1.10633,-0.1145 -2.05751,0.46934 -0.94923,0.56508 -1.44652,1.7076 -0.74885,1.74191 -0.97009,3.87957 l -1.07903,10.42575 z m 30.61357,-2.37363 3.39064,0.99311 q -1.31392,2.89892 -3.8014,4.21176 -2.48747,1.31285 -5.9294,0.7507 -4.33496,-0.70801 -6.44932,-3.78482 -2.09271,-3.09238 -1.3057,-7.91108 0.81437,-4.98614 3.83158,-7.32034 3.01721,-2.3342 7.11031,-1.6657 3.96287,0.64724 6.03394,3.75518 2.07106,3.10795 1.2719,8.00106 -0.0486,0.29768 -0.16447,0.89 l -14.73516,-2.40662 q -0.34571,3.28626 1.02754,5.28697 1.37325,2.00071 3.84771,2.40485 1.8419,0.30083 3.30226,-0.45393 1.46036,-0.75475 2.56957,-2.75114 z m -10.1113,-7.2099 11.03276,1.80193 q 0.18392,-2.52954 -0.65437,-3.94624 -1.284,-2.19624 -3.83289,-2.61254 -2.30702,-0.37679 -4.14065,0.90913 -1.81503,1.28897 -2.40485,3.84772 z m 19.89658,15.64154 4.62386,-19.47903 2.97137,0.70534 -0.65744,2.76962 q 2.90793,-2.70042 6.96148,-1.7382 1.76082,0.41797 3.07578,1.40825 1.33765,0.97629 1.82751,2.17759 0.48985,1.2013 0.44807,2.68328 -0.0343,0.96064 -0.57852,3.25336 l -2.84311,11.97722 -3.30153,-0.7837 2.81263,-11.84883 q 0.47893,-2.0176 0.32887,-3.09949 -0.14572,-1.10023 -0.99685,-1.92228 -0.82844,-0.83604 -2.14905,-1.14952 -2.10931,-0.5007 -3.96786,0.47252 -1.84021,0.97758 -2.72841,4.71931 l -2.52527,10.63827 z m 38.62864,2.89251 3.058,1.40368 q -1.54524,3.13248 -4.2871,4.33391 -2.71827,1.18902 -5.85086,0.21619 -3.92473,-1.21884 -5.52525,-4.51891 -1.57694,-3.31249 -0.0897,-8.10138 0.96165,-3.09657 2.70908,-5.10032 1.74742,-2.00375 4.19363,-2.50741 2.46981,-0.51607 4.93627,0.24989 3.11458,0.96724 4.60294,3.16654 1.49395,2.1813 1.15191,5.25316 l -3.30154,-0.49233 q 0.14815,-2.06613 -0.70215,-3.39614 -0.8323,-1.32441 -2.4526,-1.8276 -2.44846,-0.76037 -4.52666,0.52873 -2.07261,1.27109 -3.2523,5.0698 -1.19647,3.85271 -0.26252,6.0575 0.93395,2.20478 3.31039,2.94279 1.90836,0.59264 3.55001,-0.18062 1.64165,-0.77325 2.73849,-3.09748 z m 21.92327,8.98607 3.11372,1.66957 q -1.88234,2.5665 -4.58673,3.33938 -2.7044,0.77288 -5.95698,-0.48551 -4.0965,-1.58491 -5.53246,-5.03096 -1.41158,-3.45683 0.35018,-8.01045 1.82297,-4.71185 5.25594,-6.37522 3.43297,-1.66337 7.30091,-0.1669 3.74486,1.44886 5.13206,4.91647 1.3872,3.46762 -0.40177,8.09156 -0.10883,0.2813 -0.34408,0.83711 l -13.92458,-5.3873 q -1.01456,3.14479 -0.0824,5.38526 0.93215,2.24047 3.2705,3.14516 1.74057,0.67341 3.32499,0.23532 1.58442,-0.43808 3.0807,-2.16349 z m -8.41126,-9.1363 10.42585,4.03368 q 0.70051,-2.43755 0.17169,-3.99644 -0.80459,-2.41346 -3.21326,-3.34536 -2.18011,-0.84346 -4.23912,0.0376 -2.04142,0.88789 -3.14516,3.2705 z"
       id="text7"
       style="font-size:38.6079px;line-height:0.9;font-family:Arial;-inkscape-font-specification:Arial;letter-spacing:3.2495px;fill:#5fbcd3;stroke:#ffdd55;stroke-width:0;fill-opacity:1"
       aria-label="circumference" /><path
       style="opacity:1;fill:none;stroke:#5fbcd3;stroke-width:5;stroke-dasharray:15, 15;stroke-dashoffset:0;stroke-opacity:1"
       id="circle7"
       transform="rotate(-113.81964)"
       d="m -431.55067,517.5907 a 347.37537,347.37537 0 0 1 -434.86809,16.58577 347.37537,347.37537 0 0 1 -109.81246,-421.10161 347.37537,347.37537 0 0 1 387.58867,-197.88978 347.37537,347.37537 0 0 1 276.68757,335.90078" /></g><metadata
     id="metadata1"><rdf:RDF><cc:Work
         rdf:about=""><dc:creator><cc:Agent><dc:title>David Matthew</dc:title></cc:Agent></dc:creator></cc:Work></rdf:RDF></metadata></svg>
