<?xml version="1.0" encoding="UTF-8"?>
<svg version="1.1" viewBox="0 0 1000 1000" xml:space="preserve" xmlns="http://www.w3.org/2000/svg"><path d="m0 0h1e3v1e3h-1e3z" fill="#181818" stroke-width="1.0098"/><g transform="translate(0 -14.391)"><path d="m814.58 514.39a314.59 314.59 0 0 1-314.59 314.59 314.59 314.59 0 0 1-314.59-314.59 314.59 314.59 0 0 1 314.59-314.59 314.59 314.59 0 0 1 314.59 314.59z" fill="none" stroke="#bc5fd3" stroke-width="5"/><path transform="rotate(17.617)" d="m979.64 338.94a347.4 347.4 0 0 1-347.4 347.4 347.4 347.4 0 0 1-347.4-347.4 347.4 347.4 0 0 1 347.4-347.4 347.4 347.4 0 0 1 347.4 347.4z" fill="none" stroke="#5fbcd3" stroke-dasharray="325.235, 25.0181" stroke-width="5.0036"/><path d="m787.23 273.85 14.365-14.425 2.2004 2.1913-2.1778 2.1869q2.3706-0.69627 3.5639-0.48188 1.2069 0.22791 2.0626 1.0801 1.236 1.2309 1.7287 3.29l-3.101 1.4297q-0.36895-1.4225-1.265-2.3155-0.80141-0.79806-1.9268-0.94482-1.1119-0.15993-2.2356 0.42491-1.706 0.89816-3.248 2.4466l-7.5206 7.5522zm22.011 20.229q-2.4821-0.41062-4.1459-1.338-1.6514-0.91275-2.9641-2.4638-2.1671-2.5607-2.0874-4.9887 0.0943-2.4404 2.0405-4.0874 1.1413-0.96591 2.5112-1.2463 1.3969-0.27818 2.6734 0.0729 1.2889 0.36572 2.4732 1.1716 0.86118 0.60214 2.3765 2.0068 3.08 2.8679 4.8823 3.9292 0.55378-0.44356 0.7001-0.56738 1.6096-1.3622 1.6365-2.6657 0.0381-1.765-1.6461-3.755-1.5727-1.8583-2.9866-2.1936-1.3868-0.33306-3.3994 0.64192l-1.8283-2.8725q1.9506-1.0483 3.6414-1.0978 1.7054-0.0621 3.5346 1.0016 1.8439 1.0512 3.5405 3.0558 1.6842 1.99 2.2685 3.63 0.58437 1.64 0.36271 2.8321-0.20701 1.1797-1.0917 2.3302-0.56165 0.70133-2.3176 2.1874l-3.5118 2.972q-3.6728 3.1083-4.5169 4.0989-0.81715 0.99289-1.2887 2.2458l-2.3281-2.7509q0.47269-1.1032 1.4711-2.149zm5.6965-5.1977q-1.7989-0.93866-4.6358-3.4599-1.6087-1.4261-2.471-1.8515-0.86228-0.42542-1.7425-0.30832-0.86562 0.10477-1.5533 0.68679-1.0535 0.8916-1.0872 2.2762-0.0213 1.3992 1.279 2.9356 1.2879 1.5218 2.9494 2.1498 1.6762 0.61558 3.3027 0.1933 1.2517-0.33105 2.9929-1.8047zm7.1594 27.057 2.1211-1.4488q-3.593 0.10948-5.7121-2.9931-1.3731-2.0103-1.4219-4.4609-0.038-2.4347 1.3028-4.7201 1.3674-2.2804 3.9476-4.0426 2.5169-1.719 5.1319-2.2748 2.6308-0.56656 4.8691 0.36536 2.2382 0.93191 3.6546 3.0056 1.0379 1.5196 1.1998 3.1501 0.17771 1.6197-0.34307 3.0664l8.3263-5.6869 1.9353 2.8335-23.206 15.85zm2.2378-14.737q-3.2292 2.2055-3.8982 4.6588-0.66896 2.4533 0.59602 4.3054 1.2758 1.8679 3.6819 2.128 2.4328 0.26514 5.567-1.8756 3.4508-2.3569 4.1572-4.7894 0.70641-2.4325-0.62342-4.3795-1.2974-1.8995-3.7244-2.1222-2.4162-0.20682-5.7562 2.0744zm24.928 12.863 3.4376-1.982 1.7235 2.9892-3.4376 1.9821zm-20.908 12.055 17.636-10.169 1.7235 2.9892-17.636 10.168zm13.941 21.34q-2.2977-1.0248-3.673-2.3426-1.3671-1.3006-2.245-3.1331-1.4494-3.0253-0.75856-5.3544 0.70818-2.3373 3.0074-3.4389 1.3484-0.64613 2.7447-0.57105 1.4219 0.084 2.5682 0.74639 1.1546 0.67966 2.0967 1.7587 0.68099 0.80028 1.792 2.5424 2.255 3.5534 3.7305 5.0358 0.6479-0.28919 0.82073-0.37208 1.9017-0.91106 2.2572-2.1655 0.48305-1.6981-0.64336-4.0492-1.0519-2.1955-2.335-2.8774-1.2576-0.67281-3.4513-0.23823l-1.0428-3.2414q2.1523-0.52101 3.8006-0.14167 1.6657 0.37103 3.1667 1.8625 1.5183 1.4832 2.653 3.8516 1.1264 2.3511 1.2772 4.0856 0.15079 1.7345-0.36502 2.8318-0.4985 1.0891-1.6453 1.9786-0.72069 0.53657-2.7952 1.5305l-4.149 1.9878q-4.3392 2.0789-5.4063 2.824-1.0416 0.75409-1.8145 1.8471l-1.5571-3.2501q0.73622-0.94787 1.9665-1.7074zm6.8254-3.5889q-1.5032-1.3629-3.6106-4.5193-1.196-1.7864-1.9227-2.416-0.72675-0.62958-1.608-0.73875-0.86395-0.11778-1.6765 0.27184-1.2447 0.59624-1.6272 1.9274-0.37428 1.3484 0.49537 3.1636 0.86139 1.7979 2.3102 2.8255 1.4661 1.0193 3.1466 1.0219 1.2947-4e-3 3.352-0.98952zm-4.3631 15.553 19.167-6.8595 1.0464 2.9238-2.7253 0.97532q3.9142 0.98132 5.3416 4.97 0.62006 1.7326 0.50508 3.4026-0.0904 1.6815-0.84277 2.7652-0.75232 1.0836-2.0387 1.8698-0.83783 0.5034-3.0939 1.3108l-11.786 4.2178-1.1626-3.2487 11.659-4.1726q1.9853-0.71048 2.8243-1.4382 0.85701-0.73426 1.0858-1.9156 0.25328-1.1697-0.21178-2.4692-0.74279-2.0756-2.6029-3.1201-1.8536-1.0265-5.5355 0.29116l-10.468 3.7463zm13.584 21.01 1.3486 3.18q-1.92 0.77661-2.6637 2.3063-0.73909 1.5483-0.16701 3.8356 0.57676 2.3059 1.7856 3.1892 1.2275 0.87858 2.492 0.56229 1.1344-0.28371 1.5388-1.4321 0.27423-0.79971 0.27855-3.7055 9e-3 -3.9146 0.32023-5.514 0.33457-1.5854 1.3387-2.627 1.0274-1.0276 2.478-1.3902 1.3203-0.33024 2.585-0.0142 1.2879 0.32996 2.2922 1.1853 0.77183 0.63685 1.4972 1.8781 0.74865 1.2552 1.1347 2.7987 0.5814 2.3245 0.34915 4.24-0.22756 1.9341-1.1713 3.0593-0.92507 1.1206-2.7614 1.9158l-1.2649-3.1614q1.4691-0.60454 2.0548-1.8971 0.59031-1.274 0.10194-3.2266-0.57674-2.306-1.5856-3.1009-1.009-0.79493-2.0318-0.5391-0.65088 0.16278-1.0693 0.70213-0.43697 0.544-0.57169 1.5064-0.0604 0.54862-0.11589 3.1708-0.06 3.7891-0.3249 5.3374-0.24163 1.5622-1.1946 2.6502-0.95299 1.088-2.6636 1.5164-1.6737 0.41859-3.4079-0.19492-1.711-0.59958-2.9897-2.236-1.2601-1.641-1.8415-3.9656-0.9628-3.8495 0.12951-6.2765 1.097-2.4084 4.1002-3.7523z" fill="#5fbcd3" stroke-dasharray="1064.03, 81.8477" stroke-width="16.358" aria-label="radians"/><path d="m398.65 249.42a283.69 283.69 0 0 1 253.78 25.719l-152.44 239.25z" fill="#fd5" fill-opacity=".1" stroke="#fd5" stroke-width="5"/><path d="m718.4 507.25-3.331 0.26053q-0.44662-1.9726-1.2654-2.8658-1.3585-1.4329-3.3496-1.4329-1.6004 0-2.81 0.89324-1.5818 1.1538-2.4936 3.3683-0.91185 2.2145-0.94906 6.3085 1.2096-1.8423 2.9589-2.7356 1.7493-0.89324 3.666-0.89324 3.3497 0 5.6944 2.475 2.3634 2.4564 2.3634 6.3643 0 2.5681-1.1166 4.7826-1.0979 2.1959-3.0333 3.3683-1.9354 1.1724-4.3918 1.1724-4.1871 0-6.8296-3.0705-2.6425-3.0891-2.6425-10.161 0-7.9089 2.9216-11.5 2.5495-3.1264 6.8668-3.1264 3.2194 0 5.2664 1.8051 2.0656 1.8051 2.475 4.9873zm-13.678 11.761q0 1.7306 0.72576 3.3124 0.74437 1.5818 2.0656 2.4192 1.3212 0.81881 2.7728 0.81881 2.1214 0 3.6474-1.712 1.526-1.712 1.526-4.6523 0-2.8286-1.5073-4.4476-1.5074-1.6376-3.7963-1.6376-2.2703 0-3.8521 1.6376-1.5818 1.619-1.5818 4.2615zm22.58 8.8394v-3.8149h3.8149v3.8149zm29.521-3.2194v3.2194h-18.032q-0.0372-1.2096 0.39079-2.3262 0.68854-1.8423 2.1959-3.6288 1.526-1.7865 4.3918-4.1312 4.4476-3.6474 6.0108-5.7688 1.5632-2.14 1.5632-4.0382 0-1.9912-1.4329-3.3496-1.4143-1.3771-3.7032-1.3771-2.4192 0-3.8707 1.4515-1.4515 1.4515-1.4701 4.0196l-3.4427-0.35357q0.35358-3.8521 2.6611-5.8619 2.3075-2.0284 6.1968-2.0284 3.9265 0 6.2155 2.1773 2.2889 2.1773 2.2889 5.3967 0 1.6376-0.66993 3.2194t-2.2331 3.331q-1.5446 1.7493-5.1548 4.8012-3.0147 2.5308-3.8707 3.4427-0.85602 0.89324-1.4143 1.8051zm11.954-11.575q-2.0842-0.76298-3.0891-2.1773-1.0049-1.4143-1.0049-3.3869 0-2.9775 2.1401-5.0059 2.14-2.0284 5.6944-2.0284 3.573 0 5.7502 2.0842 2.1773 2.0656 2.1773 5.0431 0 1.8981-1.0049 3.3124-0.98629 1.3957-3.0147 2.1587 2.5122 0.8188 3.8149 2.6425 1.3212 1.8237 1.3212 4.3546 0 3.4985-2.475 5.8805-2.475 2.382-6.5132 2.382-4.0382 0-6.5132-2.382-2.475-2.4006-2.475-5.9736 0-2.6611 1.3399-4.4476 1.3585-1.8051 3.8521-2.4564zm-0.66993-5.6758q0 1.9354 1.2468 3.1636 1.2468 1.2282 3.238 1.2282 1.9354 0 3.1636-1.2096 1.2468-1.2282 1.2468-2.9961 0-1.8423-1.284-3.0891-1.2654-1.2654-3.1636-1.2654-1.9167 0-3.1822 1.2282-1.2654 1.2282-1.2654 2.9402zm-1.0793 12.598q0 1.4329 0.66993 2.7728 0.68854 1.3399 2.0284 2.0842 1.3399 0.72576 2.8844 0.72576 2.4006 0 3.9638-1.5446 1.5632-1.5446 1.5632-3.9265 0-2.4192-1.619-4.001-1.6004-1.5818-4.0196-1.5818-2.3634 0-3.9265 1.5632-1.5446 1.5632-1.5446 3.9079z" fill="#5fbcd3" stroke-width="15.88" aria-label="6.28"/><path d="m218.43 520.64 3.3496-0.44662q0.57689 2.8472 1.954 4.1126 1.3957 1.2468 3.3869 1.2468 2.3634 0 3.9824-1.6376 1.6376-1.6376 1.6376-4.0568 0-2.3075-1.5073-3.7963-1.5074-1.5073-3.8335-1.5073-0.94907 0-2.3634 0.37218l0.37218-2.9402q0.33497 0.0372 0.53967 0.0372 2.1401 0 3.8521-1.1166t1.712-3.4427q0-1.8423-1.2468-3.0519-1.2468-1.2096-3.2194-1.2096-1.954 0-3.2566 1.2282-1.3026 1.2282-1.6748 3.6846l-3.3496-0.5955q0.6141-3.3683 2.7914-5.2106 2.1773-1.8609 5.4153-1.8609 2.2331 0 4.1126 0.96768 1.8795 0.94907 2.8658 2.6053 1.0049 1.6562 1.0049 3.5171 0 1.7679-0.94907 3.2194-0.94906 1.4515-2.81 2.3075 2.4192 0.55827 3.759 2.3261 1.3399 1.7493 1.3399 4.3918 0 3.573-2.6053 6.0666-2.6053 2.475-6.5876 2.475-3.5916 0-5.9736-2.14-2.3634-2.1401-2.6983-5.5455zm26.264 7.2018v-3.8149h3.8149v3.8149zm24.534 0h-3.3496v-21.345q-1.2096 1.1538-3.1822 2.3075-1.954 1.1538-3.5171 1.7307v-3.238q2.81-1.3212 4.9128-3.2008 2.1028-1.8795 2.9775-3.6474h2.1587zm22.524 0v-6.5318h-11.835v-3.0705l12.45-17.679h2.7356v17.679h3.6846v3.0705h-3.6846v6.5318zm0-9.6023v-12.301l-8.5416 12.301z" fill="#5fbcd3" stroke-width="15.88" aria-label="3.14"/></g></svg>
