<?xml version="1.0" encoding="UTF-8" standalone="no"?>
<!-- Created with Inkscape (http://www.inkscape.org/) -->

<svg
   width="818.79218"
   height="616.3078"
   viewBox="0 0 818.79218 616.3078"
   version="1.1"
   id="svg1"
   xmlns="http://www.w3.org/2000/svg"
   xmlns:svg="http://www.w3.org/2000/svg"
   xmlns:rdf="http://www.w3.org/1999/02/22-rdf-syntax-ns#"
   xmlns:cc="http://creativecommons.org/ns#"
   xmlns:dc="http://purl.org/dc/elements/1.1/">
  <defs
     id="defs1">
    <filter
       style="color-interpolation-filters:sRGB"
       id="filter3"
       x="0"
       y="0"
       width="1.5"
       height="1.5">
      <feColorMatrix
         id="feColorMatrix3"
         values="180"
         type="hueRotate" />
      <feOffset
         dx="50"
         dy="50"
         id="feOffset3"
         result="result1" />
      <feComposite
         id="feComposite3"
         in="result1"
         in2="SourceGraphic" />
    </filter>
    <filter
       style="color-interpolation-filters:sRGB"
       id="filter5"
       x="0"
       y="0"
       width="1.5"
       height="1.5">
      <feColorMatrix
         id="feColorMatrix5"
         values="180"
         type="hueRotate" />
      <feOffset
         dx="50"
         dy="50"
         id="feOffset5"
         result="result1" />
      <feComposite
         id="feComposite5"
         in="result1"
         in2="SourceGraphic"
         operator="in" />
    </filter>
    <filter
       style="color-interpolation-filters:sRGB"
       id="filter10"
       x="0"
       y="0"
       width="1.5"
       height="1.5">
      <feColorMatrix
         id="feColorMatrix10"
         values="180"
         type="hueRotate" />
      <feOffset
         dx="50"
         dy="50"
         id="feOffset10"
         result="result1" />
      <feComposite
         id="feComposite10"
         in="result1"
         in2="SourceGraphic"
         operator="out" />
    </filter>
    <filter
       style="color-interpolation-filters:sRGB"
       id="filter11"
       x="0"
       y="0"
       width="1.5"
       height="1.5">
      <feColorMatrix
         id="feColorMatrix11"
         values="180"
         type="hueRotate" />
      <feOffset
         dx="50"
         dy="50"
         id="feOffset11"
         result="result1" />
      <feComposite
         id="feComposite11"
         in="result1"
         in2="SourceGraphic"
         operator="atop" />
    </filter>
    <filter
       style="color-interpolation-filters:sRGB"
       id="filter12"
       x="0"
       y="0"
       width="1.5"
       height="1.5">
      <feColorMatrix
         id="feColorMatrix12"
         values="180"
         type="hueRotate" />
      <feOffset
         dx="50"
         dy="50"
         id="feOffset12"
         result="result1" />
      <feComposite
         id="feComposite12"
         in="result1"
         in2="SourceGraphic"
         operator="xor" />
    </filter>
    <filter
       style="color-interpolation-filters:sRGB"
       id="filter13"
       x="0"
       y="0"
       width="1.5"
       height="1.5">
      <feColorMatrix
         id="feColorMatrix13"
         values="180"
         type="hueRotate" />
      <feOffset
         dx="50"
         dy="50"
         id="feOffset13"
         result="result1" />
      <feComposite
         id="feComposite13"
         in="result1"
         in2="SourceGraphic"
         operator="lighter" />
    </filter>
  </defs>
  <rect
     style="fill:#181818;fill-opacity:1;stroke:none;stroke-width:0.717307"
     id="rect1"
     width="818.79218"
     height="616.3078"
     x="2.3437494e-08"
     y="-3.1982424e-08" />
  <g
     id="g10"
     style="opacity:0.1"
     transform="rotate(180,420.33805,487.74598)">
    <g
       id="g9">
      <rect
         style="fill:#f43f5e;stroke-width:50.4706;stroke-dashoffset:5.32"
         id="rect8"
         width="100"
         height="100"
         x="356.28003"
         y="462.61871" />
    </g>
    <rect
       style="fill:#009172;fill-opacity:1;stroke-width:50.4706;stroke-dashoffset:5.32"
       id="rect9"
       width="100"
       height="100"
       x="406.28"
       y="512.61902" />
  </g>
  <rect
     style="fill:#009172;stroke-width:39.2949;stroke-dashoffset:5.32;filter:url(#filter3);fill-opacity:1"
     id="rect4"
     width="100"
     height="100"
     x="102.63229"
     y="122.92939" />
  <g
     id="g8"
     style="opacity:0.1"
     transform="rotate(180,420.33804,367.7742)">
    <g
       id="g7">
      <rect
         style="fill:#f43f5e;stroke-width:50.4706;stroke-dashoffset:5.32"
         id="rect6"
         width="100"
         height="100"
         x="356.28003"
         y="462.61871" />
    </g>
    <rect
       style="fill:#009172;fill-opacity:1;stroke-width:50.4706;stroke-dashoffset:5.32"
       id="rect7"
       width="100"
       height="100"
       x="406.28"
       y="512.61902" />
  </g>
  <rect
     style="fill:#009172;stroke-width:39.2949;stroke-dashoffset:5.32;filter:url(#filter5);fill-opacity:1"
     id="rect5"
     width="100"
     height="100"
     x="334.39609"
     y="122.92939" />
  <rect
     style="fill:#009172;stroke-width:39.2949;stroke-dashoffset:5.32;filter:url(#filter10);fill-opacity:1"
     id="rect10"
     width="100"
     height="100"
     x="334.39609"
     y="362.87289" />
  <g
     id="g19"
     style="opacity:0.1"
     transform="translate(209.87986,-339.68933)">
    <g
       id="g18">
      <rect
         style="fill:#f43f5e;stroke-width:50.4706;stroke-dashoffset:5.32"
         id="rect18"
         width="100"
         height="100"
         x="356.28003"
         y="462.61871" />
    </g>
    <rect
       style="fill:#009172;fill-opacity:1;stroke-width:50.4706;stroke-dashoffset:5.32"
       id="rect19"
       width="100"
       height="100"
       x="406.28"
       y="512.61902" />
  </g>
  <rect
     style="fill:#009172;stroke-width:39.2949;stroke-dashoffset:5.32;filter:url(#filter11);fill-opacity:1"
     id="rect15"
     width="100"
     height="100"
     x="566.15991"
     y="122.92939" />
  <g
     id="g17"
     style="opacity:0.1"
     transform="translate(-253.64772,-99.745779)">
    <g
       id="g16">
      <rect
         style="fill:#f43f5e;stroke-width:50.4706;stroke-dashoffset:5.32"
         id="rect16"
         width="100"
         height="100"
         x="356.28003"
         y="462.61871" />
    </g>
    <rect
       style="fill:#009172;fill-opacity:1;stroke-width:50.4706;stroke-dashoffset:5.32"
       id="rect17"
       width="100"
       height="100"
       x="406.28"
       y="512.61902" />
  </g>
  <rect
     style="fill:#009172;stroke-width:39.2949;stroke-dashoffset:5.32;filter:url(#filter12);fill-opacity:1"
     id="rect20"
     width="100"
     height="100"
     x="102.63228"
     y="362.87323" />
  <rect
     style="fill:#009172;stroke-width:39.2949;stroke-dashoffset:5.32;filter:url(#filter13);fill-opacity:1"
     id="rect21"
     width="100"
     height="100"
     x="566.15991"
     y="362.87308" />
  <rect
     style="fill:#009172;fill-opacity:1;stroke:none;stroke-width:0.759536;stroke-dasharray:none;stroke-dashoffset:5.32"
     id="rect35"
     width="25.382923"
     height="25.382923"
     x="467.70544"
     y="50.307316" />
  <path
     d="m 327.90223,70.550883 q 0,0.0951 -0.0475,0.16637 -0.0475,0.0594 -0.15448,0.10695 -0.10696,0.0475 -0.2971,0.0713 -0.19014,0.0238 -0.48723,0.0238 -0.28521,0 -0.47535,-0.0238 -0.19014,-0.0238 -0.30898,-0.0713 -0.10695,-0.0475 -0.15449,-0.10695 -0.0357,-0.0713 -0.0357,-0.16637 V 59.855514 q 0,-0.08319 0.0357,-0.154489 0.0475,-0.0713 0.15449,-0.118837 0.11884,-0.04754 0.30898,-0.0713 0.19014,-0.02377 0.47535,-0.02377 0.29709,0 0.48723,0.02377 0.19014,0.02377 0.2971,0.0713 0.10695,0.04753 0.15448,0.118837 0.0475,0.0713 0.0475,0.154489 z m 0.22579,-14.308027 q 0,0.689257 -0.26144,0.938816 -0.26144,0.249559 -0.96258,0.249559 -0.68926,0 -0.9507,-0.237675 -0.24956,-0.249559 -0.24956,-0.926932 0,-0.689257 0.26144,-0.938816 0.26144,-0.249558 0.96258,-0.249558 0.68926,0 0.93882,0.249558 0.26144,0.237675 0.26144,0.915048 z m 14.65709,14.308027 q 0,0.0951 -0.0475,0.16637 -0.0475,0.0594 -0.15448,0.10695 -0.10696,0.0475 -0.2971,0.0713 -0.19014,0.0238 -0.47535,0.0238 -0.29709,0 -0.48723,-0.0238 -0.19014,-0.0238 -0.29709,-0.0713 -0.10696,-0.0475 -0.15449,-0.10695 -0.0475,-0.0713 -0.0475,-0.16637 v -6.26273 q 0,-0.91505 -0.1426,-1.47359 -0.14261,-0.558534 -0.41593,-0.962581 -0.27333,-0.404047 -0.71303,-0.617955 -0.42781,-0.213907 -0.99823,-0.213907 -0.73679,0 -1.47359,0.522885 -0.73679,0.522884 -1.54488,1.532998 v 7.47488 q 0,0.0951 -0.0475,0.16637 -0.0475,0.0594 -0.15449,0.10695 -0.10695,0.0475 -0.29709,0.0713 -0.19014,0.0238 -0.48723,0.0238 -0.28521,0 -0.47535,-0.0238 -0.19014,-0.0238 -0.30898,-0.0713 -0.10695,-0.0475 -0.15449,-0.10695 -0.0357,-0.0713 -0.0357,-0.16637 V 59.855514 q 0,-0.09507 0.0357,-0.154489 0.0356,-0.0713 0.14261,-0.118837 0.10695,-0.05942 0.27332,-0.0713 0.16638,-0.02377 0.4397,-0.02377 0.26144,0 0.42782,0.02377 0.17825,0.01188 0.27332,0.0713 0.0951,0.04753 0.13072,0.118837 0.0475,0.05942 0.0475,0.154489 v 1.414165 q 0.90316,-1.010118 1.79444,-1.473584 0.90317,-0.47535 1.81822,-0.47535 1.06953,0 1.79444,0.368396 0.73679,0.356512 1.18837,0.962583 0.45159,0.606071 0.64173,1.426049 0.20202,0.80809 0.20202,1.94893 z"
     id="text35"
     style="font-size:24.3379px;line-height:0.9;font-family:Calibri;-inkscape-font-specification:Calibri;letter-spacing:2.04844px;fill:#f5f5f4;stroke-width:2.02814;stroke-dashoffset:5.32"
     aria-label="in" />
  <rect
     style="fill:#f43f5e;fill-opacity:1;stroke:none;stroke-width:0.759536;stroke-dasharray:none;stroke-dashoffset:5.32"
     id="rect36"
     width="25.382923"
     height="25.382923"
     x="356.27487"
     y="50.307316" />
  <path
     d="m 425.65653,70.550883 q 0,0.0951 -0.0475,0.16637 -0.0475,0.0594 -0.15449,0.10695 -0.10695,0.0475 -0.29709,0.0713 -0.19014,0.0238 -0.48724,0.0238 -0.28521,0 -0.47535,-0.0238 -0.19014,-0.0238 -0.30897,-0.0713 -0.10696,-0.0475 -0.15449,-0.10695 -0.0356,-0.0713 -0.0356,-0.16637 V 59.855514 q 0,-0.08319 0.0356,-0.154489 0.0475,-0.0713 0.15449,-0.118837 0.11883,-0.04754 0.30897,-0.0713 0.19014,-0.02377 0.47535,-0.02377 0.2971,0 0.48724,0.02377 0.19014,0.02377 0.29709,0.0713 0.10695,0.04753 0.15449,0.118837 0.0475,0.0713 0.0475,0.154489 z m 0.22579,-14.308027 q 0,0.689257 -0.26144,0.938816 -0.26144,0.249559 -0.96258,0.249559 -0.68926,0 -0.9507,-0.237675 -0.24956,-0.249559 -0.24956,-0.926932 0,-0.689257 0.26144,-0.938816 0.26145,-0.249558 0.96259,-0.249558 0.68925,0 0.93881,0.249558 0.26144,0.237675 0.26144,0.915048 z m 14.65709,14.308027 q 0,0.0951 -0.0475,0.16637 -0.0475,0.0594 -0.15449,0.10695 -0.10695,0.0475 -0.29709,0.0713 -0.19014,0.0238 -0.47535,0.0238 -0.2971,0 -0.48724,-0.0238 -0.19014,-0.0238 -0.29709,-0.0713 -0.10695,-0.0475 -0.15449,-0.10695 -0.0475,-0.0713 -0.0475,-0.16637 v -6.26273 q 0,-0.91505 -0.14261,-1.47359 -0.1426,-0.558534 -0.41593,-0.962581 -0.27333,-0.404047 -0.71302,-0.617955 -0.42782,-0.213907 -0.99824,-0.213907 -0.73679,0 -1.47358,0.522885 -0.73679,0.522884 -1.54489,1.532998 v 7.47488 q 0,0.0951 -0.0475,0.16637 -0.0475,0.0594 -0.15449,0.10695 -0.10696,0.0475 -0.2971,0.0713 -0.19014,0.0238 -0.48723,0.0238 -0.28521,0 -0.47535,-0.0238 -0.19014,-0.0238 -0.30898,-0.0713 -0.10695,-0.0475 -0.15448,-0.10695 -0.0357,-0.0713 -0.0357,-0.16637 V 59.855514 q 0,-0.09507 0.0357,-0.154489 0.0356,-0.0713 0.1426,-0.118837 0.10695,-0.05942 0.27333,-0.0713 0.16637,-0.02377 0.43969,-0.02377 0.26145,0 0.42782,0.02377 0.17826,0.01188 0.27333,0.0713 0.0951,0.04753 0.13072,0.118837 0.0475,0.05942 0.0475,0.154489 v 1.414165 q 0.90317,-1.010118 1.79445,-1.473584 0.90316,-0.47535 1.81821,-0.47535 1.06953,0 1.79444,0.368396 0.73679,0.356512 1.18838,0.962583 0.45158,0.606071 0.64172,1.426049 0.20202,0.80809 0.20202,1.94893 z m 14.78781,-0.58231 q 0,0.21391 -0.0356,0.38028 -0.0238,0.16638 -0.0832,0.28521 -0.0475,0.10696 -0.14261,0.16638 -0.0832,0.0475 -0.19014,0.0475 h -8.49687 q -0.16638,0 -0.2971,-0.0357 -0.11883,-0.0475 -0.2139,-0.14261 -0.0832,-0.0951 -0.13073,-0.27332 -0.0356,-0.17826 -0.0356,-0.4397 0,-0.23768 0.0119,-0.41593 0.0238,-0.17826 0.0832,-0.30898 0.0594,-0.1426 0.14261,-0.27332 0.0951,-0.14261 0.23767,-0.2971 l 2.98282,-3.16107 q 1.03389,-1.09331 1.65184,-1.96082 0.62984,-0.86751 0.96258,-1.580537 0.34463,-0.713025 0.45159,-1.295328 0.10695,-0.582303 0.10695,-1.093304 0,-0.511001 -0.16637,-0.962583 -0.16637,-0.463466 -0.48724,-0.808095 -0.30897,-0.344628 -0.78432,-0.546652 -0.47535,-0.202023 -1.09331,-0.202023 -0.7249,0 -1.30721,0.202023 -0.57042,0.202024 -1.01012,0.439699 -0.42781,0.237675 -0.7249,0.439698 -0.28521,0.202024 -0.42782,0.202024 -0.0832,0 -0.15449,-0.04754 -0.0594,-0.04753 -0.10695,-0.154489 -0.0356,-0.106953 -0.0594,-0.28521 -0.0238,-0.178256 -0.0238,-0.427814 0,-0.178256 0.0119,-0.308977 0.0119,-0.130722 0.0356,-0.225792 0.0356,-0.09507 0.0832,-0.178256 0.0475,-0.08319 0.19014,-0.202023 0.14261,-0.130721 0.48724,-0.344629 0.35651,-0.213907 0.87939,-0.415931 0.53477,-0.213907 1.16461,-0.356512 0.64172,-0.142605 1.34286,-0.142605 1.11707,0 1.94894,0.320861 0.84374,0.308978 1.39039,0.85563 0.55854,0.546652 0.83187,1.27156 0.27332,0.724908 0.27332,1.544886 0,0.736792 -0.13072,1.473584 -0.13072,0.724908 -0.55854,1.580537 -0.41593,0.843748 -1.21214,1.889518 -0.79621,1.03389 -2.1153,2.38863 l -2.43617,2.54312 h 6.69055 q 0.0951,0 0.17825,0.0594 0.0951,0.0475 0.15449,0.15449 0.0713,0.10696 0.0951,0.27333 0.0356,0.15449 0.0356,0.36839 z"
     id="text36"
     style="font-size:24.3379px;line-height:0.9;font-family:Calibri;-inkscape-font-specification:Calibri;letter-spacing:2.04844px;fill:#f5f5f4;stroke-width:2.02814;stroke-dashoffset:5.32"
     aria-label="in2" />
  <path
     d="m 164.77349,298.66526 q 0,1.22938 -0.32411,2.26876 -0.3241,1.0282 -0.97232,1.777 -0.63704,0.7488 -1.60936,1.17349 -0.96115,0.41352 -2.23523,0.41352 -1.24055,0 -2.16816,-0.36881 -0.91645,-0.36882 -1.53113,-1.07291 -0.61468,-0.7041 -0.91645,-1.70995 -0.30174,-1.00585 -0.30174,-2.27993 0,-1.22937 0.31292,-2.25757 0.32411,-1.03938 0.96115,-1.78818 0.64822,-0.7488 1.60937,-1.16232 0.96115,-0.41352 2.2464,-0.41352 1.24055,0 2.15699,0.36882 0.92761,0.36881 1.5423,1.0729 0.61468,0.7041 0.91644,1.70995 0.31293,1.00585 0.31293,2.26875 z m -1.94465,0.12294 q 0,-0.81586 -0.15646,-1.5423 -0.14529,-0.72645 -0.49175,-1.27408 -0.34646,-0.54763 -0.93879,-0.86056 -0.59234,-0.32411 -1.47525,-0.32411 -0.81586,0 -1.40819,0.29058 -0.58116,0.29058 -0.96115,0.82703 -0.37999,0.52528 -0.56997,1.25173 -0.17882,0.72644 -0.17882,1.58701 0,0.82703 0.14528,1.55348 0.15646,0.72644 0.50292,1.27408 0.35764,0.53645 0.94997,0.86056 0.59234,0.31293 1.47525,0.31293 0.80468,0 1.39702,-0.29058 0.59233,-0.29058 0.97232,-0.81586 0.37999,-0.52528 0.55881,-1.25172 0.17881,-0.72645 0.17881,-1.59819 z m 14.7343,-5.06278 q 0,0.0447 -0.0112,0.10058 0,0.0447 -0.0112,0.10059 -0.0112,0.0559 -0.0335,0.12293 -0.0112,0.0671 -0.0335,0.14529 l -3.43107,9.55559 q -0.0447,0.12294 -0.12293,0.20117 -0.0671,0.0782 -0.21235,0.12294 -0.14529,0.0447 -0.36881,0.0559 -0.22352,0.0224 -0.55881,0.0224 -0.33528,0 -0.5588,-0.0224 -0.22353,-0.0223 -0.36882,-0.0671 -0.1341,-0.0447 -0.21234,-0.12294 -0.0782,-0.0782 -0.12294,-0.18999 l -3.41989,-9.55559 q -0.0447,-0.13411 -0.0782,-0.23469 -0.0224,-0.10059 -0.0335,-0.14529 0,-0.0559 0,-0.0894 0,-0.0894 0.0447,-0.15647 0.0447,-0.0671 0.14529,-0.10058 0.11176,-0.0447 0.2794,-0.0559 0.17882,-0.0112 0.43587,-0.0112 0.32411,0 0.5141,0.0223 0.20117,0.0112 0.30176,0.0559 0.11176,0.0447 0.15646,0.11176 0.0559,0.0671 0.10059,0.16764 l 2.83873,8.29269 0.0447,0.13411 0.0335,-0.13411 2.8052,-8.29269 q 0.0224,-0.10058 0.0782,-0.16764 0.0559,-0.067 0.15646,-0.11176 0.11176,-0.0447 0.29058,-0.0559 0.19,-0.0223 0.49175,-0.0223 0.25705,0 0.42469,0.0112 0.16765,0.0112 0.25705,0.0559 0.10059,0.0447 0.13412,0.11176 0.0447,0.0559 0.0447,0.14529 z m 12.37614,4.61574 q 0,0.43586 -0.22353,0.62586 -0.21234,0.17882 -0.49175,0.17882 h -6.59391 q 0,0.83821 0.16764,1.50877 0.16765,0.67057 0.55881,1.15114 0.39116,0.48058 1.01703,0.73763 0.62586,0.25705 1.53113,0.25705 0.71527,0 1.27407,-0.11176 0.55881,-0.12294 0.96115,-0.26823 0.41352,-0.14529 0.67057,-0.25705 0.26823,-0.12294 0.40234,-0.12294 0.0782,0 0.13411,0.0447 0.0671,0.0335 0.10059,0.11176 0.0335,0.0782 0.0447,0.22352 0.0223,0.13411 0.0223,0.33528 0,0.14529 -0.0112,0.25705 -0.0112,0.10059 -0.0335,0.19 -0.0112,0.0782 -0.0559,0.14529 -0.0335,0.0671 -0.10059,0.13411 -0.0559,0.0559 -0.35763,0.20117 -0.30176,0.13412 -0.78233,0.26823 -0.48057,0.13411 -1.11761,0.2347 -0.62587,0.11176 -1.34114,0.11176 -1.24055,0 -2.17934,-0.34646 -0.92762,-0.34646 -1.56466,-1.0282 -0.63704,-0.68175 -0.96115,-1.70995 -0.3241,-1.0282 -0.3241,-2.39169 0,-1.29643 0.33528,-2.32463 0.33528,-1.03938 0.96115,-1.75466 0.63704,-0.72644 1.53113,-1.10643 0.89409,-0.39117 2.00052,-0.39117 1.18467,0 2.0117,0.37999 0.83821,0.37999 1.37467,1.0282 0.53645,0.63704 0.78233,1.50878 0.25705,0.86056 0.25705,1.84406 z m -1.85524,-0.54763 q 0.0335,-1.4529 -0.64821,-2.27993 -0.67057,-0.82704 -2.00053,-0.82704 -0.68174,0 -1.19585,0.25705 -0.5141,0.25705 -0.86056,0.68175 -0.34646,0.42469 -0.53645,0.99467 -0.19,0.55881 -0.21235,1.1735 z m 12.46554,-3.38637 q 0,0.24587 -0.0112,0.41352 -0.0112,0.16764 -0.0447,0.26822 -0.0335,0.0894 -0.0894,0.14529 -0.0447,0.0447 -0.13412,0.0447 -0.0894,0 -0.22352,-0.0447 -0.12294,-0.0559 -0.29058,-0.10058 -0.15647,-0.0559 -0.35764,-0.10059 -0.20117,-0.0447 -0.43586,-0.0447 -0.27941,0 -0.54763,0.11176 -0.26823,0.11176 -0.56999,0.36881 -0.29058,0.25705 -0.61468,0.68175 -0.32411,0.42469 -0.71528,1.03937 v 6.61627 q 0,0.0894 -0.0447,0.15647 -0.0447,0.0559 -0.14529,0.10058 -0.10058,0.0447 -0.2794,0.0671 -0.17882,0.0224 -0.45822,0.0224 -0.26823,0 -0.44705,-0.0224 -0.17882,-0.0223 -0.29058,-0.0671 -0.10058,-0.0447 -0.14529,-0.10058 -0.0335,-0.0671 -0.0335,-0.15647 v -10.05851 q 0,-0.0894 0.0335,-0.14529 0.0335,-0.0671 0.13412,-0.11176 0.10058,-0.0559 0.25705,-0.0671 0.15646,-0.0223 0.41351,-0.0223 0.24588,0 0.40234,0.0223 0.16765,0.0112 0.25705,0.0671 0.0894,0.0447 0.12294,0.11176 0.0447,0.0559 0.0447,0.14529 v 1.46407 q 0.41351,-0.60351 0.77115,-0.9835 0.36881,-0.37999 0.69292,-0.59233 0.32411,-0.22352 0.63704,-0.30176 0.32411,-0.0894 0.64821,-0.0894 0.14529,0 0.32411,0.0224 0.18999,0.0112 0.39116,0.0559 0.20117,0.0447 0.35764,0.10058 0.16764,0.0559 0.2347,0.11176 0.0671,0.0559 0.0894,0.11176 0.0224,0.0447 0.0335,0.12294 0.0223,0.0782 0.0223,0.2347 0.0112,0.14529 0.0112,0.40234 z"
     id="text37"
     style="font-size:22.8887px;line-height:0.9;font-family:Calibri;-inkscape-font-specification:Calibri;letter-spacing:1.92646px;fill:#f5f5f4;stroke-width:1.90738;stroke-dashoffset:5.32"
     aria-label="over" />
  <path
     d="m 389.02693,303.80628 q 0,0.0894 -0.0447,0.15647 -0.0447,0.0559 -0.14528,0.10058 -0.10059,0.0447 -0.27941,0.0671 -0.17881,0.0224 -0.45821,0.0224 -0.26824,0 -0.44705,-0.0224 -0.17881,-0.0223 -0.29057,-0.0671 -0.10059,-0.0447 -0.14529,-0.10058 -0.0335,-0.0671 -0.0335,-0.15647 v -10.05851 q 0,-0.0782 0.0335,-0.14529 0.0447,-0.0671 0.14529,-0.11176 0.11176,-0.0447 0.29057,-0.0671 0.17881,-0.0223 0.44705,-0.0223 0.2794,0 0.45821,0.0223 0.17882,0.0224 0.27941,0.0671 0.10058,0.0447 0.14528,0.11176 0.0447,0.0671 0.0447,0.14529 z m 0.21235,-13.45605 q 0,0.64821 -0.24588,0.88291 -0.24587,0.2347 -0.90526,0.2347 -0.64821,0 -0.89409,-0.22352 -0.23469,-0.2347 -0.23469,-0.87174 0,-0.64822 0.24587,-0.88291 0.24588,-0.2347 0.90527,-0.2347 0.64821,0 0.8829,0.2347 0.24588,0.22352 0.24588,0.86056 z m 13.78432,13.45605 q 0,0.0894 -0.0447,0.15647 -0.0447,0.0559 -0.14529,0.10058 -0.10059,0.0447 -0.2794,0.0671 -0.17881,0.0224 -0.44705,0.0224 -0.2794,0 -0.45821,-0.0224 -0.17882,-0.0223 -0.2794,-0.0671 -0.1006,-0.0447 -0.14529,-0.10058 -0.0447,-0.0671 -0.0447,-0.15647 v -5.88982 q 0,-0.86056 -0.13411,-1.38584 -0.13412,-0.52527 -0.39117,-0.90526 -0.25705,-0.37999 -0.67056,-0.58116 -0.40234,-0.20117 -0.93881,-0.20117 -0.69292,0 -1.38583,0.49175 -0.69292,0.49175 -1.4529,1.44172 v 7.02978 q 0,0.0894 -0.0447,0.15647 -0.0447,0.0559 -0.14529,0.10058 -0.10058,0.0447 -0.2794,0.0671 -0.17882,0.0224 -0.45822,0.0224 -0.26823,0 -0.44705,-0.0224 -0.17881,-0.0223 -0.29057,-0.0671 -0.10059,-0.0447 -0.14529,-0.10058 -0.0335,-0.0671 -0.0335,-0.15647 v -10.05851 q 0,-0.0894 0.0335,-0.14529 0.0335,-0.0671 0.13411,-0.11176 0.10058,-0.0559 0.25705,-0.0671 0.15647,-0.0223 0.41352,-0.0223 0.24587,0 0.40234,0.0223 0.16764,0.0112 0.25705,0.0671 0.0894,0.0447 0.12294,0.11176 0.0447,0.0559 0.0447,0.14529 v 1.32996 q 0.84938,-0.94997 1.68759,-1.38584 0.84939,-0.44705 1.70995,-0.44705 1.00585,0 1.6876,0.34646 0.69292,0.33529 1.11761,0.90527 0.42469,0.56998 0.60351,1.34113 0.18999,0.75998 0.18999,1.83289 z"
     id="text38"
     style="font-size:22.8887px;line-height:0.9;font-family:Calibri;-inkscape-font-specification:Calibri;letter-spacing:1.92646px;fill:#f5f5f4;stroke-width:1.90738;stroke-dashoffset:5.32"
     aria-label="in" />
  <path
     d="m 626.4291,303.81746 q 0,0.13411 -0.0894,0.20117 -0.0894,0.0671 -0.24586,0.10058 -0.15648,0.0335 -0.45822,0.0335 -0.29058,0 -0.4694,-0.0335 -0.16764,-0.0335 -0.24587,-0.10058 -0.0782,-0.0671 -0.0782,-0.20117 v -1.00586 q -0.65939,0.7041 -1.47524,1.09526 -0.80468,0.39117 -1.70995,0.39117 -0.79351,0 -1.44173,-0.21235 -0.63703,-0.20117 -1.09526,-0.59233 -0.44705,-0.39117 -0.7041,-0.96115 -0.24587,-0.56998 -0.24587,-1.29643 0,-0.84938 0.34646,-1.47525 0.34646,-0.62586 0.99467,-1.03938 0.64822,-0.41351 1.58701,-0.61468 0.9388,-0.21235 2.11229,-0.21235 h 1.38584 v -0.78233 q 0,-0.58116 -0.12293,-1.0282 -0.12294,-0.44705 -0.40234,-0.73763 -0.26823,-0.30175 -0.70409,-0.44704 -0.43587,-0.15647 -1.07291,-0.15647 -0.68175,0 -1.22938,0.16765 -0.53645,0.15646 -0.94997,0.35763 -0.40234,0.19 -0.68174,0.35764 -0.26823,0.15646 -0.40234,0.15646 -0.0894,0 -0.15647,-0.0447 -0.067,-0.0447 -0.12293,-0.13411 -0.0447,-0.0894 -0.0671,-0.22353 -0.0223,-0.14529 -0.0223,-0.31293 0,-0.2794 0.0335,-0.43587 0.0447,-0.16764 0.18999,-0.31293 0.15647,-0.14529 0.52528,-0.33528 0.36881,-0.20117 0.84938,-0.35764 0.48058,-0.16764 1.05056,-0.26823 0.56998,-0.11176 1.15114,-0.11176 1.08408,0 1.84406,0.24588 0.75998,0.24587 1.22937,0.72645 0.4694,0.46939 0.68175,1.17349 0.21234,0.70409 0.21234,1.64289 z m -1.83288,-4.59339 h -1.57583 q -0.75998,0 -1.31879,0.13411 -0.5588,0.12294 -0.92761,0.37999 -0.36882,0.24588 -0.54763,0.60351 -0.16765,0.34646 -0.16765,0.80468 0,0.78233 0.49175,1.25173 0.50293,0.45822 1.39702,0.45822 0.72645,0 1.34113,-0.36881 0.62587,-0.36881 1.30761,-1.12879 z m 12.16379,3.84459 q 0,0.3241 -0.0447,0.5141 -0.0447,0.18999 -0.13411,0.2794 -0.0894,0.0894 -0.26823,0.16764 -0.17881,0.0782 -0.41351,0.12294 -0.22353,0.0559 -0.48058,0.0894 -0.25705,0.0335 -0.5141,0.0335 -0.78233,0 -1.34113,-0.20117 -0.55881,-0.21235 -0.91644,-0.62587 -0.35764,-0.42469 -0.52528,-1.06173 -0.15647,-0.64821 -0.15647,-1.51995 v -5.87864 h -1.40819 q -0.16764,0 -0.26823,-0.17882 -0.10058,-0.17882 -0.10058,-0.58116 0,-0.21234 0.0223,-0.35763 0.0335,-0.14529 0.0782,-0.2347 0.0447,-0.10059 0.11176,-0.13412 0.0782,-0.0447 0.16765,-0.0447 h 1.39701 v -2.39169 q 0,-0.0782 0.0335,-0.14529 0.0447,-0.0671 0.14529,-0.11176 0.11176,-0.0559 0.29058,-0.0782 0.17882,-0.0224 0.44704,-0.0224 0.27941,0 0.45822,0.0224 0.17882,0.0224 0.27941,0.0782 0.10058,0.0447 0.14529,0.11176 0.0447,0.0671 0.0447,0.14529 v 2.39169 h 2.58169 q 0.0894,0 0.15646,0.0447 0.0671,0.0335 0.11176,0.13412 0.0559,0.0894 0.0782,0.2347 0.0224,0.14529 0.0224,0.35763 0,0.40234 -0.10059,0.58116 -0.10058,0.17882 -0.26822,0.17882 h -2.58169 v 5.61041 q 0,1.03938 0.30176,1.57584 0.31293,0.52527 1.10643,0.52527 0.25705,0 0.45822,-0.0447 0.20117,-0.0559 0.35764,-0.11176 0.15647,-0.0559 0.26823,-0.10059 0.11176,-0.0559 0.20117,-0.0559 0.0559,0 0.10058,0.0335 0.0559,0.0224 0.0782,0.10059 0.0335,0.0782 0.0559,0.21234 0.0224,0.13412 0.0224,0.33529 z m 13.49375,-4.4034 q 0,1.22938 -0.32411,2.26876 -0.32411,1.0282 -0.97232,1.777 -0.63704,0.7488 -1.60937,1.17349 -0.96114,0.41352 -2.23522,0.41352 -1.24055,0 -2.16817,-0.36881 -0.91644,-0.36882 -1.53113,-1.07291 -0.61468,-0.7041 -0.91644,-1.70995 -0.30175,-1.00585 -0.30175,-2.27993 0,-1.22937 0.31293,-2.25757 0.3241,-1.03938 0.96114,-1.78818 0.64822,-0.7488 1.60937,-1.16232 0.96114,-0.41352 2.2464,-0.41352 1.24055,0 2.15699,0.36882 0.92762,0.36881 1.5423,1.0729 0.61469,0.7041 0.91645,1.70995 0.31293,1.00585 0.31293,2.26875 z m -1.94465,0.12294 q 0,-0.81586 -0.15646,-1.5423 -0.14529,-0.72645 -0.49175,-1.27408 -0.34646,-0.54763 -0.9388,-0.86056 -0.59233,-0.32411 -1.47525,-0.32411 -0.81585,0 -1.40819,0.29058 -0.58116,0.29058 -0.96114,0.82703 -0.37999,0.52528 -0.56999,1.25173 -0.17881,0.72644 -0.17881,1.58701 0,0.82703 0.14528,1.55348 0.15647,0.72644 0.50293,1.27408 0.35764,0.53645 0.94997,0.86056 0.59234,0.31293 1.47525,0.31293 0.80468,0 1.39701,-0.29058 0.59234,-0.29058 0.97233,-0.81586 0.37999,-0.52528 0.5588,-1.25172 0.17882,-0.72645 0.17882,-1.59819 z m 15.84074,-0.16764 q 0,1.31878 -0.29058,2.36934 -0.27941,1.05055 -0.83821,1.78818 -0.54763,0.72644 -1.36349,1.12878 -0.81586,0.39117 -1.86641,0.39117 -0.44705,0 -0.82704,-0.0894 -0.37998,-0.0894 -0.7488,-0.2794 -0.35763,-0.19 -0.71527,-0.48058 -0.35763,-0.29058 -0.75997,-0.68174 v 5.02926 q 0,0.0894 -0.0447,0.15646 -0.0447,0.0671 -0.14529,0.11176 -0.10058,0.0447 -0.2794,0.0671 -0.17882,0.0224 -0.45822,0.0224 -0.26823,0 -0.44705,-0.0224 -0.17882,-0.0224 -0.29058,-0.0671 -0.10058,-0.0447 -0.14529,-0.11176 -0.0335,-0.0671 -0.0335,-0.15646 v -14.04839 q 0,-0.10059 0.0335,-0.15647 0.0335,-0.067 0.13412,-0.11176 0.10058,-0.0447 0.25705,-0.0559 0.15646,-0.0223 0.37999,-0.0223 0.23469,0 0.37998,0.0223 0.15647,0.0112 0.25706,0.0559 0.10059,0.0447 0.13412,0.11176 0.0447,0.0559 0.0447,0.15647 v 1.35231 q 0.45822,-0.4694 0.88292,-0.81586 0.42469,-0.34646 0.84938,-0.56998 0.43587,-0.2347 0.88292,-0.34646 0.45822,-0.12294 0.96114,-0.12294 1.09526,0 1.86641,0.4247 0.77116,0.42469 1.25173,1.16231 0.49175,0.73763 0.71527,1.72113 0.22353,0.97232 0.22353,2.06758 z m -1.94465,0.21234 q 0,-0.77115 -0.12294,-1.48642 -0.11176,-0.72645 -0.40234,-1.28525 -0.2794,-0.55881 -0.75997,-0.89409 -0.48058,-0.33529 -1.19585,-0.33529 -0.35764,0 -0.7041,0.11176 -0.34646,0.10059 -0.70409,0.33529 -0.35764,0.22352 -0.7488,0.60351 -0.39117,0.36881 -0.82703,0.91644 v 4.00105 q 0.75997,0.92762 1.44172,1.41937 0.68174,0.49175 1.43054,0.49175 0.69292,0 1.18467,-0.33528 0.50292,-0.33529 0.80468,-0.89409 0.31293,-0.55881 0.45822,-1.25173 0.14529,-0.69292 0.14529,-1.39702 z"
     id="text39"
     style="font-size:22.8887px;line-height:0.9;font-family:Calibri;-inkscape-font-specification:Calibri;letter-spacing:1.92646px;fill:#f5f5f4;stroke-width:1.90738;stroke-dashoffset:5.32"
     aria-label="atop" />
  <path
     d="m 163.0412,546.26428 q 0.0894,0.15647 0.0894,0.26823 0,0.10058 -0.11176,0.16764 -0.10059,0.0671 -0.32411,0.0894 -0.21235,0.0335 -0.55881,0.0335 -0.33528,0 -0.53645,-0.0223 -0.18999,-0.0112 -0.31293,-0.0447 -0.11176,-0.0447 -0.17882,-0.10058 -0.0559,-0.0671 -0.10058,-0.14529 l -2.41405,-3.98988 -2.40286,3.98988 q -0.0447,0.0782 -0.11176,0.14529 -0.0559,0.0559 -0.17882,0.10058 -0.11176,0.0335 -0.30176,0.0447 -0.18999,0.0223 -0.50292,0.0223 -0.32411,0 -0.53646,-0.0335 -0.20117,-0.0224 -0.30175,-0.0894 -0.0894,-0.0671 -0.0894,-0.16764 0.0112,-0.11176 0.11176,-0.26823 l 3.12931,-4.90632 -2.96167,-4.7275 q -0.0894,-0.15646 -0.10058,-0.25705 0,-0.11176 0.10058,-0.17881 0.11176,-0.0782 0.32411,-0.10059 0.22352,-0.0224 0.58116,-0.0224 0.32411,0 0.5141,0.0224 0.20117,0.0112 0.31293,0.0447 0.11176,0.0335 0.16764,0.0894 0.0559,0.0559 0.10059,0.13412 l 2.2911,3.744 2.32464,-3.744 q 0.0447,-0.0671 0.10058,-0.12294 0.0559,-0.0559 0.14529,-0.0894 0.10059,-0.0447 0.26823,-0.0559 0.17882,-0.0224 0.48057,-0.0224 0.32411,0 0.52528,0.0224 0.21235,0.0223 0.31293,0.0894 0.10059,0.0559 0.0894,0.16764 -0.0112,0.11176 -0.11176,0.2794 l -2.93932,4.67162 z m 12.95729,-4.92867 q 0,1.22938 -0.3241,2.26876 -0.32411,1.0282 -0.97233,1.777 -0.63703,0.7488 -1.60936,1.17349 -0.96114,0.41352 -2.23522,0.41352 -1.24056,0 -2.16817,-0.36881 -0.91644,-0.36882 -1.53113,-1.07291 -0.61469,-0.7041 -0.91644,-1.70995 -0.30176,-1.00585 -0.30176,-2.27993 0,-1.22937 0.31294,-2.25757 0.3241,-1.03938 0.96114,-1.78818 0.64822,-0.7488 1.60936,-1.16232 0.96115,-0.41352 2.2464,-0.41352 1.24055,0 2.157,0.36881 0.92761,0.36882 1.5423,1.07291 0.61469,0.7041 0.91644,1.70995 0.31293,1.00585 0.31293,2.26875 z m -1.94464,0.12294 q 0,-0.81586 -0.15648,-1.54231 -0.14528,-0.72644 -0.49174,-1.27407 -0.34647,-0.54763 -0.9388,-0.86057 -0.59233,-0.3241 -1.47524,-0.3241 -0.81586,0 -1.40819,0.29058 -0.58116,0.29058 -0.96115,0.82703 -0.37998,0.52528 -0.56998,1.25173 -0.17882,0.72644 -0.17882,1.587 0,0.82704 0.14529,1.55349 0.15647,0.72644 0.50293,1.27407 0.35763,0.53646 0.94997,0.86057 0.59233,0.31293 1.47524,0.31293 0.80468,0 1.39701,-0.29058 0.59234,-0.29058 0.97233,-0.81586 0.37998,-0.52528 0.5588,-1.25172 0.17882,-0.72645 0.17883,-1.59819 z m 12.46554,-4.38104 q 0,0.24587 -0.0112,0.41352 -0.0112,0.16764 -0.0447,0.26822 -0.0335,0.0894 -0.0894,0.14529 -0.0447,0.0447 -0.1341,0.0447 -0.0894,0 -0.22353,-0.0447 -0.12294,-0.0559 -0.29058,-0.10058 -0.15647,-0.0559 -0.35764,-0.10059 -0.20117,-0.0447 -0.43587,-0.0447 -0.2794,0 -0.54763,0.11176 -0.26822,0.11176 -0.56997,0.36881 -0.29058,0.25705 -0.61468,0.68174 -0.32411,0.4247 -0.71528,1.03938 v 6.61627 q 0,0.0894 -0.0447,0.15646 -0.0447,0.0559 -0.14529,0.10059 -0.10059,0.0447 -0.2794,0.0671 -0.17882,0.0223 -0.45823,0.0223 -0.26822,0 -0.44704,-0.0223 -0.17883,-0.0224 -0.29059,-0.0671 -0.10058,-0.0447 -0.14528,-0.10059 -0.0335,-0.067 -0.0335,-0.15646 v -10.05851 q 0,-0.0894 0.0335,-0.14529 0.0335,-0.0671 0.1341,-0.11176 0.1006,-0.0559 0.25706,-0.0671 0.15647,-0.0224 0.41351,-0.0224 0.24588,0 0.40235,0.0224 0.16764,0.0112 0.25704,0.0671 0.0894,0.0447 0.12294,0.11176 0.0447,0.0559 0.0447,0.14529 v 1.46407 q 0.41351,-0.60351 0.77115,-0.9835 0.36881,-0.37999 0.69291,-0.59233 0.32411,-0.22353 0.63705,-0.30176 0.32409,-0.0894 0.64821,-0.0894 0.14529,0 0.32411,0.0223 0.18999,0.0112 0.39116,0.0559 0.20117,0.0447 0.35764,0.10058 0.16764,0.0559 0.2347,0.11176 0.067,0.0559 0.0894,0.11176 0.0224,0.0447 0.0335,0.12294 0.0223,0.0782 0.0223,0.2347 0.0112,0.14529 0.0112,0.40234 z"
     id="text40"
     style="font-size:22.8887px;line-height:0.9;font-family:Calibri;-inkscape-font-specification:Calibri;letter-spacing:1.92646px;fill:#f5f5f4;stroke-width:1.90738;stroke-dashoffset:5.32"
     aria-label="xor" />
  <path
     d="m 394.45458,541.33561 q 0,1.22938 -0.32411,2.26876 -0.3241,1.0282 -0.97232,1.777 -0.63704,0.7488 -1.60936,1.17349 -0.96115,0.41352 -2.23523,0.41352 -1.24055,0 -2.16816,-0.36881 -0.91645,-0.36882 -1.53113,-1.07291 -0.61469,-0.7041 -0.91644,-1.70995 -0.30176,-1.00585 -0.30176,-2.27993 0,-1.22937 0.31293,-2.25757 0.32411,-1.03938 0.96115,-1.78818 0.64821,-0.7488 1.60936,-1.16232 0.96115,-0.41352 2.2464,-0.41352 1.24055,0 2.15699,0.36881 0.92762,0.36882 1.54231,1.07291 0.61468,0.7041 0.91644,1.70995 0.31293,1.00585 0.31293,2.26875 z m -1.94464,0.12294 q 0,-0.81586 -0.15647,-1.54231 -0.14529,-0.72644 -0.49175,-1.27407 -0.34646,-0.54763 -0.93879,-0.86057 -0.59234,-0.3241 -1.47525,-0.3241 -0.81586,0 -1.40819,0.29058 -0.58116,0.29058 -0.96115,0.82703 -0.37999,0.52528 -0.56998,1.25173 -0.17882,0.72644 -0.17882,1.587 0,0.82704 0.14529,1.55349 0.15647,0.72644 0.50292,1.27407 0.35764,0.53646 0.94998,0.86057 0.59233,0.31293 1.47524,0.31293 0.80468,0 1.39702,-0.29058 0.59233,-0.29058 0.97232,-0.81586 0.37999,-0.52528 0.55881,-1.25172 0.17882,-0.72645 0.17882,-1.59819 z m 15.20369,5.01808 q 0,0.0894 -0.0447,0.15646 -0.0335,0.0559 -0.13412,0.10059 -0.10058,0.0447 -0.26822,0.0671 -0.15647,0.0223 -0.39117,0.0223 -0.25704,0 -0.42469,-0.0223 -0.15647,-0.0224 -0.25704,-0.0671 -0.0894,-0.0447 -0.12295,-0.10059 -0.0335,-0.067 -0.0335,-0.15646 v -1.32996 q -0.86056,0.94997 -1.69877,1.38584 -0.83821,0.43587 -1.69877,0.43587 -1.00585,0 -1.69877,-0.33529 -0.68174,-0.33528 -1.10644,-0.90526 -0.42469,-0.58116 -0.61468,-1.34114 -0.17882,-0.77115 -0.17882,-1.86641 v -6.10216 q 0,-0.0894 0.0335,-0.14529 0.0447,-0.0671 0.15646,-0.11176 0.11176,-0.0559 0.29058,-0.0671 0.17882,-0.0224 0.44705,-0.0224 0.26822,0 0.44704,0.0224 0.17882,0.0112 0.27941,0.0671 0.11176,0.0447 0.15646,0.11176 0.0447,0.0559 0.0447,0.14529 v 5.85629 q 0,0.88291 0.12293,1.41936 0.13412,0.52528 0.39117,0.90527 0.26822,0.36881 0.67056,0.58116 0.40235,0.20117 0.9388,0.20117 0.69292,0 1.37466,-0.49175 0.69292,-0.49175 1.46407,-1.44172 v -7.02978 q 0,-0.0894 0.0335,-0.14529 0.0447,-0.0671 0.15647,-0.11176 0.11176,-0.0559 0.2794,-0.0671 0.17882,-0.0224 0.45822,-0.0224 0.26823,0 0.44705,0.0224 0.17882,0.0112 0.2794,0.0671 0.10059,0.0447 0.14529,0.11176 0.0559,0.0559 0.0559,0.14529 z m 10.5656,-0.73763 q 0,0.32411 -0.0447,0.51411 -0.0447,0.18999 -0.13411,0.2794 -0.0894,0.0894 -0.26823,0.16764 -0.17882,0.0782 -0.41352,0.12294 -0.22352,0.0559 -0.48057,0.0894 -0.25705,0.0335 -0.5141,0.0335 -0.78233,0 -1.34114,-0.20117 -0.5588,-0.21235 -0.91644,-0.62587 -0.35763,-0.42469 -0.52528,-1.06173 -0.15646,-0.64821 -0.15646,-1.51995 v -5.87864 h -1.40819 q -0.16765,0 -0.26823,-0.17882 -0.10059,-0.17882 -0.10059,-0.58116 0,-0.21235 0.0224,-0.35763 0.0335,-0.14529 0.0782,-0.2347 0.0447,-0.10059 0.11176,-0.13412 0.0782,-0.0447 0.16764,-0.0447 h 1.39702 v -2.39169 q 0,-0.0782 0.0335,-0.14529 0.0447,-0.0671 0.14529,-0.11176 0.11176,-0.0559 0.29057,-0.0782 0.17882,-0.0224 0.44705,-0.0224 0.2794,0 0.45822,0.0224 0.17882,0.0224 0.2794,0.0782 0.10059,0.0447 0.14529,0.11176 0.0447,0.0671 0.0447,0.14529 v 2.39169 h 2.58168 q 0.0894,0 0.15647,0.0447 0.0671,0.0335 0.11176,0.13412 0.0559,0.0894 0.0782,0.2347 0.0223,0.14528 0.0223,0.35763 0,0.40234 -0.10058,0.58116 -0.10059,0.17882 -0.26823,0.17882 h -2.58168 v 5.61041 q 0,1.03938 0.30175,1.57583 0.31293,0.52528 1.10644,0.52528 0.25705,0 0.45822,-0.0447 0.20117,-0.0559 0.35764,-0.11176 0.15646,-0.0559 0.26822,-0.10059 0.11176,-0.0559 0.20117,-0.0559 0.0559,0 0.10059,0.0335 0.0559,0.0224 0.0782,0.10058 0.0335,0.0782 0.0559,0.21235 0.0223,0.13411 0.0223,0.33528 z"
     id="text41"
     style="font-size:22.8887px;line-height:0.9;font-family:Calibri;-inkscape-font-specification:Calibri;letter-spacing:1.92646px;fill:#f5f5f4;stroke-width:1.90738;stroke-dashoffset:5.32"
     aria-label="out" />
  <path
     d="m 618.56794,546.47663 q 0,0.0894 -0.0447,0.15646 -0.0447,0.0559 -0.14529,0.10059 -0.10058,0.0447 -0.2794,0.0671 -0.17882,0.0223 -0.45822,0.0223 -0.26823,0 -0.44705,-0.0223 -0.17882,-0.0224 -0.29058,-0.0671 -0.10058,-0.0447 -0.14529,-0.10059 -0.0335,-0.067 -0.0335,-0.15646 v -14.9313 q 0,-0.0894 0.0335,-0.15647 0.0447,-0.067 0.14529,-0.11176 0.11176,-0.0447 0.29058,-0.0671 0.17882,-0.0224 0.44705,-0.0224 0.2794,0 0.45822,0.0224 0.17882,0.0224 0.2794,0.0671 0.10059,0.0447 0.14529,0.11176 0.0447,0.0671 0.0447,0.15647 z m 7.17925,0 q 0,0.0894 -0.0447,0.15646 -0.0447,0.0559 -0.1453,0.10059 -0.10059,0.0447 -0.2794,0.0671 -0.17882,0.0223 -0.45823,0.0223 -0.26822,0 -0.44704,-0.0223 -0.17881,-0.0224 -0.29057,-0.0671 -0.10059,-0.0447 -0.1453,-0.10059 -0.0335,-0.067 -0.0335,-0.15646 v -10.05851 q 0,-0.0782 0.0335,-0.14529 0.0447,-0.0671 0.1453,-0.11176 0.11176,-0.0447 0.29057,-0.0671 0.17882,-0.0224 0.44704,-0.0224 0.27941,0 0.45823,0.0224 0.17881,0.0223 0.2794,0.0671 0.10059,0.0447 0.1453,0.11176 0.0447,0.067 0.0447,0.14529 z m 0.21235,-13.45605 q 0,0.64821 -0.24588,0.88291 -0.24587,0.2347 -0.90526,0.2347 -0.64823,0 -0.89409,-0.22352 -0.2347,-0.2347 -0.2347,-0.87174 0,-0.64822 0.24588,-0.88292 0.24587,-0.23469 0.90526,-0.23469 0.64822,0 0.88291,0.23469 0.24588,0.22353 0.24588,0.86057 z m 13.52728,3.85576 q 0,0.39116 -0.11177,0.56998 -0.10058,0.16764 -0.26822,0.16764 h -1.44172 q 0.39116,0.40234 0.54763,0.89409 0.15646,0.48058 0.15646,1.00585 0,0.87174 -0.2794,1.54231 -0.2794,0.67057 -0.80468,1.13996 -0.5141,0.45822 -1.22937,0.7041 -0.71528,0.24587 -1.58701,0.24587 -0.61469,0 -1.1735,-0.15646 -0.54763,-0.16764 -0.84938,-0.41352 -0.20117,0.20117 -0.33529,0.45822 -0.12293,0.25705 -0.12293,0.59234 0,0.39116 0.35763,0.64821 0.36882,0.25705 0.97233,0.27941 l 2.62638,0.11176 q 0.7488,0.0223 1.37467,0.21234 0.62586,0.17882 1.08408,0.52528 0.45822,0.33528 0.71527,0.83821 0.25705,0.49175 0.25705,1.15114 0,0.69292 -0.29057,1.31878 -0.29058,0.62587 -0.89409,1.09526 -0.59234,0.48058 -1.51996,0.7488 -0.92762,0.27941 -2.19052,0.27941 -1.21819,0 -2.07876,-0.21235 -0.84938,-0.20117 -1.39701,-0.55881 -0.54763,-0.35763 -0.79351,-0.86056 -0.24587,-0.49175 -0.24587,-1.0729 0,-0.36882 0.0894,-0.71528 0.0894,-0.34646 0.26822,-0.65939 0.19,-0.31293 0.45823,-0.59233 0.2794,-0.29058 0.63703,-0.56998 -0.54763,-0.27941 -0.81585,-0.7041 -0.25705,-0.42469 -0.25705,-0.91644 0,-0.68175 0.2794,-1.2182 0.2794,-0.53645 0.69292,-0.96115 -0.34646,-0.41351 -0.54763,-0.92762 -0.20117,-0.52527 -0.20117,-1.2629 0,-0.86056 0.29058,-1.5423 0.29058,-0.68175 0.80468,-1.15114 0.5141,-0.4694 1.22937,-0.71527 0.72645,-0.25706 1.57584,-0.25706 0.45822,0 0.84938,0.0559 0.40234,0.0447 0.7488,0.13411 h 3.03991 q 0.18999,0 0.2794,0.18999 0.10059,0.17882 0.10059,0.55881 z m -2.88344,2.64874 q 0,-1.0282 -0.56999,-1.59819 -0.5588,-0.58115 -1.59818,-0.58115 -0.53646,0 -0.9388,0.17881 -0.39116,0.17882 -0.65939,0.49175 -0.25705,0.31293 -0.39116,0.72645 -0.12294,0.40234 -0.12294,0.84939 0,0.99467 0.55881,1.56465 0.56998,0.56999 1.58701,0.56999 0.54763,0 0.94997,-0.16765 0.40234,-0.17881 0.65939,-0.48057 0.26823,-0.31293 0.39116,-0.71527 0.13412,-0.40234 0.13412,-0.83821 z m 0.92761,7.96858 q 0,-0.64822 -0.53645,-0.99468 -0.52528,-0.35763 -1.43054,-0.37999 l -2.60404,-0.0894 q -0.35764,0.27941 -0.59233,0.53646 -0.22353,0.24587 -0.35764,0.46939 -0.13411,0.2347 -0.18999,0.45823 -0.0447,0.22352 -0.0447,0.45822 0,0.72645 0.73762,1.09526 0.73763,0.37999 2.05641,0.37999 0.83821,0 1.39702,-0.16765 0.56998,-0.15646 0.91644,-0.42469 0.34646,-0.26823 0.49175,-0.61469 0.15646,-0.34646 0.15646,-0.72644 z m 14.91312,-1.01703 q 0,0.0894 -0.0447,0.15646 -0.0447,0.0559 -0.14529,0.10059 -0.10059,0.0447 -0.27941,0.0671 -0.17882,0.0223 -0.44704,0.0223 -0.27941,0 -0.45822,-0.0223 -0.17882,-0.0224 -0.27941,-0.0671 -0.10058,-0.0447 -0.14529,-0.10059 -0.0447,-0.067 -0.0447,-0.15646 v -5.88982 q 0,-0.86056 -0.13411,-1.38584 -0.13413,-0.52528 -0.39117,-0.90526 -0.25705,-0.37999 -0.67057,-0.58116 -0.40234,-0.20117 -0.93879,-0.20117 -0.69292,0 -1.38585,0.49175 -0.69291,0.49175 -1.4529,1.44172 v 7.02978 q 0,0.0894 -0.0447,0.15646 -0.0447,0.0559 -0.14529,0.10059 -0.10058,0.0447 -0.2794,0.0671 -0.17882,0.0223 -0.45822,0.0223 -0.26823,0 -0.44705,-0.0223 -0.17882,-0.0224 -0.29058,-0.0671 -0.10058,-0.0447 -0.14529,-0.10059 -0.0335,-0.067 -0.0335,-0.15646 v -14.9313 q 0,-0.0894 0.0335,-0.15647 0.0447,-0.067 0.14529,-0.11176 0.11176,-0.0447 0.29058,-0.0671 0.17882,-0.0224 0.44705,-0.0224 0.2794,0 0.45822,0.0224 0.17882,0.0224 0.2794,0.0671 0.10059,0.0447 0.14529,0.11176 0.0447,0.0671 0.0447,0.15647 v 6.02393 q 0.79351,-0.83821 1.5982,-1.24055 0.80467,-0.41352 1.62054,-0.41352 1.00585,0 1.68759,0.34646 0.69291,0.33529 1.11761,0.90527 0.4247,0.56998 0.60352,1.34113 0.18999,0.75998 0.18999,1.84406 z m 10.30855,-0.73763 q 0,0.32411 -0.0447,0.51411 -0.0447,0.18999 -0.13412,0.2794 -0.0894,0.0894 -0.26823,0.16764 -0.17881,0.0782 -0.41351,0.12294 -0.22352,0.0559 -0.48057,0.0894 -0.25706,0.0335 -0.51411,0.0335 -0.78233,0 -1.34113,-0.20117 -0.55881,-0.21235 -0.91644,-0.62587 -0.35764,-0.42469 -0.52528,-1.06173 -0.15647,-0.64821 -0.15647,-1.51995 v -5.87864 h -1.40819 q -0.16764,0 -0.26823,-0.17882 -0.10058,-0.17882 -0.10058,-0.58116 0,-0.21235 0.0224,-0.35763 0.0335,-0.14529 0.0782,-0.2347 0.0447,-0.10059 0.11177,-0.13412 0.0782,-0.0447 0.16764,-0.0447 h 1.39701 v -2.39169 q 0,-0.0782 0.0335,-0.14529 0.0447,-0.0671 0.14529,-0.11176 0.11176,-0.0559 0.29058,-0.0782 0.17882,-0.0224 0.44705,-0.0224 0.2794,0 0.45822,0.0224 0.17881,0.0224 0.2794,0.0782 0.10058,0.0447 0.14529,0.11176 0.0447,0.0671 0.0447,0.14529 v 2.39169 h 2.58169 q 0.0894,0 0.15646,0.0447 0.0671,0.0335 0.11176,0.13412 0.0559,0.0894 0.0782,0.2347 0.0223,0.14528 0.0223,0.35763 0,0.40234 -0.10059,0.58116 -0.10058,0.17882 -0.26822,0.17882 h -2.58169 v 5.61041 q 0,1.03938 0.30176,1.57583 0.31293,0.52528 1.10643,0.52528 0.25706,0 0.45823,-0.0447 0.20117,-0.0559 0.35763,-0.11176 0.15647,-0.0559 0.26823,-0.10059 0.11176,-0.0559 0.20117,-0.0559 0.0559,0 0.10058,0.0335 0.0559,0.0224 0.0782,0.10058 0.0335,0.0782 0.0559,0.21235 0.0223,0.13411 0.0223,0.33528 z m 12.70025,-4.7275 q 0,0.43587 -0.22353,0.62587 -0.21234,0.17882 -0.49175,0.17882 h -6.59391 q 0,0.8382 0.16764,1.50877 0.16764,0.67057 0.55881,1.15114 0.39116,0.48058 1.01703,0.73763 0.62585,0.25705 1.53111,0.25705 0.71529,0 1.27409,-0.11176 0.55881,-0.12294 0.96114,-0.26823 0.41352,-0.14529 0.67057,-0.25705 0.26823,-0.12294 0.40234,-0.12294 0.0782,0 0.13411,0.0447 0.0671,0.0335 0.10059,0.11176 0.0335,0.0782 0.0447,0.22352 0.0224,0.13411 0.0224,0.33528 0,0.14529 -0.0112,0.25705 -0.0112,0.10059 -0.0335,0.19 -0.0112,0.0782 -0.0559,0.14529 -0.0335,0.067 -0.10059,0.13411 -0.0559,0.0559 -0.35763,0.20117 -0.30175,0.13411 -0.78233,0.26823 -0.48058,0.13411 -1.11761,0.2347 -0.62587,0.11176 -1.34114,0.11176 -1.24055,0 -2.17934,-0.34646 -0.92762,-0.34646 -1.56466,-1.0282 -0.63704,-0.68175 -0.96115,-1.70995 -0.3241,-1.02821 -0.3241,-2.39169 0,-1.29643 0.33528,-2.32464 0.33528,-1.03938 0.96115,-1.75465 0.63703,-0.72645 1.53112,-1.10643 0.89409,-0.39117 2.00053,-0.39117 1.18467,0 2.0117,0.37999 0.83821,0.37999 1.37467,1.0282 0.53645,0.63704 0.78232,1.50878 0.25707,0.86056 0.25707,1.84406 z m -1.85524,-0.54763 q 0.0335,-1.45289 -0.64822,-2.27992 -0.67056,-0.82704 -2.00052,-0.82704 -0.68175,0 -1.19585,0.25705 -0.5141,0.25705 -0.86056,0.68175 -0.34646,0.42469 -0.53645,0.99467 -0.19,0.55881 -0.21235,1.17349 z m 12.46554,-3.38636 q 0,0.24587 -0.0112,0.41352 -0.0112,0.16764 -0.0447,0.26822 -0.0335,0.0894 -0.0894,0.14529 -0.0447,0.0447 -0.13411,0.0447 -0.0894,0 -0.22352,-0.0447 -0.12294,-0.0559 -0.29058,-0.10058 -0.15647,-0.0559 -0.35764,-0.10059 -0.20117,-0.0447 -0.43587,-0.0447 -0.2794,0 -0.54763,0.11176 -0.26822,0.11176 -0.56998,0.36881 -0.29058,0.25705 -0.61469,0.68174 -0.3241,0.4247 -0.71527,1.03938 v 6.61627 q 0,0.0894 -0.0447,0.15646 -0.0447,0.0559 -0.14529,0.10059 -0.10059,0.0447 -0.2794,0.0671 -0.17882,0.0223 -0.45823,0.0223 -0.26822,0 -0.44704,-0.0223 -0.17882,-0.0224 -0.29058,-0.0671 -0.10058,-0.0447 -0.14529,-0.10059 -0.0335,-0.067 -0.0335,-0.15646 v -10.05851 q 0,-0.0894 0.0335,-0.14529 0.0335,-0.0671 0.13411,-0.11176 0.10059,-0.0559 0.25706,-0.0671 0.15646,-0.0224 0.41351,-0.0224 0.24588,0 0.40234,0.0224 0.16764,0.0112 0.25705,0.0671 0.0894,0.0447 0.12294,0.11176 0.0447,0.0559 0.0447,0.14529 v 1.46407 q 0.41352,-0.60351 0.77116,-0.9835 0.36881,-0.37999 0.69292,-0.59233 0.3241,-0.22353 0.63703,-0.30176 0.32411,-0.0894 0.64821,-0.0894 0.14529,0 0.32411,0.0223 0.18999,0.0112 0.39116,0.0559 0.20118,0.0447 0.35764,0.10058 0.16764,0.0559 0.2347,0.11176 0.067,0.0559 0.0894,0.11176 0.0223,0.0447 0.0335,0.12294 0.0223,0.0782 0.0223,0.2347 0.0112,0.14529 0.0112,0.40234 z"
     id="text42"
     style="font-size:22.8887px;line-height:0.9;font-family:Calibri;-inkscape-font-specification:Calibri;letter-spacing:1.92646px;fill:#f5f5f4;stroke-width:1.90738;stroke-dashoffset:5.32"
     aria-label="lighter" />
  <g
     id="layer2"
     transform="translate(-68.114624,-42.234211)" />
  <metadata
     id="metadata1">
    <rdf:RDF>
      <cc:Work
         rdf:about="">
        <dc:creator>
          <cc:Agent>
            <dc:title>David Matthew</dc:title>
          </cc:Agent>
        </dc:creator>
      </cc:Work>
    </rdf:RDF>
  </metadata>
</svg>
