<svg xmlns="http://www.w3.org/2000/svg" width="652" height="652" viewBox="0 0 1000 1000"><defs><filter id="colourise" x="-25%" y="-25%" width="150%" height="150%" filterUnits="userSpaceOnUse" color-interpolation-filters="sRGB"><feColorMatrix type="saturate" values="0" result="desaturate"></feColorMatrix><feFlood flood-color="#7F462C" result="brown"></feFlood><feBlend mode="lighten" in="brown" in2="desaturate" result="blend"></feBlend><feComposite in="blend" in2="SourceGraphic" operator="atop"></feComposite></filter></defs><rect x="0" y="0" width="1000" height="1000" fill="#181818"></rect><g filter="url(#colourise)" transform="translate(140.611 177)"><rect x="145.55555555555554" y="0" width="63.77777777777777" height="63.77777777777777" fill="rgb(
          23,10,85
        )"></rect><rect x="218.33333333333331" y="0" width="63.77777777777777" height="63.77777777777777" fill="rgb(
          135,38,23
        )"></rect><rect x="363.88888888888886" y="0" width="63.77777777777777" height="63.77777777777777" fill="rgb(
          103,4,65
        )"></rect><rect x="436.66666666666663" y="0" width="63.77777777777777" height="63.77777777777777" fill="rgb(
          107,185,143
        )"></rect><rect x="509.4444444444444" y="0" width="63.77777777777777" height="63.77777777777777" fill="rgb(
          160,82,88
        )"></rect><rect x="582.2222222222222" y="0" width="63.77777777777777" height="63.77777777777777" fill="rgb(
          42,177,201
        )"></rect><rect x="218.33333333333331" y="72.77777777777777" width="63.77777777777777" height="63.77777777777777" fill="rgb(
          235,37,125
        )"></rect><rect x="291.1111111111111" y="72.77777777777777" width="63.77777777777777" height="63.77777777777777" fill="rgb(
          163,225,159
        )"></rect><rect x="436.66666666666663" y="72.77777777777777" width="63.77777777777777" height="63.77777777777777" fill="rgb(
          70,49,112
        )"></rect><rect x="509.4444444444444" y="72.77777777777777" width="63.77777777777777" height="63.77777777777777" fill="rgb(
          65,79,146
        )"></rect><rect x="582.2222222222222" y="72.77777777777777" width="63.77777777777777" height="63.77777777777777" fill="rgb(
          98,68,168
        )"></rect><rect x="218.33333333333331" y="145.55555555555554" width="63.77777777777777" height="63.77777777777777" fill="rgb(
          240,180,64
        )"></rect><rect x="363.88888888888886" y="145.55555555555554" width="63.77777777777777" height="63.77777777777777" fill="rgb(
          7,59,39
        )"></rect><rect x="436.66666666666663" y="145.55555555555554" width="63.77777777777777" height="63.77777777777777" fill="rgb(
          143,7,35
        )"></rect><rect x="509.4444444444444" y="145.55555555555554" width="63.77777777777777" height="63.77777777777777" fill="rgb(
          114,252,58
        )"></rect><rect x="145.55555555555554" y="218.33333333333331" width="63.77777777777777" height="63.77777777777777" fill="rgb(
          156,160,112
        )"></rect><rect x="291.1111111111111" y="218.33333333333331" width="63.77777777777777" height="63.77777777777777" fill="rgb(
          65,16,71
        )"></rect><rect x="72.77777777777777" y="291.1111111111111" width="63.77777777777777" height="63.77777777777777" fill="rgb(
          123,204,200
        )"></rect><rect x="145.55555555555554" y="291.1111111111111" width="63.77777777777777" height="63.77777777777777" fill="rgb(
          159,79,140
        )"></rect><rect x="291.1111111111111" y="291.1111111111111" width="63.77777777777777" height="63.77777777777777" fill="rgb(
          68,171,62
        )"></rect><rect x="582.2222222222222" y="291.1111111111111" width="63.77777777777777" height="63.77777777777777" fill="rgb(
          251,173,224
        )"></rect><rect x="72.77777777777777" y="363.88888888888886" width="63.77777777777777" height="63.77777777777777" fill="rgb(
          22,56,86
        )"></rect><rect x="145.55555555555554" y="363.88888888888886" width="63.77777777777777" height="63.77777777777777" fill="rgb(
          0,174,158
        )"></rect><rect x="291.1111111111111" y="363.88888888888886" width="63.77777777777777" height="63.77777777777777" fill="rgb(
          173,25,223
        )"></rect><rect x="363.88888888888886" y="363.88888888888886" width="63.77777777777777" height="63.77777777777777" fill="rgb(
          107,74,53
        )"></rect><rect x="509.4444444444444" y="363.88888888888886" width="63.77777777777777" height="63.77777777777777" fill="rgb(
          187,2,45
        )"></rect><rect x="582.2222222222222" y="363.88888888888886" width="63.77777777777777" height="63.77777777777777" fill="rgb(
          119,118,60
        )"></rect><rect x="72.77777777777777" y="436.66666666666663" width="63.77777777777777" height="63.77777777777777" fill="rgb(
          124,11,44
        )"></rect><rect x="145.55555555555554" y="436.66666666666663" width="63.77777777777777" height="63.77777777777777" fill="rgb(
          226,93,134
        )"></rect><rect x="218.33333333333331" y="436.66666666666663" width="63.77777777777777" height="63.77777777777777" fill="rgb(
          219,245,74
        )"></rect><rect x="291.1111111111111" y="436.66666666666663" width="63.77777777777777" height="63.77777777777777" fill="rgb(
          204,24,86
        )"></rect><rect x="363.88888888888886" y="436.66666666666663" width="63.77777777777777" height="63.77777777777777" fill="rgb(
          90,40,226
        )"></rect><rect x="218.33333333333331" y="509.4444444444444" width="63.77777777777777" height="63.77777777777777" fill="rgb(
          186,91,129
        )"></rect><rect x="291.1111111111111" y="509.4444444444444" width="63.77777777777777" height="63.77777777777777" fill="rgb(
          6,116,177
        )"></rect><rect x="363.88888888888886" y="509.4444444444444" width="63.77777777777777" height="63.77777777777777" fill="rgb(
          53,156,8
        )"></rect><rect x="436.66666666666663" y="509.4444444444444" width="63.77777777777777" height="63.77777777777777" fill="rgb(
          206,155,38
        )"></rect><rect x="72.77777777777777" y="582.2222222222222" width="63.77777777777777" height="63.77777777777777" fill="rgb(
          41,214,224
        )"></rect><rect x="145.55555555555554" y="582.2222222222222" width="63.77777777777777" height="63.77777777777777" fill="rgb(
          65,254,173
        )"></rect><rect x="218.33333333333331" y="582.2222222222222" width="63.77777777777777" height="63.77777777777777" fill="rgb(
          190,158,234
        )"></rect><rect x="436.66666666666663" y="582.2222222222222" width="63.77777777777777" height="63.77777777777777" fill="rgb(
          233,132,45
        )"></rect><rect x="509.4444444444444" y="582.2222222222222" width="63.77777777777777" height="63.77777777777777" fill="rgb(
          197,48,234
        )"></rect><rect x="582.2222222222222" y="582.2222222222222" width="63.77777777777777" height="63.77777777777777" fill="rgb(
          77,177,131
        )"></rect></g></svg>