<?xml version="1.0" encoding="UTF-8" standalone="no"?>
<svg
   width="1551.6012"
   height="429.89606"
   viewBox="0 0 2379.7564 659.34978"
   version="1.1"
   id="svg42"
   xml:space="preserve"
   xmlns="http://www.w3.org/2000/svg"
   xmlns:svg="http://www.w3.org/2000/svg"><defs
     id="defs1"><filter
       width="1.1"
       height="1.1"
       y="-0.050000001"
       x="-0.050000001"
       style="color-interpolation-filters:sRGB"
       id="filter57"><feColorMatrix
         id="feColorMatrix58"
         type="saturate"
         result="result2"
         values="0.75" /><feComposite
         id="feComposite58"
         in="result2"
         operator="over"
         in2="SourceGraphic"
         result="result3" /><feTurbulence
         baseFrequency="0.0070000000000000001"
         type="fractalNoise"
         seed="31"
         numOctaves="1"
         result="result1"
         id="feTurbulence57" /><feDisplacementMap
         xChannelSelector="R"
         yChannelSelector="A"
         scale="45.22293"
         in="result3"
         id="feDisplacementMap57" /><feGaussianBlur
         stdDeviation="0.5"
         id="feGaussianBlur141" /></filter><filter
       width="1"
       height="1"
       y="0"
       x="0"
       style="color-interpolation-filters:sRGB"
       id="filter98"><feColorMatrix
         id="feColorMatrix98"
         type="saturate"
         result="result2"
         values="0.75" /></filter><filter
       width="1"
       height="1"
       y="0"
       x="0"
       style="color-interpolation-filters:sRGB"
       id="filter139"><feTurbulence
         baseFrequency="0.0069999999999999897"
         type="fractalNoise"
         seed="31"
         numOctaves="1"
         result="result1"
         id="feTurbulence139" /><feComposite
         id="feComposite43"
         in2="SourceGraphic"
         operator="atop" /></filter></defs><rect
     x="0"
     y="-7.1054274e-15"
     width="2379.7563"
     height="659.34979"
     fill="#181818"
     id="rect1"
     style="stroke-width:1.25265" /><g
     filter="url(#colourise)"
     transform="matrix(0.78781837,0,0,0.78781837,1780.7631,53.150649)"
     id="g42"
     style="filter:url(#filter57)"><rect
       x="88.75"
       y="0"
       width="80.75"
       height="80.75"
       fill="#4070bc"
       id="rect2" /><rect
       x="177.5"
       y="0"
       width="80.75"
       height="80.75"
       fill="#8f7866"
       id="rect3" /><rect
       x="266.25"
       y="0"
       width="80.75"
       height="80.75"
       fill="#f4a4f1"
       id="rect4" /><rect
       x="355"
       y="0"
       width="80.75"
       height="80.75"
       fill="#b7aede"
       id="rect5" /><rect
       x="443.75"
       y="0"
       width="80.75"
       height="80.75"
       fill="#240ee0"
       id="rect6" /><rect
       x="621.25"
       y="0"
       width="80.75"
       height="80.75"
       fill="#97127c"
       id="rect7" /><rect
       x="0"
       y="88.75"
       width="80.75"
       height="80.75"
       fill="#b0c798"
       id="rect8" /><rect
       x="88.75"
       y="88.75"
       width="80.75"
       height="80.75"
       fill="#1a4266"
       id="rect9" /><rect
       x="177.5"
       y="88.75"
       width="80.75"
       height="80.75"
       fill="#522997"
       id="rect10" /><rect
       x="266.25"
       y="88.75"
       width="80.75"
       height="80.75"
       fill="#e06689"
       id="rect11" /><rect
       x="0"
       y="177.5"
       width="80.75"
       height="80.75"
       fill="#fba8ec"
       id="rect12" /><rect
       x="177.5"
       y="177.5"
       width="80.75"
       height="80.75"
       fill="#44412f"
       id="rect13" /><rect
       x="355"
       y="177.5"
       width="80.75"
       height="80.75"
       fill="#0e2e97"
       id="rect14" /><rect
       x="532.5"
       y="177.5"
       width="80.75"
       height="80.75"
       fill="#e1fe83"
       id="rect15" /><rect
       x="88.75"
       y="266.25"
       width="80.75"
       height="80.75"
       fill="#c35777"
       id="rect16" /><rect
       x="355"
       y="266.25"
       width="80.75"
       height="80.75"
       fill="#f0392d"
       id="rect17" /><rect
       x="532.5"
       y="266.25"
       width="80.75"
       height="80.75"
       fill="#9de9e4"
       id="rect18" /><rect
       x="621.25"
       y="266.25"
       width="80.75"
       height="80.75"
       fill="#7fdafc"
       id="rect19" /><rect
       x="0"
       y="355"
       width="80.75"
       height="80.75"
       fill="#db6d16"
       id="rect20" /><rect
       x="88.75"
       y="355"
       width="80.75"
       height="80.75"
       fill="#b1ca2e"
       id="rect21" /><rect
       x="266.25"
       y="355"
       width="80.75"
       height="80.75"
       fill="#fa317c"
       id="rect22" /><rect
       x="355"
       y="355"
       width="80.75"
       height="80.75"
       fill="#a44ff1"
       id="rect23" /><rect
       x="443.75"
       y="355"
       width="80.75"
       height="80.75"
       fill="#b0ec0d"
       id="rect24" /><rect
       x="532.5"
       y="355"
       width="80.75"
       height="80.75"
       fill="#1d9633"
       id="rect25" /><rect
       x="0"
       y="443.75"
       width="80.75"
       height="80.75"
       fill="#8fec6e"
       id="rect26" /><rect
       x="88.75"
       y="443.75"
       width="80.75"
       height="80.75"
       fill="#fe0b5b"
       id="rect27" /><rect
       x="177.5"
       y="443.75"
       width="80.75"
       height="80.75"
       fill="#ce8060"
       id="rect28" /><rect
       x="355"
       y="443.75"
       width="80.75"
       height="80.75"
       fill="#ab18bd"
       id="rect29" /><rect
       x="443.75"
       y="443.75"
       width="80.75"
       height="80.75"
       fill="#28a318"
       id="rect30" /><rect
       x="532.5"
       y="443.75"
       width="80.75"
       height="80.75"
       fill="#23afb5"
       id="rect31" /><rect
       x="621.25"
       y="443.75"
       width="80.75"
       height="80.75"
       fill="#493f47"
       id="rect32" /><rect
       x="0"
       y="532.5"
       width="80.75"
       height="80.75"
       fill="#285ed5"
       id="rect33" /><rect
       x="88.75"
       y="532.5"
       width="80.75"
       height="80.75"
       fill="#d329ba"
       id="rect34" /><rect
       x="177.5"
       y="532.5"
       width="80.75"
       height="80.75"
       fill="#7d9c72"
       id="rect35" /><rect
       x="266.25"
       y="532.5"
       width="80.75"
       height="80.75"
       fill="#6c5ac8"
       id="rect36" /><rect
       x="443.75"
       y="532.5"
       width="80.75"
       height="80.75"
       fill="#0a26cf"
       id="rect37" /><rect
       x="266.25"
       y="621.25"
       width="80.75"
       height="80.75"
       fill="#13f9cf"
       id="rect38" /><rect
       x="355"
       y="621.25"
       width="80.75"
       height="80.75"
       fill="#34417f"
       id="rect39" /><rect
       x="443.75"
       y="621.25"
       width="80.75"
       height="80.75"
       fill="#c907b1"
       id="rect40" /><rect
       x="532.5"
       y="621.25"
       width="80.75"
       height="80.75"
       fill="#28b5d5"
       id="rect41" /><rect
       x="621.25"
       y="621.25"
       width="80.75"
       height="80.75"
       fill="#a77b8f"
       id="rect42" /></g><g
     filter="url(#colourise)"
     transform="matrix(0.78781837,0,0,0.78781837,42.412463,53.150656)"
     id="g98"
     style="filter:url(#filter98)"><rect
       x="88.75"
       y="0"
       width="80.75"
       height="80.75"
       fill="#4070bc"
       id="rect58" /><rect
       x="177.5"
       y="0"
       width="80.75"
       height="80.75"
       fill="#8f7866"
       id="rect59" /><rect
       x="266.25"
       y="0"
       width="80.75"
       height="80.75"
       fill="#f4a4f1"
       id="rect60" /><rect
       x="355"
       y="0"
       width="80.75"
       height="80.75"
       fill="#b7aede"
       id="rect61" /><rect
       x="443.75"
       y="0"
       width="80.75"
       height="80.75"
       fill="#240ee0"
       id="rect62" /><rect
       x="621.25"
       y="0"
       width="80.75"
       height="80.75"
       fill="#97127c"
       id="rect63" /><rect
       x="0"
       y="88.75"
       width="80.75"
       height="80.75"
       fill="#b0c798"
       id="rect64" /><rect
       x="88.75"
       y="88.75"
       width="80.75"
       height="80.75"
       fill="#1a4266"
       id="rect65" /><rect
       x="177.5"
       y="88.75"
       width="80.75"
       height="80.75"
       fill="#522997"
       id="rect66" /><rect
       x="266.25"
       y="88.75"
       width="80.75"
       height="80.75"
       fill="#e06689"
       id="rect67" /><rect
       x="0"
       y="177.5"
       width="80.75"
       height="80.75"
       fill="#fba8ec"
       id="rect68" /><rect
       x="177.5"
       y="177.5"
       width="80.75"
       height="80.75"
       fill="#44412f"
       id="rect69" /><rect
       x="355"
       y="177.5"
       width="80.75"
       height="80.75"
       fill="#0e2e97"
       id="rect70" /><rect
       x="532.5"
       y="177.5"
       width="80.75"
       height="80.75"
       fill="#e1fe83"
       id="rect71" /><rect
       x="88.75"
       y="266.25"
       width="80.75"
       height="80.75"
       fill="#c35777"
       id="rect72" /><rect
       x="355"
       y="266.25"
       width="80.75"
       height="80.75"
       fill="#f0392d"
       id="rect73" /><rect
       x="532.5"
       y="266.25"
       width="80.75"
       height="80.75"
       fill="#9de9e4"
       id="rect74" /><rect
       x="621.25"
       y="266.25"
       width="80.75"
       height="80.75"
       fill="#7fdafc"
       id="rect75" /><rect
       x="0"
       y="355"
       width="80.75"
       height="80.75"
       fill="#db6d16"
       id="rect76" /><rect
       x="88.75"
       y="355"
       width="80.75"
       height="80.75"
       fill="#b1ca2e"
       id="rect77" /><rect
       x="266.25"
       y="355"
       width="80.75"
       height="80.75"
       fill="#fa317c"
       id="rect78" /><rect
       x="355"
       y="355"
       width="80.75"
       height="80.75"
       fill="#a44ff1"
       id="rect79" /><rect
       x="443.75"
       y="355"
       width="80.75"
       height="80.75"
       fill="#b0ec0d"
       id="rect80" /><rect
       x="532.5"
       y="355"
       width="80.75"
       height="80.75"
       fill="#1d9633"
       id="rect81" /><rect
       x="0"
       y="443.75"
       width="80.75"
       height="80.75"
       fill="#8fec6e"
       id="rect82" /><rect
       x="88.75"
       y="443.75"
       width="80.75"
       height="80.75"
       fill="#fe0b5b"
       id="rect83" /><rect
       x="177.5"
       y="443.75"
       width="80.75"
       height="80.75"
       fill="#ce8060"
       id="rect84" /><rect
       x="355"
       y="443.75"
       width="80.75"
       height="80.75"
       fill="#ab18bd"
       id="rect85" /><rect
       x="443.75"
       y="443.75"
       width="80.75"
       height="80.75"
       fill="#28a318"
       id="rect86" /><rect
       x="532.5"
       y="443.75"
       width="80.75"
       height="80.75"
       fill="#23afb5"
       id="rect87" /><rect
       x="621.25"
       y="443.75"
       width="80.75"
       height="80.75"
       fill="#493f47"
       id="rect88" /><rect
       x="0"
       y="532.5"
       width="80.75"
       height="80.75"
       fill="#285ed5"
       id="rect89" /><rect
       x="88.75"
       y="532.5"
       width="80.75"
       height="80.75"
       fill="#d329ba"
       id="rect90" /><rect
       x="177.5"
       y="532.5"
       width="80.75"
       height="80.75"
       fill="#7d9c72"
       id="rect91" /><rect
       x="266.25"
       y="532.5"
       width="80.75"
       height="80.75"
       fill="#6c5ac8"
       id="rect92" /><rect
       x="443.75"
       y="532.5"
       width="80.75"
       height="80.75"
       fill="#0a26cf"
       id="rect93" /><rect
       x="266.25"
       y="621.25"
       width="80.75"
       height="80.75"
       fill="#13f9cf"
       id="rect94" /><rect
       x="355"
       y="621.25"
       width="80.75"
       height="80.75"
       fill="#34417f"
       id="rect95" /><rect
       x="443.75"
       y="621.25"
       width="80.75"
       height="80.75"
       fill="#c907b1"
       id="rect96" /><rect
       x="532.5"
       y="621.25"
       width="80.75"
       height="80.75"
       fill="#28b5d5"
       id="rect97" /><rect
       x="621.25"
       y="621.25"
       width="80.75"
       height="80.75"
       fill="#a77b8f"
       id="rect98" /></g><g
     id="g146"
     transform="matrix(0.8206035,0,0,0.8206035,-24.130866,-25.459351)"><rect
       style="opacity:1;fill:#f8f8f8;fill-opacity:1;stroke:none;stroke-width:3.78903;stroke-dashoffset:5.32"
       id="rect142"
       width="34.574142"
       height="172.45813"
       x="943.62256"
       y="342.70279"
       rx="2.5318377"
       ry="2.5318377" /><rect
       style="opacity:1;fill:#f8f8f8;fill-opacity:1;stroke:none;stroke-width:3.78903;stroke-dashoffset:5.32"
       id="rect143"
       width="34.574142"
       height="172.45813"
       x="411.64478"
       y="-1047.1387"
       rx="2.5318377"
       ry="2.5318377"
       transform="rotate(90)" /></g><g
     id="g145"
     transform="matrix(0.8206035,0,0,0.8206035,133.86348,10.350961)"><rect
       style="opacity:1;fill:#f8f8f8;fill-opacity:1;stroke:none;stroke-width:3.78903;stroke-dashoffset:5.32"
       id="rect144"
       width="34.574142"
       height="172.45813"
       x="411.64478"
       y="-1915.6366"
       rx="2.5318377"
       ry="2.5318377"
       transform="rotate(90)" /><rect
       style="opacity:1;fill:#f8f8f8;fill-opacity:1;stroke:none;stroke-width:3.78903;stroke-dashoffset:5.32"
       id="rect145"
       width="34.574142"
       height="172.45813"
       x="332.04718"
       y="-1915.6366"
       rx="2.5318377"
       ry="2.5318377"
       transform="rotate(90)" /></g><rect
     style="fill:#ffffff;stroke-width:5.34986;stroke-dashoffset:5.32;filter:url(#filter139)"
     id="rect5-8"
     width="489.82901"
     height="489.82901"
     x="1027.8197"
     y="121.7068"
     rx="10.88509"
     ry="10.88509"
     transform="matrix(1.1290656,0,0,1.1290656,-227.14699,-84.264603)" /></svg>
