<?xml version="1.0" encoding="UTF-8" standalone="no"?>
<!-- Created with Inkscape (http://www.inkscape.org/) -->

<svg
   width="1000"
   height="1000"
   viewBox="0 0 1000 1000"
   version="1.1"
   id="svg1"
   xml:space="preserve"
   xmlns:xlink="http://www.w3.org/1999/xlink"
   xmlns="http://www.w3.org/2000/svg"
   xmlns:svg="http://www.w3.org/2000/svg"
   xmlns:rdf="http://www.w3.org/1999/02/22-rdf-syntax-ns#"
   xmlns:cc="http://creativecommons.org/ns#"
   xmlns:dc="http://purl.org/dc/elements/1.1/"><defs
     id="defs1"><linearGradient
       id="linearGradient100"><stop
         style="stop-color:#222424;stop-opacity:1;"
         offset="0"
         id="stop100" /><stop
         style="stop-color:#222424;stop-opacity:0;"
         offset="1"
         id="stop101" /></linearGradient><linearGradient
       id="linearGradient98"><stop
         style="stop-color:#222424;stop-opacity:1;"
         offset="0"
         id="stop98" /><stop
         style="stop-color:#222424;stop-opacity:0;"
         offset="1"
         id="stop99" /></linearGradient><linearGradient
       id="linearGradient96"><stop
         style="stop-color:#222424;stop-opacity:1;"
         offset="0"
         id="stop96" /><stop
         style="stop-color:#222424;stop-opacity:0;"
         offset="1"
         id="stop97" /></linearGradient><linearGradient
       id="linearGradient94"><stop
         style="stop-color:#222424;stop-opacity:1;"
         offset="0"
         id="stop94" /><stop
         style="stop-color:#222424;stop-opacity:0;"
         offset="1"
         id="stop95" /></linearGradient><linearGradient
       id="linearGradient367"><stop
         style="stop-color:#5eead4;stop-opacity:1"
         offset="0"
         id="stop367" /><stop
         style="stop-color:#e879f9;stop-opacity:1"
         offset="1"
         id="stop368" /></linearGradient><linearGradient
       xlink:href="#linearGradient367"
       id="linearGradient86"
       x1="125.51575"
       y1="105.02779"
       x2="433.76892"
       y2="372.7261"
       gradientUnits="userSpaceOnUse" /><linearGradient
       xlink:href="#linearGradient367"
       id="linearGradient88"
       x1="573.83154"
       y1="103.96413"
       x2="874.28192"
       y2="465.24097"
       gradientUnits="userSpaceOnUse" /><linearGradient
       xlink:href="#linearGradient367"
       id="linearGradient90"
       x1="125.58909"
       y1="534.31543"
       x2="426.2933"
       y2="895.46106"
       gradientUnits="userSpaceOnUse" /><linearGradient
       xlink:href="#linearGradient367"
       id="linearGradient92"
       x1="573.89502"
       y1="534.29907"
       x2="874.43951"
       y2="895.97925"
       gradientUnits="userSpaceOnUse" /><linearGradient
       xlink:href="#linearGradient94"
       id="linearGradient95"
       x1="125.51576"
       y1="239.62375"
       x2="436.35596"
       y2="239.62375"
       gradientUnits="userSpaceOnUse" /><linearGradient
       xlink:href="#linearGradient96"
       id="linearGradient97"
       x1="573.83156"
       y1="284.60254"
       x2="874.28193"
       y2="284.60254"
       gradientUnits="userSpaceOnUse" /><linearGradient
       xlink:href="#linearGradient98"
       id="linearGradient99"
       x1="573.89504"
       y1="715.13916"
       x2="874.4395"
       y2="715.13916"
       gradientUnits="userSpaceOnUse" /><linearGradient
       xlink:href="#linearGradient100"
       id="linearGradient101"
       x1="125.58909"
       y1="714.88822"
       x2="426.29331"
       y2="714.88822"
       gradientUnits="userSpaceOnUse" /></defs><g
     id="layer1"><rect
       style="fill:#181818;fill-opacity:1;stroke:none;stroke-width:1.00976"
       id="rect1"
       width="1000"
       height="1000"
       x="1.5258789e-05"
       y="0" /></g><path
     d="m 674.83005,195.82187 49.22669,-88.77772 49.22968,88.78071 h 98.45936 l -49.22968,88.77772 49.22968,88.78071 h -98.45936 l -49.22968,88.77772 -49.22967,-88.78071 h -98.45936 l 49.22968,-88.77772 -49.22819,-88.78071 z"
     stroke="#000000"
     id="path104"
     style="fill:url(#linearGradient97);fill-opacity:1;stroke:none;stroke-width:2.98724;stroke-linecap:square;stroke-linejoin:miter" /><metadata
     id="metadata1"><rdf:RDF><cc:Work
         rdf:about=""><dc:creator><cc:Agent><dc:title>David Matthew</dc:title></cc:Agent></dc:creator></cc:Work></rdf:RDF></metadata><path
     d="m 280.93586,108.015 76.41653,132.35555 76.41653,132.35554 H 280.93586 128.1028 l 76.41653,-132.35554 z"
     stroke="#000000"
     id="path1"
     style="fill:url(#linearGradient95);stroke:url(#linearGradient86);stroke-width:2.98724;fill-opacity:1" /><path
     style="opacity:0.36280138;fill:#06b6d4;fill-opacity:1;stroke:#ffffff;stroke-width:2;stroke-linecap:butt;stroke-dasharray:10,10;stroke-opacity:1;stroke-dashoffset:0"
     d="m 674.83005,195.82187 -49.23266,88.78071"
     id="path101" /><path
     d="m 128.1267,803.63607 16.42384,-29.58261 -16.42384,-29.58262 h 32.84767 L 177.3982,714.88823 160.97437,685.30561 H 128.1267 l 16.42384,-29.58262 -16.42384,-29.58261 h 32.84767 l 16.42383,-29.58262 16.42384,29.58262 h 32.84766 l 16.42384,-29.58262 -16.42384,-29.58261 h 32.84767 l 16.42383,-29.58262 16.42384,29.58262 h 32.84766 l -16.42383,29.58261 16.42383,29.58262 h 32.84767 l 16.42383,-29.58262 16.42384,29.58262 h 32.84766 l -16.42383,29.58261 16.42383,29.58262 h -32.84766 l -16.42384,29.58262 16.42384,29.58261 h 32.84766 l -16.42383,29.58262 16.42383,29.58261 H 390.90804 L 374.4842,833.21869 358.06037,803.63607 H 325.2127 l -16.42383,29.58262 16.42383,29.58262 h -32.84766 l -16.42384,29.58261 -16.42383,-29.58261 h -32.85065 l 16.42383,-29.58262 -16.42383,-29.58262 H 193.82204 L 177.3982,833.21869 160.97437,803.63607 H 128.1267"
     stroke="#000000"
     id="path5"
     style="fill:url(#linearGradient101);stroke:none;stroke-width:2.98724;fill-opacity:1" /><path
     d="m 576.51408,803.96766 5.46964,-9.86984 -5.46964,-9.86983 h 10.93628 l 5.46963,-9.86983 -5.46963,-9.86984 h -10.93628 l 5.46964,-9.86983 -5.46964,-9.86983 h 10.93628 l 5.46963,-9.86984 5.46964,9.86984 h 10.93627 l 5.46964,-9.86984 -5.46964,-9.86983 h 10.93628 l 5.46963,-9.86984 -5.46963,-9.86983 H 609.3259 l 5.46964,-9.86983 -5.46964,-9.86984 h -10.93627 l -5.46964,9.86984 -5.46963,-9.86984 h -10.93628 l 5.46964,-9.86983 -5.46964,-9.86983 h 10.93628 l 5.46963,-9.86984 -5.46963,-9.86983 h -10.93628 l 5.46964,-9.86983 -5.46964,-9.86984 h 10.93628 l 5.46963,-9.86983 5.46964,9.86983 h 10.93627 l 5.46964,-9.86983 -5.46964,-9.86984 h 10.93628 l 5.46963,-9.86983 5.46964,9.86983 h 10.93627 l -5.46963,9.86984 5.46963,9.86983 H 653.074 l 5.46963,-9.86983 5.46964,9.86983 h 10.93627 l 5.46964,-9.86983 -5.46964,-9.86984 h 10.93628 l 5.46963,-9.86983 -5.46963,-9.86983 h -10.93628 l 5.46964,-9.86984 -5.46964,-9.86983 h 10.93628 l 5.46963,-9.86983 5.46964,9.86983 h 10.93627 l 5.46964,-9.86983 -5.46964,-9.86984 h 10.93628 l 5.46963,-9.86983 5.46964,9.86983 h 10.93627 l -5.46963,9.86984 5.46963,9.86983 h 10.93628 l 5.46963,-9.86983 5.46964,9.86983 H 773.385 l -5.46963,9.86983 5.46963,9.86984 h -10.93627 l -5.46964,9.86983 5.46964,9.86983 H 773.385 l -5.46963,9.86984 5.46963,9.86983 h 10.93628 l 5.46963,-9.86983 5.46964,9.86983 h 10.93627 l 5.46964,-9.86983 -5.46964,-9.86984 h 10.93628 l 5.46963,-9.86983 5.46964,9.86983 h 10.93627 l -5.46963,9.86984 5.46963,9.86983 h 10.93628 l 5.46963,-9.86983 5.46964,9.86983 h 10.93627 l -5.46963,9.86984 5.46963,9.86983 h -10.93627 l -5.46964,9.86983 5.46964,9.86984 h 10.93627 l -5.46963,9.86983 5.46963,9.86983 h -10.93627 l -5.46964,9.86984 -5.46963,-9.86984 h -10.93628 l -5.46963,9.86984 5.46963,9.86983 h -10.93627 l -5.46964,9.86983 5.46964,9.86984 h 10.93627 l -5.46963,9.86983 5.46963,9.86984 h 10.93628 l 5.46963,-9.86984 5.46964,9.86984 h 10.93627 l -5.46963,9.86983 5.46963,9.86983 h -10.93627 l -5.46964,9.86984 5.46964,9.86983 h 10.93627 l -5.46963,9.86983 5.46963,9.86984 h -10.93627 l -5.46964,9.86983 -5.46963,-9.86983 h -10.93628 l -5.46963,9.86983 5.46963,9.86984 h -10.93627 l -5.46964,9.86983 -5.46963,-9.86983 h -10.93628 l 5.46964,-9.86984 -5.46964,-9.86983 h -10.93627 l -5.46964,9.86983 -5.46963,-9.86983 H 773.385 l -5.46963,9.86983 5.46963,9.86984 h -10.93627 l -5.46964,9.86983 5.46964,9.86983 H 773.385 l -5.46963,9.86984 5.46963,9.86983 h -10.93627 l -5.46964,9.86983 -5.46963,-9.86983 h -10.93628 l -5.46963,9.86983 5.46963,9.86984 h -10.93627 l -5.46964,9.86983 -5.46963,-9.86983 h -10.93628 l 5.46964,-9.86984 -5.46964,-9.86983 h -10.93627 l -5.46964,9.86983 -5.46963,-9.86983 h -10.93628 l 5.46964,-9.86983 -5.46964,-9.86984 h 10.93628 l 5.46963,-9.86983 -5.46963,-9.86983 h -10.93628 l 5.46964,-9.86984 -5.46964,-9.86983 h -10.93627 l -5.46964,9.86983 -5.46963,-9.86983 h -10.93628 l -5.46963,9.86983 5.46963,9.86984 h -10.93627 l -5.46964,9.86983 -5.46963,-9.86983 H 609.3259 l 5.46964,-9.86984 -5.46964,-9.86983 h -10.93627 l -5.46964,9.86983 -5.46963,-9.86983 h -10.93628"
     stroke="#000000"
     stroke-width="3.08582"
     id="path7"
     style="fill:url(#linearGradient99);stroke:url(#linearGradient92);fill-opacity:1" /><path
     style="opacity:0.362801;fill:#06b6d4;fill-opacity:1;stroke:#ffffff;stroke-width:2;stroke-linecap:butt;stroke-dasharray:10,10;stroke-dashoffset:0;stroke-opacity:1"
     d="m 773.28642,195.82486 49.22968,88.77772"
     id="path102" /><path
     style="opacity:0.362801;fill:#06b6d4;fill-opacity:1;stroke:#ffffff;stroke-width:2;stroke-linecap:butt;stroke-dasharray:10,10;stroke-dashoffset:0;stroke-opacity:1"
     d="m 674.82707,373.3803 98.45935,0.003"
     id="path103" /><path
     d="m 674.83005,195.82187 49.22669,-88.77772 49.22968,88.78071 h 98.45936 l -49.22968,88.77772 49.22968,88.78071 h -98.45936 l -49.22968,88.77772 -49.22967,-88.78071 h -98.45936 l 49.22968,-88.77772 -49.22819,-88.78071 z"
     stroke="#000000"
     id="path3"
     style="fill:none;fill-opacity:1;stroke:url(#linearGradient88);stroke-width:2.98724;stroke-linecap:square;stroke-linejoin:miter" /><path
     style="opacity:0.362801;fill:#ffffff;fill-opacity:1;stroke:#ffffff;stroke-width:2;stroke-linecap:square;stroke-linejoin:miter;stroke-dasharray:6,6;stroke-dashoffset:0;stroke-opacity:1;paint-order:stroke fill markers"
     d="m 259.51737,566.97515 h 32.84767"
     id="path106" /><path
     style="opacity:0.362801;fill:#ffffff;fill-opacity:1;stroke:#ffffff;stroke-width:2;stroke-linecap:square;stroke-linejoin:miter;stroke-dasharray:6,6;stroke-dashoffset:0;stroke-opacity:1;paint-order:stroke fill markers"
     d="m 243.09354,596.55776 16.42383,-29.58261"
     id="path107" /><path
     style="opacity:0.362801;fill:#ffffff;fill-opacity:1;stroke:#ffffff;stroke-width:2;stroke-linecap:square;stroke-linejoin:miter;stroke-dasharray:6,6;stroke-dashoffset:0;stroke-opacity:1;paint-order:stroke fill markers"
     d="M 308.78887,596.55776 292.36504,566.97515"
     id="path108" /><path
     style="opacity:0.362801;fill:#ffffff;fill-opacity:1;stroke:#ffffff;stroke-width:2;stroke-linecap:square;stroke-linejoin:miter;stroke-dasharray:6,6;stroke-dashoffset:0;stroke-opacity:1;paint-order:stroke fill markers"
     d="m 358.06037,626.14038 h 32.84767"
     id="path109" /><path
     style="opacity:0.362801;fill:#ffffff;fill-opacity:1;stroke:#ffffff;stroke-width:2;stroke-linecap:square;stroke-linejoin:miter;stroke-dasharray:6,6;stroke-dashoffset:0;stroke-opacity:1;paint-order:stroke fill markers"
     d="M 407.33187,655.72299 390.90804,626.14038"
     id="path110" /><path
     style="opacity:0.362801;fill:#ffffff;fill-opacity:1;stroke:#ffffff;stroke-width:2;stroke-linecap:square;stroke-linejoin:miter;stroke-dasharray:6,6;stroke-dashoffset:0;stroke-opacity:1;paint-order:stroke fill markers"
     d="m 390.90804,685.30561 16.42383,-29.58262"
     id="path111" /><path
     style="opacity:0.362801;fill:#ffffff;fill-opacity:1;stroke:#ffffff;stroke-width:2;stroke-linecap:square;stroke-linejoin:miter;stroke-dasharray:6,6;stroke-dashoffset:0;stroke-opacity:1;paint-order:stroke fill markers"
     d="m 390.90804,744.47084 16.42383,29.58262"
     id="path112" /><path
     style="opacity:0.362801;fill:#ffffff;fill-opacity:1;stroke:#ffffff;stroke-width:2;stroke-linecap:square;stroke-linejoin:miter;stroke-dasharray:6,6;stroke-dashoffset:0;stroke-opacity:1;paint-order:stroke fill markers"
     d="m 390.90804,803.63607 16.42383,-29.58261"
     id="path113" /><path
     style="opacity:0.362801;fill:#ffffff;fill-opacity:1;stroke:#ffffff;stroke-width:2;stroke-linecap:square;stroke-linejoin:miter;stroke-dasharray:6,6;stroke-dashoffset:0;stroke-opacity:1;paint-order:stroke fill markers"
     d="m 358.06037,803.63607 h 32.84767"
     id="path114" /><path
     style="opacity:0.362801;fill:#ffffff;fill-opacity:1;stroke:#ffffff;stroke-width:2;stroke-linecap:square;stroke-linejoin:miter;stroke-dasharray:6,6;stroke-dashoffset:0;stroke-opacity:1;paint-order:stroke fill markers"
     d="m 308.78887,833.21869 -16.42383,29.58262"
     id="path115" /><path
     style="opacity:0.362801;fill:#ffffff;fill-opacity:1;stroke:#ffffff;stroke-width:2;stroke-linecap:square;stroke-linejoin:miter;stroke-dasharray:6,6;stroke-dashoffset:0;stroke-opacity:1;paint-order:stroke fill markers"
     d="m 259.51737,862.80131 h 32.84767"
     id="path116" /><path
     style="opacity:0.362801;fill:#ffffff;fill-opacity:1;stroke:#ffffff;stroke-width:2;stroke-linecap:square;stroke-linejoin:miter;stroke-dasharray:6,6;stroke-dashoffset:0;stroke-opacity:1;paint-order:stroke fill markers"
     d="m 243.09055,833.21869 16.42682,29.58262"
     id="path117" /><path
     style="opacity:0.362801;fill:#ffffff;fill-opacity:1;stroke:#ffffff;stroke-width:2;stroke-linecap:square;stroke-linejoin:miter;stroke-dasharray:6,6;stroke-dashoffset:0;stroke-opacity:1;paint-order:stroke fill markers"
     d="M 193.82204,803.63607 H 160.97437"
     id="path118" /><path
     style="opacity:0.362801;fill:#ffffff;fill-opacity:1;stroke:#ffffff;stroke-width:2;stroke-linecap:square;stroke-linejoin:miter;stroke-dasharray:6,6;stroke-dashoffset:0;stroke-opacity:1;paint-order:stroke fill markers"
     d="m 144.55054,774.05346 16.42383,29.58261"
     id="path119" /><path
     style="opacity:0.362801;fill:#ffffff;fill-opacity:1;stroke:#ffffff;stroke-width:2;stroke-linecap:square;stroke-linejoin:miter;stroke-dasharray:6,6;stroke-dashoffset:0;stroke-opacity:1;paint-order:stroke fill markers"
     d="m 160.97437,744.47084 -16.42383,29.58262"
     id="path120" /><path
     style="opacity:0.362801;fill:#ffffff;fill-opacity:1;stroke:#ffffff;stroke-width:2;stroke-linecap:square;stroke-linejoin:miter;stroke-dasharray:6,6;stroke-dashoffset:0;stroke-opacity:1;paint-order:stroke fill markers"
     d="M 160.97437,685.30561 144.55054,655.72299"
     id="path121" /><path
     style="opacity:0.362801;fill:#ffffff;fill-opacity:1;stroke:#ffffff;stroke-width:2;stroke-linecap:square;stroke-linejoin:miter;stroke-dasharray:6,6;stroke-dashoffset:0;stroke-opacity:1;paint-order:stroke fill markers"
     d="m 160.97437,626.14038 -16.42383,29.58261"
     id="path122" /><path
     style="opacity:0.362801;fill:#ffffff;fill-opacity:1;stroke:#ffffff;stroke-width:2;stroke-linecap:square;stroke-linejoin:miter;stroke-dasharray:6,6;stroke-dashoffset:0;stroke-opacity:1;paint-order:stroke fill markers"
     d="M 193.82204,626.14038 H 160.97437"
     id="path123" /><path
     d="M 144.55054,774.05346 128.1267,744.47084 h 32.84767 L 177.3982,714.88823 160.97437,685.30561 H 128.1267 l 16.42384,-29.58262 -16.42384,-29.58261 h 32.84767 l 16.42383,-29.58262 16.42384,29.58262 h 32.84766 l 16.42384,-29.58262 -16.42384,-29.58261 h 32.84767 l 16.42383,-29.58262 16.42384,29.58262 h 32.84766 l -16.42383,29.58261 16.42383,29.58262 h 32.84767 l 16.42383,-29.58262 16.42384,29.58262 h 32.84766 l -16.42383,29.58261 16.42383,29.58262 h -32.84766 l -16.42384,29.58262 16.42384,29.58261 h 32.84766 l -16.42383,29.58262 16.42383,29.58261 H 390.90804 L 374.4842,833.21869 358.06037,803.63607 H 325.2127 l -16.42383,29.58262 16.42383,29.58262 h -32.84766 l -16.42384,29.58261 -16.42383,-29.58261 h -32.85065 l 16.42383,-29.58262 -16.42383,-29.58262 H 193.82204 L 177.3982,833.21869 160.97437,803.63607 H 128.1267 Z"
     stroke="#000000"
     id="path105"
     style="fill:none;fill-opacity:1;stroke:url(#linearGradient90);stroke-width:2.98724" /></svg>
